<svg width="165" height="165" viewBox="0 0 165 165" fill="none" xmlns="http://www.w3.org/2000/svg">
<path d="M34.768 43.67C36.968 42.79 39.608 42.35 41.698 42.35C45.108 42.35 47.528 42.68 50.058 44.99C55.338 48.07 59.078 54.67 59.078 62.26C59.078 69.74 56.6581 78.87 53.028 86.13C46.3181 99.88 35.648 111.65 23.548 111.65C21.458 111.65 19.478 111.54 16.618 110.33C10.018 107.58 4.62805 100.21 4.62805 91.63C4.62805 69.85 23.218 49.17 34.768 43.67ZM18.488 105.71C24.648 107.36 35.978 98.67 43.458 83.16C47.968 73.7 50.058 65.01 50.058 58.63C50.058 53.24 48.738 49.5 46.5381 48.84C42.028 47.19 30.258 55.22 21.238 70.51C16.398 78.98 14.088 87.67 14.088 94.49C14.088 100.32 15.848 104.5 18.488 105.71ZM106.266 56.65C106.266 59.62 105.606 62.81 103.516 66.88C99.6663 74.69 85.1463 90.31 66.0063 101.64C69.4163 100.87 72.8263 100.54 75.4663 100.43C81.4063 100.43 84.9263 102.41 86.2463 106.15C86.7963 107.58 86.6863 108.57 84.0463 108.57C77.9963 108.57 63.9163 110.99 57.6463 112.86C54.3463 113.85 52.5863 113.41 51.0463 111.87C49.7263 110.33 48.6263 108.46 48.1863 107.03C47.3063 104.83 47.7463 103.62 50.2763 101.97C75.4663 87.01 98.1263 64.35 98.1263 53.57C98.1263 50.38 96.2563 49.06 94.9363 49.06C90.6463 49.06 84.2663 57.31 81.4063 61.71C77.8863 67.1 75.0263 69.52 69.5263 69.19C67.1063 69.08 66.8863 68.53 67.5463 66.66C69.3063 61.49 76.0163 49.72 85.0363 45.21C87.2363 44 89.8763 43.34 92.5163 43.34C96.1463 43.34 99.6663 44.66 102.086 47.19C104.726 49.72 106.266 52.69 106.266 56.65Z" fill="#F7B62D"/>
<circle opacity="0.2" cx="144" cy="39" r="21" fill="#F7B62D" fill-opacity="0.8"/>
<circle cx="144" cy="39" r="11" fill="#F7B62D"/>
</svg>
