<svg width="1466" height="133" viewBox="0 0 1466 133" fill="none" xmlns="http://www.w3.org/2000/svg">
<path d="M383.279 61.416L379.08 75.332H373.904L376.346 61.416H383.279ZM399.832 78.1152C399.539 76.2598 397.879 75.0391 395.487 75.0391C393.143 75.0391 391.336 76.1621 391.385 77.7734C391.336 78.9453 392.313 79.873 394.803 80.4102L399.539 81.3867C404.666 82.4609 407.156 84.7559 407.205 88.5645C407.156 93.7891 402.469 97.3047 395.438 97.3047C388.26 97.3047 384.061 94.082 383.475 88.9062H390.75C391.092 91.0059 392.801 92.0801 395.438 92.0801C398.074 92.0801 399.832 91.0059 399.832 89.2969C399.832 87.9297 398.709 87.0996 396.219 86.5625L391.824 85.6836C386.795 84.707 384.158 82.0703 384.207 78.1641C384.158 73.0859 388.553 69.9121 395.389 69.9121C402.078 69.9121 406.229 73.0859 406.619 78.1152H399.832ZM442.508 71.5234C442.215 68.7402 439.969 67.0801 436.404 67.0801C432.694 67.0801 430.643 68.7891 430.594 71.1328C430.545 73.6719 433.231 74.8438 436.258 75.5273L439.432 76.3086C445.487 77.6758 450.028 80.752 450.028 86.6602C450.028 93.1543 444.949 97.2559 436.356 97.2559C427.811 97.2559 422.342 93.3008 422.147 85.7324H429.276C429.52 89.2969 432.352 91.1035 436.258 91.1035C440.115 91.1035 442.606 89.2969 442.606 86.6602C442.606 84.2676 440.408 83.1445 436.551 82.168L432.694 81.2402C426.737 79.7754 423.074 76.7969 423.074 71.6211C423.074 65.1758 428.738 60.9277 436.453 60.9277C444.266 60.9277 449.442 65.2734 449.539 71.5234H442.508ZM487.186 79.0918C487.186 90.6152 480.008 97.2559 470.682 97.2559C461.258 97.2559 454.129 90.5664 454.129 79.0918C454.129 67.5684 461.258 60.9277 470.682 60.9277C480.008 60.9277 487.186 67.5684 487.186 79.0918ZM479.715 79.0918C479.715 71.5234 476.151 67.4219 470.682 67.4219C465.213 67.4219 461.6 71.5234 461.6 79.0918C461.6 86.6602 465.213 90.7617 470.682 90.7617C476.151 90.7617 479.715 86.6602 479.715 79.0918ZM492.459 96.7676V61.416H499.783V90.7129H515.018V96.7676H492.459ZM541.629 61.416H549.002V84.3652C549.002 92.1289 543.143 97.2559 534.354 97.2559C525.565 97.2559 519.754 92.1289 519.754 84.3652V61.416H527.078V83.7793C527.078 87.832 529.959 90.8105 534.354 90.8105C538.797 90.8105 541.629 87.832 541.629 83.7793V61.416ZM553.592 67.4707V61.416H582.547V67.4707H571.707V96.7676H564.432V67.4707H553.592ZM594.412 61.416V96.7676H587.088V61.416H594.412ZM632.742 79.0918C632.742 90.6152 625.565 97.2559 616.238 97.2559C606.815 97.2559 599.686 90.5664 599.686 79.0918C599.686 67.5684 606.815 60.9277 616.238 60.9277C625.565 60.9277 632.742 67.5684 632.742 79.0918ZM625.272 79.0918C625.272 71.5234 621.707 67.4219 616.238 67.4219C610.77 67.4219 607.156 71.5234 607.156 79.0918C607.156 86.6602 610.77 90.7617 616.238 90.7617C621.707 90.7617 625.272 86.6602 625.272 79.0918ZM667.508 61.416V96.7676H661.16L645.633 74.3066H645.34V96.7676H638.016V61.416H644.461L659.891 83.877H660.233V61.416H667.508Z" fill="white"/>
<path d="M39.0219 39.5972C31.2803 39.5972 25.0002 45.8773 25.0002 53.6189V97.2098H39.0219V50.8393H51.5823C57.6255 50.8393 62.4788 45.9514 62.4788 39.9082V39.6021H39.0219V39.5972Z" fill="#F7B62D"/>
<path d="M76.2043 53.6234V97.2044H90.2359V39.5918C82.4844 39.5918 76.2043 45.8769 76.2043 53.6234Z" fill="#F7B62D"/>
<path d="M144.639 53.6234V75.288L121.163 39.5918C113.411 39.5918 107.131 45.8769 107.131 53.6234V97.2044H121.163V61.6711L144.639 97.2044H158.671V39.5918C150.919 39.5918 144.639 45.8769 144.639 53.6234Z" fill="#F7B62D"/>
<path d="M214.561 53.6234V75.288L191.089 39.5918C183.337 39.5918 177.057 45.8769 177.057 53.6234V97.2044H191.089V61.6711L214.561 97.2044H228.592V39.5918C220.841 39.5918 214.561 45.8769 214.561 53.6234Z" fill="#F7B62D"/>
<path d="M299.797 53.0609C297.185 48.5433 293.65 45.0477 289.138 42.5347C284.62 40.0216 279.633 38.7676 274.237 38.7676C268.841 38.7676 263.849 40.0216 259.331 42.5347C254.819 45.0477 251.22 48.5433 248.568 53.0609C245.922 57.5439 244.599 62.5996 244.599 68.238C244.599 73.8763 245.922 78.932 248.568 83.4446C251.215 87.9573 254.814 91.4923 259.331 94.0005C263.849 96.5135 268.801 97.7676 274.237 97.7676C279.673 97.7676 284.59 96.5135 289.073 94.0005C293.556 91.4874 297.121 87.9573 299.767 83.4446C302.379 78.9271 303.707 73.8713 303.707 68.238C303.707 62.6046 302.384 57.5439 299.802 53.0609H299.797ZM285.267 80.3885C282.517 83.4446 278.819 84.9703 274.232 84.9703C269.645 84.9703 265.883 83.4446 263.099 80.4231C260.348 77.3669 258.956 73.3282 258.956 68.238C258.956 63.1477 260.348 59.0053 263.099 56.0183C265.883 52.9967 269.581 51.5007 274.232 51.5007C278.883 51.5007 282.517 52.9967 285.267 56.0479C288.017 59.0695 289.409 63.1427 289.409 68.233C289.409 73.3233 288.017 77.2978 285.267 80.3885Z" fill="#F7B62D"/>
<path d="M333.721 86.3673V39.5869C325.969 39.5869 319.689 45.872 319.689 53.6185V97.1995H346.691C352.675 97.1995 357.523 92.3512 357.523 86.3673H333.721Z" fill="#F7B62D"/>
<path d="M61.4271 62.9204H39.022V71.4075H61.4271V62.9204Z" fill="#F7B62D"/>
<path d="M660 35.3409C664.391 37.2213 668.785 39.094 673.182 40.9588C686.231 46.4934 699.306 51.9594 712.408 57.3571L715.979 58.7966L714.434 55.2235C707.58 39.0365 700.623 22.8957 693.563 6.80109L690.543 -0.00023222L689.09 7.31598C686.854 18.3127 684.663 29.3181 682.518 40.3324C681.092 47.6515 679.686 54.9744 678.3 62.3012L676.499 71.4599L682.554 64.345C695.241 49.2176 707.819 33.998 720.288 18.6862L724.005 14.3744L718.514 15.9774C703.509 20.8183 688.53 25.7461 673.577 30.761C669.049 32.2797 664.523 33.8063 660 35.3409C664.62 34.1255 669.236 32.9021 673.851 31.6707C689.089 27.6045 704.301 23.4513 719.487 19.2111L717.712 16.5023C704.644 31.3061 691.685 46.202 678.834 61.1901L683.088 63.2339C684.554 55.9227 686 48.6075 687.425 41.2885C689.571 30.2742 691.671 19.2511 693.726 8.21918L689.253 8.73407C696.576 24.7106 704.002 40.6409 711.532 56.525L713.557 54.3914C700.24 49.5502 686.896 44.7774 673.525 40.073C669.02 38.4879 664.511 36.9105 660 35.3409Z" fill="#F7B62D"/>
<path d="M20.1882 110.768L671.053 120.975L672.8 128.23L19.8642 115.327L20.1882 110.768Z" fill="#F8B62D"/>
<path d="M0.00653076 125.402L712.526 125.543L714.993 132.767L0.0024059 129.964L0.00653076 125.402Z" fill="#F8B62D"/>
</svg>
