<svg width="119" height="165" viewBox="0 0 119 165" fill="none" xmlns="http://www.w3.org/2000/svg">
<path d="M63.77 43.67C65.97 42.79 68.61 42.35 70.7 42.35C74.11 42.35 76.53 42.68 79.06 44.99C84.34 48.07 88.08 54.67 88.08 62.26C88.08 69.74 85.66 78.87 82.03 86.13C75.32 99.88 64.65 111.65 52.55 111.65C50.46 111.65 48.48 111.54 45.62 110.33C39.02 107.58 33.63 100.21 33.63 91.63C33.63 69.85 52.22 49.17 63.77 43.67ZM47.49 105.71C53.65 107.36 64.98 98.67 72.46 83.16C76.97 73.7 79.06 65.01 79.06 58.63C79.06 53.24 77.74 49.5 75.54 48.84C71.03 47.19 59.26 55.22 50.24 70.51C45.4 78.98 43.09 87.67 43.09 94.49C43.09 100.32 44.85 104.5 47.49 105.71ZM82.3884 107.14C82.3884 105.38 82.6084 103.07 83.4884 100.32C85.5784 93.83 95.6984 73.15 103.838 58.3C98.4484 58.19 99.4384 56.1 100.758 54.89C103.948 51.7 107.358 48.51 110.548 44.99C112.528 43.23 113.958 42.9 115.498 44.44C117.368 46.09 118.358 47.85 118.358 50.05C118.358 52.58 117.258 55.88 115.058 59.95C102.848 82.5 94.2684 98.34 88.3284 112.31C87.6684 113.85 85.6884 114.51 84.2584 112.97C83.1584 111.65 82.3884 109.89 82.3884 107.14Z" fill="#F7B62D"/>
<circle opacity="0.2" cx="21" cy="27" r="21" fill="#F7B62D" fill-opacity="0.8"/>
<circle cx="21" cy="27" r="11" fill="#F7B62D"/>
</svg>
