<svg width="143" height="165" viewBox="0 0 143 165" fill="none" xmlns="http://www.w3.org/2000/svg">
<path d="M65.77 43.67C67.97 42.79 70.61 42.35 72.7 42.35C76.11 42.35 78.53 42.68 81.06 44.99C86.34 48.07 90.08 54.67 90.08 62.26C90.08 69.74 87.66 78.87 84.03 86.13C77.32 99.88 66.65 111.65 54.55 111.65C52.46 111.65 50.48 111.54 47.62 110.33C41.02 107.58 35.63 100.21 35.63 91.63C35.63 69.85 54.22 49.17 65.77 43.67ZM49.49 105.71C55.65 107.36 66.98 98.67 74.46 83.16C78.97 73.7 81.06 65.01 81.06 58.63C81.06 53.24 79.74 49.5 77.54 48.84C73.03 47.19 61.26 55.22 52.24 70.51C47.4 78.98 45.09 87.67 45.09 94.49C45.09 100.32 46.85 104.5 49.49 105.71ZM142.578 53.9C142.578 59.62 137.958 68.75 124.648 75.13C129.928 76.78 131.798 80.52 131.798 84.92C131.798 89.54 129.268 95.37 124.208 101.64C118.378 108.68 111.008 111.65 104.298 111.65C100.228 111.65 96.3784 110.44 93.6284 108.68C88.3484 105.27 86.5884 100.43 86.5884 96.47C86.5884 94.49 87.1384 92.62 87.6884 91.19C89.6684 86.46 93.9584 83.71 97.5884 83.71C99.4584 83.71 100.118 85.03 99.4584 86.24C97.0384 90.64 95.3884 95.15 95.3884 98.56C95.3884 103.07 98.5784 105.27 101.218 105.27C105.728 105.27 111.778 101.42 116.178 95.92C119.698 91.52 122.338 86.46 122.338 83.05C122.338 80.08 120.248 79.64 119.038 79.64C118.158 79.64 116.948 79.86 115.848 80.08C114.528 80.3 113.318 80.52 111.778 80.52C109.358 80.52 106.498 79.42 104.188 77C103.528 75.79 103.638 74.58 105.728 73.92C124.538 68.31 134.438 57.2 134.438 50.93C134.438 48.29 132.678 47.19 131.358 47.19C128.278 47.19 123.548 51.81 119.808 56.65C116.178 61.16 111.888 63.91 106.938 62.92C104.958 62.59 104.188 61.49 104.958 60.06C108.258 53.57 115.738 45.87 121.348 43.12C123.548 42.02 126.188 41.58 128.828 41.58C132.678 41.58 136.308 42.68 138.618 45.1C141.148 47.74 142.578 50.6 142.578 53.9Z" fill="#F7B62D"/>
<circle opacity="0.2" cx="21" cy="21" r="21" fill="#F7B62D" fill-opacity="0.8"/>
<circle cx="21" cy="21" r="11" fill="#F7B62D"/>
</svg>
