<svg width="24" height="24" viewBox="0 0 24 24" fill="none" xmlns="http://www.w3.org/2000/svg">
<path d="M18.75 14.25H5.25C4.0125 14.25 3 13.2375 3 12C3 10.7625 4.0125 9.75 5.25 9.75H18.75C19.9875 9.75 21 10.7625 21 12C21 13.2375 19.9875 14.25 18.75 14.25ZM14.25 7.5H5.25C4.0125 7.5 3 6.4875 3 5.25C3 4.0125 4.0125 3 5.25 3H14.25C15.4875 3 16.5 4.0125 16.5 5.25C16.5 6.4875 15.4875 7.5 14.25 7.5ZM9.75 21H5.25C4.0125 21 3 19.9875 3 18.75C3 17.5125 4.0125 16.5 5.25 16.5H9.75C10.9875 16.5 12 17.5125 12 18.75C12 19.9875 10.9875 21 9.75 21Z" fill="#ABCEFF"/>
</svg>
