<svg width="16" height="16" viewBox="0 0 16 16" fill="none" xmlns="http://www.w3.org/2000/svg">
<path d="M2.87499 5.59498C3.84903 4.30628 5.2645 3.4225 6.84999 3.11311C6.64463 2.88971 6.50876 2.61136 6.45898 2.31203C6.40919 2.0127 6.44764 1.70535 6.56963 1.42751C6.69162 1.14967 6.89187 0.913363 7.14593 0.747441C7.39999 0.581519 7.69686 0.493164 8.0003 0.493164C8.30374 0.493164 8.60062 0.581519 8.85468 0.747441C9.10874 0.913363 9.30899 1.14967 9.43098 1.42751C9.55297 1.70535 9.59141 2.0127 9.54163 2.31203C9.49184 2.61136 9.35597 2.88971 9.15061 3.11311C10.7367 3.41936 12.1528 4.30302 13.125 5.59311C12.2282 6.05353 11.4952 6.77947 11.0262 7.67186C10.6798 7.19296 10.2247 6.80306 9.69826 6.53418C9.17187 6.2653 8.5892 6.1251 7.99812 6.1251C7.40702 6.1251 6.82436 6.2653 6.29797 6.53418C5.77157 6.80306 5.31646 7.19296 4.96999 7.67186C4.50171 6.7807 3.77018 6.0555 2.87499 5.59498ZM13.9056 13L15.5106 6.16373C13.2669 6.40436 11.75 7.86061 11.75 9.87498H10.5C10.5 9.21194 10.2366 8.57606 9.76776 8.10722C9.29892 7.63838 8.66303 7.37498 7.99999 7.37498C7.33695 7.37498 6.70106 7.63838 6.23222 8.10722C5.76338 8.57606 5.49999 9.21194 5.49999 9.87498H4.24999C4.24999 7.86061 2.73312 6.40436 0.48999 6.16373L2.09437 13H13.9056ZM1.74999 15.5H14.25V14.25H1.74999V15.5Z" fill="#FFAA00"/>
</svg>
