<svg width="114" height="114" viewBox="0 0 114 114" fill="none" xmlns="http://www.w3.org/2000/svg">
<g filter="url(#filter0_d_2132_1320)">
<g clip-path="url(#clip0_2132_1320)">
<path d="M96.641 2H9.35899C5.29473 2 2 5.29473 2 9.35899V96.641C2 100.705 5.29473 104 9.35899 104H96.641C100.705 104 104 100.705 104 96.641V9.35899C104 5.29473 100.705 2 96.641 2Z" fill="white"/>
<path d="M94.4172 18.5254H40.1255C38.5698 18.5254 37.3085 19.7867 37.3085 21.3424V38.1341H42.941V24.1594H64.4543V38.1341H70.0869V24.1594H91.5987V38.1341H97.2312V21.3424C97.2312 19.7867 95.9699 18.5254 94.4142 18.5254H94.4172Z" fill="#046EB7"/>
<path d="M86.9684 40.6567V46.2893H55.5132V64.9458H49.8806V46.2893H29.399V64.9458H23.7665V43.4723C23.7665 41.9181 25.0278 40.6553 26.5835 40.6553H86.9699L86.9684 40.6567Z" fill="#F7B62D"/>
<path d="M70.7198 67.2329V72.8655H42.9485V89.9899H37.3159V72.8655H14.4V89.9899H8.76746V70.0485C8.76746 68.4942 10.0288 67.2314 11.5845 67.2314H70.7213L70.7198 67.2329Z" fill="#C89F63"/>
<path d="M71.4057 51.7529C66.2676 51.7529 62.0995 55.9211 62.0995 61.0591V89.9902H71.4057V59.212H79.7434C83.754 59.212 86.9758 55.9667 86.9758 51.956V51.7529H71.4057Z" fill="#F7B62D"/>
<path d="M86.2767 67.2329H71.4056V72.8655H86.2767V67.2329Z" fill="#F7B62D"/>
</g>
</g>
<defs>
<filter id="filter0_d_2132_1320" x="0" y="0" width="114" height="114" filterUnits="userSpaceOnUse" color-interpolation-filters="sRGB">
<feFlood flood-opacity="0" result="BackgroundImageFix"/>
<feColorMatrix in="SourceAlpha" type="matrix" values="0 0 0 0 0 0 0 0 0 0 0 0 0 0 0 0 0 0 127 0" result="hardAlpha"/>
<feOffset dx="4" dy="4"/>
<feGaussianBlur stdDeviation="3"/>
<feComposite in2="hardAlpha" operator="out"/>
<feColorMatrix type="matrix" values="0 0 0 0 0 0 0 0 0 0 0 0 0 0 0 0 0 0 0.25 0"/>
<feBlend mode="normal" in2="BackgroundImageFix" result="effect1_dropShadow_2132_1320"/>
<feBlend mode="normal" in="SourceGraphic" in2="effect1_dropShadow_2132_1320" result="shape"/>
</filter>
<clipPath id="clip0_2132_1320">
<rect x="2" y="2" width="102" height="102" rx="10" fill="white"/>
</clipPath>
</defs>
</svg>
