<svg width="76" height="70" viewBox="0 0 76 70" fill="none" xmlns="http://www.w3.org/2000/svg">
<path d="M62.964 60.6699H60.4434V63.0025H62.964V60.6699Z" fill="#F2A800"/>
<path d="M65.4845 53.6719H62.9639V56.0045H65.4845V53.6719Z" fill="#F2A800"/>
<path d="M15.1163 30.3379H12.5957V32.6705H15.1163V30.3379Z" fill="#FAF3CE"/>
<path d="M73.0394 23.334H70.5188H67.9981H65.4775V25.6666V28.0065V30.3391V32.6717V35.0043V37.3369V39.6695V42.0021V44.3347V46.6673V48.9999H62.9642V51.3399V53.6725H65.4775V56.0051H62.9642V53.6725H60.4436V56.0051H57.923V58.3377H55.4097V60.6703V63.0029H52.8891H50.3685V65.3355H47.8552V67.6681H45.3346H42.814V70.0007H45.3346H47.8552H50.3685H52.8891V67.6681H55.4097H57.923V65.3355H60.4436V63.0029V60.6703H62.9642V63.0029H65.4775V60.6703V58.3377H67.9981V56.0051H70.5188V53.6725V51.3399H73.0394V48.9999V46.6673H75.5526V44.3347V42.0021V39.6695V37.3369V35.0043V32.6717V30.3391V28.0065V25.6666V23.334H73.0394Z" fill="#F2A800"/>
<path d="M47.8552 67.6094V67.6681H42.814V70.0007H52.8891V67.6681H57.923V67.6094H47.8552Z" fill="#231815"/>
<path d="M62.964 16.3359H60.4434V18.6685H62.964V16.3359Z" fill="white"/>
<path d="M60.4435 23.3332V16.3354H57.9229V14.0028H55.4023V11.6702H52.8816V9.33764H50.361V7.00504H47.8404V4.67244H42.8065V2.33984H22.6562V4.67244H17.6223V7.00504H15.1017V9.33764H12.5811V11.6702H10.0604V14.0028H7.5398V18.668H5.01917V23.3332H2.49854V46.6666H5.01917V51.3318H7.5398V55.997H10.0604V58.3296H12.5811V60.6622H15.1017V62.9948H17.6223V65.3274H22.6562V67.66H42.8065V65.3274H47.8404V62.9948H50.361V60.6622H52.8816V58.3296H55.4023V55.997H57.9229V53.6644H60.4435V48.9992H62.9642V23.3332H60.4435ZM12.5959 25.6658V21.0006H15.1165V18.668H17.6371V16.3354H20.1578V14.0028H22.6784V11.6702H42.8287V14.0028H45.3493V16.3354H47.8699V18.668H50.3906V21.0006H52.9112V25.6658H55.4318V44.334H52.9112V48.9992H50.3906V51.3318H47.8699V53.6644H45.3493V55.997H42.8287V58.3296H22.6784V55.997H20.1578V53.6644H17.6371V51.3318H15.1165V48.9992H12.5959V44.334H10.0752V25.6658H12.5959Z" fill="#FCD100"/>
<path d="M17.6295 23.3324H15.1089V25.665V28.0049V30.3375V32.6701V35.0027V37.3353V39.6679V42.0005H17.6295V44.3331V46.6657H20.1502V48.9983H22.6634V51.3382H25.184H27.7047V53.6708H30.2253H32.7385H35.2592H37.7798H40.293V51.3382H42.8137H45.3343V48.9983H47.8549V46.6657H50.3682V44.3331V42.0005H52.8888V39.6679V37.3353V35.0027V32.6701V30.3375V28.0049H50.3682V25.665V23.3324V20.9998H47.8549V18.6672H45.3343V16.3346H42.8137H40.293V14.002H37.7798H35.2592H32.7385H30.2253H27.7047H25.184V16.3346H22.6634H20.1502V18.6672H17.6295V20.9998V23.3324Z" fill="#FCD100"/>
<path d="M70.5189 16.3351V14.0025V11.6699H67.9982V14.0025H65.4776H62.9644V16.3351V18.6677V21.0003H65.4776V18.6677H67.9982H70.5189V21.0003V23.3329H73.0395V21.0003V18.6677V16.3351H70.5189Z" fill="#F2A800"/>
<path d="M65.4775 9.33773V6.9978H62.9642H60.4436V4.6652H57.923V2.3326H55.4097H52.8891V0H50.3685H47.8552H45.3346H42.814V2.3326H45.3346H47.8552V4.6652H50.3685V6.9978H52.8891V9.33773H55.4097V11.6703H57.923H60.4436H62.9642H65.4775H67.9981V9.33773H65.4775Z" fill="#F2A800"/>
<path d="M70.5184 16.3351V14.0025V11.6699H67.9977V14.0025H65.4771H62.9639V16.3351V18.6677V21.0003H65.4771V18.6677H67.9977H70.5184V21.0003V23.3329H73.039V21.0003V18.6677V16.3351H70.5184Z" fill="#F2A800"/>
<path d="M70.5187 16.3351V14.0025V11.6699H67.998V14.0025V16.3351H70.5187V18.6677V21.0003V23.3329H73.0393V21.0003V18.6677V16.3351H70.5187Z" fill="#231815"/>
<path d="M60.4435 4.66602H57.9229V6.99862H60.4435V4.66602Z" fill="#231815"/>
<path d="M60.4438 9.33798H62.9645H65.4777V6.99805H62.9645H60.4438V9.33798Z" fill="#231815"/>
<path d="M55.4098 4.66463H57.923V2.33203H55.4098H52.8892V4.66463H55.4098Z" fill="#231815"/>
<path d="M67.9982 9.33789H65.4775V11.6705H67.9982V9.33789Z" fill="#231815"/>
<path d="M45.3346 2.3326H47.8552H50.3685H52.8891V0H50.3685H47.8552H45.3346H42.814V2.3326H45.3346Z" fill="#231815"/>
<path d="M62.964 53.6719H60.4434V56.0045H62.964V53.6719Z" fill="#231815"/>
<path d="M73.0392 23.334H70.5186H73.0392V25.6666V28.0065V30.3391V32.6717V35.0043V37.3369V39.6695V42.0021V44.3347V46.6673H75.5524V44.3347V42.0021V39.6695V37.3369V35.0043V32.6717V30.3391V28.0065V25.6666V23.334H73.0392Z" fill="#231815"/>
<path d="M62.9639 58.3379V60.6705V63.0031H65.4771V60.6705V58.3379H62.9639Z" fill="#231815"/>
<path d="M67.9977 56.0059H65.4771V58.3385H67.9977V56.0059Z" fill="#231815"/>
<path d="M70.5187 46.668V49.0006V51.3405H67.998V53.6731V56.0057H70.5187V53.6731V51.3405H73.0393V49.0006V46.668H70.5187Z" fill="#231815"/>
<path d="M52.8888 67.668H50.3682V70.0006H52.8888V67.668Z" fill="#231815"/>
<path d="M60.4435 63.0025V60.6699H57.9229V63.0025V65.3351H60.4435V63.0025Z" fill="#231815"/>
<path d="M57.9303 65.3359H55.4097V67.6685H57.9303V65.3359Z" fill="#231815"/>
<path d="M42.8139 65.334V67.6666H40.2932H37.78H35.2593H32.7387H30.2255H27.7048H25.1842H22.6636V69.9992H25.1842H27.7048H30.2255H32.7387H35.2593H37.78H40.2932H42.8139V67.6666H45.3345H47.8551V65.334H45.3345H42.8139Z" fill="#231815"/>
<path d="M50.3756 63.002H47.855V65.3346H50.3756V63.002Z" fill="#231815"/>
<path d="M52.8888 60.6705H50.3682V63.0031H52.8888H55.4094V60.6705V58.3379H52.8888V60.6705Z" fill="#231815"/>
<path d="M57.9303 56.0039H55.4097V58.3365H57.9303V56.0039Z" fill="#231815"/>
<path d="M60.4435 53.6719H57.9229V56.0045H60.4435V53.6719Z" fill="#231815"/>
<path d="M60.4434 51.3399V53.6725H62.964V51.3399V49H60.4434V51.3399Z" fill="#231815"/>
<path d="M62.9639 25.666V28.0059V30.3385V32.6711V35.0037V37.3363V39.6689V42.0015V44.3341V46.6667V48.9993H65.4771V46.6667V44.3341V42.0015V39.6689V37.3363V35.0037V32.6711V30.3385V28.0059V25.666H62.9639Z" fill="#231815"/>
<path d="M60.4434 21.0006V23.3332H62.964V21.0006V18.668H60.4434V21.0006Z" fill="#231815"/>
<path d="M60.4435 14.0039H57.9229V16.3365H60.4435V14.0039Z" fill="#231815"/>
<path d="M47.8551 51.3398H45.3345V53.6724H47.8551V51.3398Z" fill="#231815"/>
<path d="M50.3682 25.6652V28.0051H52.8889V30.3377V32.6703V35.0029V37.3355V39.6681V42.0007H50.3682V44.3333V46.6659H47.855V48.9985V51.3385H50.3682V48.9985H52.8889V46.6659V44.3333H55.4095V42.0007V39.6681V37.3355V35.0029V32.6703V30.3377V28.0051V25.6652H52.8889V23.3326V21H50.3682V23.3326V25.6652Z" fill="#231815"/>
<path d="M50.3756 18.668H47.855V21.0006H50.3756V18.668Z" fill="#231815"/>
<path d="M47.8551 16.3359H45.3345V18.6685H47.8551V16.3359Z" fill="#231815"/>
<path d="M57.9303 11.6699H55.4097V14.0025H57.9303V11.6699Z" fill="#231815"/>
<path d="M55.4098 9.33789H52.8892V11.6705H55.4098V9.33789Z" fill="#231815"/>
<path d="M52.8888 6.99805H50.3682V9.33065H52.8888V6.99805Z" fill="#231815"/>
<path d="M50.3756 4.66602H47.855V6.99862H50.3756V4.66602Z" fill="#231815"/>
<path d="M42.814 4.66463H45.3346H47.8552V2.33203H45.3346H42.814V4.66463Z" fill="#231815"/>
<path d="M20.1505 65.334H17.6299V67.6666H20.1505H22.6638V65.334H20.1505Z" fill="#231815"/>
<path d="M17.6295 63.002H15.1089V65.3346H17.6295V63.002Z" fill="#231815"/>
<path d="M12.5958 60.6705V58.3379H10.0752V60.6705V63.0031H12.5958H15.1091V60.6705H12.5958Z" fill="#231815"/>
<path d="M10.0753 56.0039H7.55469V58.3365H10.0753V56.0039Z" fill="#231815"/>
<path d="M25.1843 58.3371H27.7049H30.2255H32.7388H35.2594H37.78H40.2933H42.8139V56.0045H45.3345V53.6719H42.8139H40.2933V56.0045H37.78H35.2594H32.7388H30.2255H27.7049H25.1843V53.6719H22.6636H20.1504V56.0045H22.6636V58.3371H25.1843Z" fill="#231815"/>
<path d="M20.1505 51.3398H17.6299V53.6724H20.1505V51.3398Z" fill="#231815"/>
<path d="M7.55475 51.3398H5.0415V53.6724V56.005H7.55475V53.6724V51.3398Z" fill="#231815"/>
<path d="M5.04114 46.666H2.52051V48.9986V51.3385H5.04114V48.9986V46.666Z" fill="#231815"/>
<path d="M2.52063 42.0015V39.6689V37.3363V35.0037V32.6711V30.3385V28.0059V25.666H0V28.0059V30.3385V32.6711V35.0037V37.3363V39.6689V42.0015V44.3341H2.52063V42.0015Z" fill="#231815"/>
<path d="M17.6297 46.6665H15.1091V44.3339V42.0013H12.5958V39.6687V37.3361V35.0035V32.6709V30.3383V28.0057H15.1091V25.6658V23.3332H17.6297V21.0006V18.668H15.1091V21.0006H12.5958V23.3332V25.6658H10.0752V28.0057V30.3383V32.6709V35.0035V37.3361V39.6687V42.0013V44.3339H12.5958V46.6665V48.9991H15.1091V51.339H17.6297V48.9991V46.6665Z" fill="#231815"/>
<path d="M5.04114 21.0006V18.668H2.52051V21.0006V23.3332H5.04114V21.0006Z" fill="#231815"/>
<path d="M20.1505 16.3359H17.6299V18.6685H20.1505V16.3359Z" fill="#231815"/>
<path d="M7.55475 16.3365V14.0039H5.0415V16.3365V18.6691H7.55475V16.3365Z" fill="#231815"/>
<path d="M25.1843 16.3351V14.0025H27.7049H30.2255H32.7388H35.2594H37.78H40.2933V16.3351H42.8139H45.3345V14.0025H42.8139V11.6699H40.2933H37.78H35.2594H32.7388H30.2255H27.7049H25.1843H22.6636V14.0025H20.1504V16.3351H22.6636H25.1843Z" fill="#231815"/>
<path d="M10.0753 11.6699H7.55469V14.0025H10.0753V11.6699Z" fill="#231815"/>
<path d="M12.5958 9.33789H10.0752V11.6705H12.5958V9.33789Z" fill="#231815"/>
<path d="M15.1163 6.99805H12.5957V9.33065H15.1163V6.99805Z" fill="#231815"/>
<path d="M17.6295 4.66602H15.1089V6.99862H17.6295V4.66602Z" fill="#231815"/>
<path d="M22.6638 4.66463V2.33203H20.1505H17.6299V4.66463H20.1505H22.6638Z" fill="#231815"/>
<path d="M27.7048 2.3326H30.2255H32.7387H35.2593H37.78H40.2932H42.8139V0H40.2932H37.78H35.2593H32.7387H30.2255H27.7048H25.1842H22.6636V2.3326H25.1842H27.7048Z" fill="#231815"/>
<path d="M67.9977 18.668H65.4771V21.0006H62.9639V23.3332V25.6658H65.4771V23.3332H67.9977H70.5184V21.0006V18.668H67.9977Z" fill="white"/>
<path d="M65.4774 11.6699H62.9641H60.4435H57.9229V14.0025H60.4435V16.3351H62.9641V14.0025H65.4774H67.998V11.6699H65.4774Z" fill="white"/>
<path d="M35.259 53.6711H32.7384H30.2252H27.7045V51.3385H25.1839H22.6633V48.9986H20.15V46.666H17.6294V48.9986V51.3385H20.15V53.6711H22.6633H25.1839V56.0037H27.7045H30.2252H32.7384H35.259H37.7797H40.2929V53.6711H37.7797H35.259Z" fill="white"/>
<path d="M40.293 51.3379V53.6705H42.8136H45.3342V51.3379H42.8136H40.293Z" fill="white"/>
<path d="M47.8551 48.998H45.3345V51.3306H47.8551V48.998Z" fill="white"/>
<path d="M17.6295 42.002H15.1089V44.3346V46.6672H17.6295V44.3346V42.002Z" fill="white"/>
<path d="M15.1089 37.3351V35.0025V32.6699H12.5957V35.0025V37.3351V39.6677V42.0003H15.1089V39.6677V37.3351Z" fill="white"/>
<path d="M15.1163 28.0059H12.5957V30.3385H15.1163V28.0059Z" fill="white"/>
</svg>
