<svg width="518" height="137" viewBox="0 0 518 137" fill="none" xmlns="http://www.w3.org/2000/svg">
<path d="M129.194 136.712C127.608 136.712 125.95 136.568 123.715 136.352C111.894 134.912 100.288 131.312 89.4752 127.569C86.6639 126.633 83.8526 125.553 81.1134 124.473C73.3283 121.522 65.2548 118.498 56.8209 117.418C54.2979 117.13 51.6308 116.914 48.9637 116.914C36.7814 116.914 24.7432 120.37 16.7419 122.961L16.2373 123.105C13.6422 123.969 10.4705 124.977 7.51503 124.977C5.35249 124.977 3.55037 124.401 2.10868 123.249C0.883242 122.241 0.162396 120.586 0.306565 119.002C0.37865 118.21 0.666988 117.418 1.17158 116.482C2.25285 114.394 3.98288 112.451 5.64083 110.579C6.28959 109.859 6.93835 109.139 7.51503 108.419C9.82173 105.611 12.2005 102.804 14.5072 100.068C19.1927 94.5967 24.0224 89.1973 28.8521 83.8699C29.2125 83.438 30.0775 82.5741 29.645 81.5662C29.5008 81.1342 29.1404 80.7743 28.78 80.4143C27.1941 78.7585 25.4641 77.1747 23.8061 75.5909C22.7249 74.583 21.5715 73.5751 20.4903 72.5672C16.886 69.3276 13.2097 66.016 9.9659 62.3444C5.64083 57.377 1.24367 48.1621 4.19913 44.9944C10.903 44.8505 20.274 44.5625 30.1496 44.5625C48.0987 44.5625 60.6414 45.5704 68.4986 47.5142C92.8632 53.7054 120.904 68.6077 147.431 89.3413C148.08 89.8452 148.513 90.2052 148.657 90.2772L150.459 91.429C154.423 94.0207 158.172 96.4684 159.541 101.292C160.623 105.323 160.046 110.147 157.884 114.898C155 121.162 149.738 126.633 145.773 130.017C141.737 133.544 137.556 135.704 133.303 136.424C132.077 136.64 130.78 136.712 129.338 136.712H129.194Z" fill="#88C53A"/>
<path d="M30.0775 44.7068C47.9545 44.7068 60.4972 45.7147 68.3544 47.6584C92.6469 53.8497 120.688 68.68 147.143 89.4856C147.792 89.9895 148.224 90.3495 148.368 90.4215C148.945 90.8534 149.522 91.2134 150.17 91.5733C154.063 94.093 157.811 96.5407 159.109 101.22C160.19 105.18 159.614 109.931 157.451 114.683C154.568 120.946 149.305 126.345 145.413 129.729C141.448 133.256 137.267 135.344 133.086 136.064C131.861 136.28 130.635 136.352 129.194 136.352C127.68 136.352 125.95 136.208 123.787 135.992C111.966 134.552 100.36 130.953 89.6194 127.209C86.8081 126.273 83.9968 125.193 81.2575 124.114C73.4724 121.162 65.3989 118.138 56.8929 117.058C54.37 116.698 51.7029 116.554 49.0357 116.554C36.7813 116.554 24.7432 120.01 16.6697 122.602L16.1651 122.746C13.5701 123.61 10.3984 124.617 7.51499 124.617C5.35245 124.617 3.69451 124.114 2.3249 122.962C1.17155 122.026 0.450699 120.442 0.666953 118.93C0.739038 118.21 1.02738 117.418 1.45988 116.482C2.54115 114.467 4.27118 112.523 5.92913 110.579C6.57789 109.859 7.22665 109.139 7.80333 108.419C10.11 105.612 12.4888 102.804 14.7955 100.068C19.481 94.597 24.3107 89.1976 29.1404 83.8702C29.5729 83.4383 30.4379 82.4304 30.0054 81.2065C29.7891 80.6306 29.4287 80.2706 29.0683 79.9107C27.6987 78.4709 26.0407 76.887 24.0224 75.0872C22.9411 74.0794 21.7877 73.0715 20.6344 72.0636C17.0302 68.824 13.3538 65.5124 10.11 61.8408C6.0733 57.1613 1.74822 48.3064 4.1991 45.0668C11.0471 44.8508 20.3461 44.5628 30.0775 44.5628M30.0775 44.1309C20.3461 44.1309 10.9751 44.4188 3.91076 44.6348C0.739038 48.0904 5.56871 57.5933 9.67753 62.3447C13.9305 67.1682 18.8323 71.3437 23.5899 75.6632C25.3199 77.247 26.9778 78.8308 28.5637 80.4866C28.852 80.8466 29.2125 81.1345 29.3566 81.5665C29.645 82.3584 29.1404 83.0783 28.6358 83.5822C23.734 88.9096 18.9764 94.309 14.2909 99.7804C11.9122 102.516 9.60544 105.324 7.29874 108.131C5.20828 110.723 2.39698 113.387 0.883207 116.266C0.450699 117.058 0.0902762 117.994 0.0181916 118.93C-0.125978 120.658 0.594868 122.386 1.89239 123.466C3.55034 124.761 5.49662 125.265 7.51499 125.265C10.6867 125.265 14.1468 124.114 16.886 123.178C27.122 119.866 38.0789 117.202 49.0357 117.202C51.6308 117.202 54.2258 117.346 56.8209 117.706C68.2102 119.146 78.6625 124.114 89.4752 127.857C100.648 131.673 111.966 135.2 123.787 136.64C125.59 136.856 127.464 137 129.266 137C130.635 137 131.933 136.928 133.231 136.712C137.916 135.92 142.241 133.4 145.845 130.233C150.603 126.057 155.361 120.73 158.028 114.971C159.974 110.723 160.983 105.684 159.758 101.148C158.172 95.4609 153.342 93.0131 148.801 89.9895C147.071 88.8376 109.947 57.7373 68.5707 47.1545C59.2717 44.7788 44.3502 44.1309 30.1496 44.1309H30.0775Z" fill="white"/>
<path d="M388.698 136.567C387.256 136.567 385.959 136.495 384.733 136.279C380.48 135.559 376.299 133.4 372.263 129.872C368.37 126.416 363.036 121.017 360.153 114.754C357.99 110.002 357.341 105.107 358.495 101.147C359.792 96.3239 363.613 93.8762 367.577 91.2845L369.379 90.1326C369.379 90.1326 369.956 89.7007 370.605 89.1967C397.132 68.3912 425.173 53.5609 449.537 47.3696C457.395 45.3539 469.937 44.418 487.886 44.418C497.69 44.418 507.133 44.7059 513.981 44.9219C516.72 48.0175 512.323 57.2325 507.998 62.1279C504.754 65.7995 501.078 69.1111 497.474 72.3507C496.32 73.3586 495.239 74.3665 494.086 75.3744C492.356 76.9582 490.698 78.542 489.112 80.1978C488.824 80.5578 488.463 80.9177 488.247 81.3497C487.886 82.3575 488.679 83.2934 489.04 83.6534C493.942 88.9088 498.771 94.3801 503.385 99.8515C505.763 102.587 508.07 105.395 510.377 108.203C510.954 108.922 511.602 109.642 512.251 110.362C513.909 112.234 515.639 114.178 516.72 116.266C517.225 117.201 517.513 117.993 517.585 118.785C517.729 120.369 517.009 122.097 515.783 123.033C514.341 124.185 512.611 124.761 510.377 124.761C507.421 124.761 504.178 123.753 501.655 122.889L501.15 122.745C493.149 120.153 481.111 116.698 468.856 116.698C466.189 116.698 463.522 116.842 460.999 117.201C452.565 118.281 444.492 121.305 436.706 124.257C433.895 125.337 431.156 126.344 428.345 127.352C417.604 131.024 405.998 134.695 394.104 136.135C392.591 136.351 390.644 136.495 388.626 136.495L388.698 136.567Z" fill="#88C53A"/>
<path d="M487.815 43.9863V44.5623C497.474 44.5623 506.773 44.8502 513.693 45.0662C516.144 48.2338 511.819 57.1608 507.782 61.8402C504.61 65.5118 500.862 68.8234 497.258 72.063C496.104 73.0709 495.023 74.0788 493.87 75.0867C491.851 76.9585 490.265 78.4703 488.824 79.9101C488.535 80.2701 488.103 80.63 487.887 81.206C487.454 82.4298 488.319 83.4377 488.752 83.8697C493.581 89.1251 498.411 94.5964 503.097 100.068C505.475 102.803 507.782 105.611 510.089 108.419C510.665 109.139 511.314 109.859 511.963 110.579C513.621 112.45 515.351 114.394 516.432 116.482C516.865 117.346 517.153 118.138 517.225 118.93C517.369 120.441 516.721 122.025 515.567 122.961C514.198 124.041 512.468 124.617 510.377 124.617C507.494 124.617 504.25 123.609 501.727 122.745L501.222 122.601C493.221 120.009 481.111 116.554 468.856 116.554C466.189 116.554 463.522 116.698 460.999 117.058C452.493 118.138 444.42 121.161 436.635 124.113C433.895 125.121 431.084 126.201 428.273 127.209C417.532 130.88 405.926 134.552 394.105 135.992C391.87 136.28 390.212 136.352 388.698 136.352C387.257 136.352 386.031 136.28 384.806 136.064C380.625 135.344 376.444 133.184 372.479 129.728C368.587 126.345 363.324 120.945 360.441 114.682C358.279 109.931 357.702 105.179 358.783 101.22C360.081 96.5402 363.757 94.0925 367.722 91.5728C368.298 91.2128 368.875 90.7809 369.524 90.4209C369.668 90.3489 370.1 89.989 370.749 89.485C397.276 68.7514 425.245 53.9212 449.538 47.6579C457.395 45.6421 469.938 44.7062 487.815 44.7062V44.1303M487.815 43.9863C473.614 43.9863 458.692 44.6343 449.393 47.01C408.017 57.5927 370.893 88.6931 369.163 89.845C364.622 92.8686 359.792 95.3883 358.206 101.004C356.981 105.611 357.99 110.579 359.936 114.826C362.604 120.585 367.361 125.913 372.119 130.088C375.723 133.256 379.976 135.776 384.734 136.568C386.031 136.783 387.401 136.855 388.698 136.855C390.5 136.855 392.375 136.711 394.177 136.496C405.926 135.056 417.316 131.528 428.489 127.713C439.23 123.969 449.754 119.074 461.143 117.562C463.738 117.202 466.333 117.058 468.928 117.058C479.885 117.058 490.842 119.721 501.078 123.033C503.817 123.897 507.205 125.121 510.449 125.121C512.468 125.121 514.414 124.617 516.072 123.321C517.441 122.241 518.162 120.513 517.946 118.786C517.874 117.85 517.513 116.986 517.081 116.122C515.567 113.17 512.756 110.507 510.665 107.987C508.359 105.179 505.98 102.372 503.673 99.6358C498.988 94.1645 494.23 88.7651 489.328 83.4377C488.824 82.8618 488.247 82.2139 488.608 81.422C488.752 80.99 489.112 80.63 489.4 80.3421C490.986 78.6863 492.716 77.1025 494.374 75.5186C499.06 71.1991 504.034 67.0236 508.287 62.2002C512.395 57.4488 517.225 47.9459 514.053 44.4903C506.989 44.2743 497.618 43.9863 487.887 43.9863H487.815Z" fill="white"/>
<path d="M434.184 114.971C433.031 114.971 431.661 114.611 430.147 114.035C418.253 109.067 335.86 89.7018 255.342 89.7018H254.837C175.328 89.7738 97.6208 109.931 87.8173 114.035C86.2315 114.683 84.8619 114.971 83.7806 114.971C82.4831 114.971 81.4739 114.539 80.753 113.747C79.023 111.803 79.3114 108.276 79.3114 108.204C81.0414 80.8468 70.0124 58.1694 64.1015 46.0029C62.011 41.7554 60.3531 38.3718 60.4973 37.0759V36.284C60.7856 31.9645 60.9298 30.5247 85.6548 22.9656C97.6208 19.294 175.544 0.576172 254.837 0.576172C338.311 0.576172 423.155 20.2299 432.31 23.0375C457.035 30.5967 457.107 32.0365 457.395 36.356V37.1479C457.539 38.4437 455.881 41.8274 453.791 46.0749C447.88 58.2414 436.851 80.9188 438.581 108.276C438.581 108.276 438.941 111.947 437.139 113.819C436.418 114.611 435.409 115.043 434.112 115.043L434.184 114.971Z" fill="#88C53A"/>
<path d="M255.198 1.07987C338.239 1.07987 423.011 20.7336 432.165 23.4693C456.53 30.8844 456.602 32.3962 456.89 36.2838V37.0757C457.035 38.2275 455.305 41.6831 453.358 45.7147C447.447 57.9532 436.346 80.7026 438.076 108.203C438.076 108.203 438.365 111.587 436.779 113.315C436.13 114.035 435.265 114.323 434.184 114.323C433.103 114.323 431.805 114.035 430.291 113.387C418.397 108.419 335.86 89.0536 255.27 89.0536H254.765C175.184 89.1256 97.3324 109.283 87.5289 113.387C86.0151 114.035 84.7176 114.323 83.6363 114.323C82.483 114.323 81.69 113.963 81.0413 113.315C79.4554 111.587 79.7438 108.203 79.7438 108.131C81.4738 80.6306 70.4448 57.8812 64.4618 45.6427C62.5155 41.6111 60.7855 38.1555 60.8576 37.0037V36.2118C61.1459 32.2522 61.218 30.8124 85.5826 23.3973C97.7649 19.7977 175.616 1.15187 254.837 1.07987H255.198ZM255.198 0H254.837C174.751 0 95.7465 19.2937 85.4384 22.4614C59.0555 30.5244 60.353 31.8203 59.9205 37.0037C59.5601 42.1871 81.1134 70.6238 78.7346 108.131C78.7346 108.131 78.0137 115.475 83.7084 115.475C84.8618 115.475 86.2314 115.187 87.9614 114.467C98.3416 110.147 175.977 90.2775 254.765 90.2055C254.909 90.2055 255.053 90.2055 255.27 90.2055C336.653 90.2055 419.19 110.003 429.859 114.467C431.589 115.187 432.958 115.475 434.112 115.475C439.806 115.475 439.086 108.131 439.086 108.131C436.707 70.6238 458.332 42.1871 457.9 37.0037C457.539 31.8203 458.765 30.5244 432.382 22.4614C421.857 19.2218 337.951 0 255.198 0Z" fill="white"/>
<g style="mix-blend-mode:soft-light" opacity="0.5">
<path d="M458.128 37.0037C457.767 31.8203 458.993 30.5244 432.61 22.4614C421.869 19.2218 337.819 0 254.921 0C174.835 0 95.8305 19.2937 85.5224 22.4614C59.1395 30.5244 60.437 31.8203 60.0045 37.0037C59.644 42.1871 81.1974 70.6238 78.8186 108.131C78.8186 108.131 77.7373 118.714 88.0454 114.467C98.4256 110.147 176.061 90.2775 254.849 90.2055C336.449 90.1335 419.202 110.003 429.943 114.467C440.251 118.714 439.169 108.131 439.169 108.131C436.791 70.6238 458.416 42.1871 457.984 37.0037H458.128Z" fill="url(#paint0_radial_4448_38334)"/>
</g>
<path d="M164.247 55.584V42.552H163.239V41.688H161.727V42.552H160.755V55.584H161.727V56.412H163.239V55.584H164.247ZM170.511 48.168V50.256H173.859V48.168H170.511ZM170.511 56.34V58.536H169.323V59.76H168.171V60.948H167.019V62.136H158.019V60.948H156.831V59.76H155.679V58.536H154.491V39.564H155.679V38.376H156.831V37.188H158.019V36H167.019V37.188H168.171V38.376H169.323V39.564H170.511V42.084H173.859V37.188H175.047V36H179.151V37.188H180.339V61.812H179.151V63H175.047V61.812H173.859V56.34H170.511ZM200.492 41.652H190.7V42.48H189.836V43.812H190.7V44.64H200.492V43.812H201.32V42.48H200.492V41.652ZM187.136 37.188V36H203.948V37.188H205.172V38.376H206.36V39.564H207.548V46.692H206.36V47.88H205.172V49.068H203.948V50.292H187.136V49.068H185.948V47.88H184.76V46.692H183.572V39.564H184.76V38.376H185.948V37.188H187.136ZM192.356 57.456H183.428V56.304H182.24V52.956H183.428V51.768H207.692V52.956H208.88V56.304H207.692V57.456H198.8V61.812H197.612V63H193.544V61.812H192.356V57.456ZM221.581 46.944V42.552H220.573V41.688H218.665V42.552H217.657V46.944H218.665V47.772H220.573V46.944H221.581ZM231.805 36H235.693V37.188H236.845V61.812H235.693V63H231.805V61.812H230.617V37.188H231.805V36ZM215.209 53.496V52.308H214.021V51.12H212.833V49.896H211.609V39.564H212.833V38.376H214.021V37.188H215.209V36H224.065V37.188H225.253V38.376H226.441V39.564H227.629V49.896H226.441V51.12H225.253V52.308H224.065V53.496H215.209ZM227.737 55.872V57.06H228.925V60.372H227.737V61.56H211.501V60.372H210.313V57.06H211.501V55.872H227.737ZM264.26 41.724H253.604V46.188H264.26V41.724ZM262.172 56.592H271.064V57.78H272.252V61.092H271.064V62.28H246.8V61.092H245.612V57.78H246.8V56.592H255.692V51.912H248.348V50.724H247.16V37.188H248.348V36H269.516V37.188H270.704V50.724H269.516V51.912H262.172V56.592ZM284.268 46.836V46.116H283.44V45.54H280.632V46.116H279.84V46.836H280.632V47.376H283.44V46.836H284.268ZM293.016 47.304H291.684V46.224H290.568V43.128H291.684V42.084H293.016V37.188H294.204V36H298.308V37.188H299.496V49.932H298.308V51.12H294.204V49.932H293.016V47.304ZM276.816 41.976H274.728V40.788H273.54V38.196H274.728V37.008H279.336V35.712H280.56V34.668H283.584V35.712H284.808V37.008H289.344V38.196H290.532V40.788H289.344V41.976H287.292V43.056H288.228V44.028H289.164V45.036H290.064V48.24H289.164V49.248H288.228V50.22H287.292V51.192H276.816V50.22H275.88V49.248H274.944V48.24H274.008V45.036H274.944V44.028H275.88V43.056H276.816V41.976ZM293.052 57.204H281.676V58.284H293.052V57.204ZM275.232 53.676H276.42V52.488H298.308V53.676H299.496V61.812H298.308V63H276.42V61.812H275.232V53.676ZM335.136 61.812H333.948V63H330.528V61.812H329.34V37.188H330.528V36H333.948V37.188H335.136V61.812ZM320.736 52.344V60.66H319.548V61.848H315.84V60.66H314.652V41.724H309.792V40.536H308.604V37.188H309.792V36H319.548V37.188H320.736V46.656H322.392V37.188H323.58V36H327V37.188H328.188V61.812H327V63H323.58V61.812H322.392V52.344H320.736ZM356.424 56.376H345.048V57.996H356.424V56.376ZM338.604 52.56H339.792V51.372H361.68V52.56H362.868V61.812H361.68V63H339.792V61.812H338.604V52.56ZM361.68 36V37.188H362.868V48.492H361.68V49.68H357.576V48.492H356.388V37.188H357.576V36H361.68ZM347.568 43.704V42.012H346.56V41.148H344.292V42.012H343.284V43.704H344.292V44.532H346.56V43.704H347.568ZM352.248 39.564H353.436V46.116H352.248V47.34H351.06V48.528H349.872V49.716H341.016V48.528H339.828V47.34H338.64V46.116H337.416V39.564H338.64V38.376H339.828V37.188H341.016V36H349.872V37.188H351.06V38.376H352.248V39.564Z" fill="white"/>
<defs>
<radialGradient id="paint0_radial_4448_38334" cx="0" cy="0" r="1" gradientUnits="userSpaceOnUse" gradientTransform="translate(259.607 7.19916) scale(216.686 216.407)">
<stop offset="0.226974" stop-color="white"/>
<stop offset="0.52" stop-color="white"/>
<stop offset="0.57" stop-color="#CECECE"/>
<stop offset="0.76" stop-color="#3B3B3B"/>
<stop offset="0.84"/>
<stop offset="0.87" stop-color="#434343"/>
<stop offset="0.9" stop-color="#858585"/>
<stop offset="0.94" stop-color="#B9B9B9"/>
<stop offset="0.96" stop-color="#DFDFDF"/>
<stop offset="0.99" stop-color="#F6F6F6"/>
<stop offset="1" stop-color="white"/>
</radialGradient>
</defs>
</svg>
