<svg width="276" height="91" viewBox="0 0 276 91" fill="none" xmlns="http://www.w3.org/2000/svg">
<path opacity="0.08" d="M234.896 9.80078H43.1485C20.6851 9.80078 2.47485 22.5601 2.47485 38.2995V61.9731C2.47485 77.7125 20.6851 90.4719 43.1485 90.4719H234.896C257.359 90.4719 275.57 77.7125 275.57 61.9731V38.2995C275.57 22.5601 257.359 9.80078 234.896 9.80078Z" fill="black"/>
<path opacity="0.17" d="M234.896 9.57422H42.9333C20.5292 9.57422 2.36719 22.2998 2.36719 37.9976V61.445C2.36719 77.1428 20.5292 89.8683 42.9333 89.8683H234.896C257.3 89.8683 275.462 77.1428 275.462 61.445V37.9976C275.462 22.2998 257.3 9.57422 234.896 9.57422Z" fill="black"/>
<path opacity="0.25" d="M234.896 9.42383H42.718C20.3734 9.42383 2.25952 22.1156 2.25952 37.7718V61.0684C2.25952 76.7246 20.3734 89.4164 42.718 89.4164H234.896C257.24 89.4164 275.354 76.7246 275.354 61.0684V37.7718C275.354 22.1156 257.24 9.42383 234.896 9.42383Z" fill="black"/>
<path opacity="0.33" d="M235.003 9.27344H42.6104C20.3252 9.27344 2.25952 21.9315 2.25952 37.546V60.6164C2.25952 76.231 20.3252 88.889 42.6104 88.889H235.003C257.289 88.889 275.354 76.231 275.354 60.6164V37.546C275.354 21.9315 257.289 9.27344 235.003 9.27344Z" fill="black"/>
<path opacity="0.42" d="M235.003 9.12305H42.3951C20.1694 9.12305 2.15186 21.7474 2.15186 37.3202V60.1645C2.15186 75.7374 20.1694 88.3617 42.3951 88.3617H235.003C257.229 88.3617 275.247 75.7374 275.247 60.1645V37.3202C275.247 21.7474 257.229 9.12305 235.003 9.12305Z" fill="black"/>
<path opacity="0.5" d="M42.1801 8.9707H235.003C257.17 8.9707 275.139 21.5614 275.139 37.0925V59.7106C275.139 75.2416 257.17 87.8323 235.003 87.8323H42.1801C20.014 87.757 2.04443 75.1662 2.04443 59.6352V37.0171C2.04443 21.5614 20.014 8.9707 42.1801 8.9707Z" fill="black"/>
<path opacity="0.58" d="M235.003 8.74609H41.9648C19.8579 8.74609 1.93677 21.3029 1.93677 36.7925V59.1844C1.93677 74.674 19.8579 87.2308 41.9648 87.2308H235.003C257.11 87.2308 275.031 74.674 275.031 59.1844V36.7925C275.031 21.3029 257.11 8.74609 235.003 8.74609Z" fill="black"/>
<path opacity="0.67" d="M235.003 8.59375H41.7496C19.7021 8.59375 1.8291 21.1168 1.8291 36.5648V58.7305C1.8291 74.1784 19.7021 86.7015 41.7496 86.7015H235.003C257.051 86.7015 274.924 74.1784 274.924 58.7305V36.5648C274.924 21.1168 257.051 8.59375 235.003 8.59375Z" fill="black"/>
<path opacity="0.75" d="M234.896 8.44336H41.6419C19.5944 8.44336 1.72144 20.9664 1.72144 36.4144V58.2031C1.72144 73.6511 19.5944 86.1741 41.6419 86.1741H234.896C256.943 86.1741 274.816 73.6511 274.816 58.2031V36.4144C274.816 20.9664 256.943 8.44336 234.896 8.44336Z" fill="black"/>
<path opacity="0.83" d="M41.4269 8.29297H235.003C256.954 8.29297 274.816 20.8083 274.816 36.1886V57.8265C274.816 73.2068 256.954 85.7221 235.003 85.7221H41.4269C19.476 85.6467 1.61401 73.1314 1.61401 57.7511V36.1132C1.61401 20.7329 19.476 8.29297 41.4269 8.29297Z" fill="black"/>
<path opacity="0.92" d="M235.003 8.14258H41.3193C19.3907 8.14258 1.61401 20.5981 1.61401 35.9628V57.2992C1.61401 72.6638 19.3907 85.1194 41.3193 85.1194H235.003C256.932 85.1194 274.709 72.6638 274.709 57.2992V35.9628C274.709 20.5981 256.932 8.14258 235.003 8.14258Z" fill="black"/>
<path d="M235.003 7.91602H41.104C19.2348 7.91602 1.50635 20.3378 1.50635 35.6608V56.771C1.50635 72.0941 19.2348 84.5159 41.104 84.5159H235.003C256.873 84.5159 274.601 72.0941 274.601 56.771V35.6608C274.601 20.3378 256.873 7.91602 235.003 7.91602Z" fill="black"/>
<path d="M235.003 7.91602H41.104C19.2348 7.91602 1.50635 20.3378 1.50635 35.6608V56.771C1.50635 72.0941 19.2348 84.5159 41.104 84.5159H235.003C256.873 84.5159 274.601 72.0941 274.601 56.771V35.6608C274.601 20.3378 256.873 7.91602 235.003 7.91602Z" fill="#00699E"/>
<path d="M235.003 1.05469H41.104C19.2348 1.05469 1.50635 13.4765 1.50635 28.7995V49.9097C1.50635 65.2327 19.2348 77.6545 41.104 77.6545H235.003C256.873 77.6545 274.601 65.2327 274.601 49.9097V28.7995C274.601 13.4765 256.873 1.05469 235.003 1.05469Z" fill="#1692DD" stroke="white" stroke-width="0.27" stroke-miterlimit="10"/>
<g opacity="0.5">
<path d="M238.965 7.15039H36.9954C23.8621 7.15039 13.2153 14.6102 13.2153 23.8124V36.6293C13.2153 45.8314 23.8621 53.2912 36.9954 53.2912H238.965C252.098 53.2912 262.745 45.8314 262.745 36.6293V23.8124C262.745 14.6102 252.098 7.15039 238.965 7.15039Z" fill="url(#paint0_linear_4448_38309)"/>
<path d="M238.965 53.5178H37.1032C23.7605 53.5178 13.0002 45.9031 13.0002 36.6297V23.8882C13.0002 14.5394 23.8681 7 37.1032 7H238.965C252.308 7 263.068 14.6147 263.068 23.8882V36.6297C263.068 45.9785 252.2 53.5178 238.965 53.5178ZM37.1032 7.37697C24.0833 7.37697 13.5383 14.7655 13.5383 23.8882V36.6297C13.5383 45.7523 24.0833 53.1408 37.1032 53.1408H238.965C251.985 53.1408 262.53 45.7523 262.53 36.6297V23.8882C262.53 14.7655 251.985 7.37697 238.965 7.37697H37.1032Z" fill="url(#paint1_linear_4448_38309)"/>
</g>
<mask id="path-17-outside-1_4448_38309" maskUnits="userSpaceOnUse" x="71" y="13" width="134" height="33" fill="black">
<rect fill="white" x="71" y="13" width="134" height="33"/>
<path d="M77.5994 33.76V32.04H75.6794V30.24H73.7994V28.4H72.1594V20.56H73.7994V18.68H75.6794V16.76H77.5994V15H91.7994V16.52H93.6394V21.16H91.7994V22.8H81.9994V23.92H80.3594V25.08H81.9994V26.24H88.7994V27.96H90.7194V29.76H92.5594V31.6H94.2394V39.4H92.5594V41.32H90.7194V43.24H88.7994V45H74.6794V43.48H72.8794V38.84H74.6794V37.2H84.3994V36.08H86.0394V34.88H84.3994V33.76H77.5994ZM117.104 15V16.52H118.544V21.32H117.104V22.84H111.064V43.48H109.624V45H104.344V43.48H102.824V22.84H96.8638V21.32H95.3438V16.52H96.8638V15H117.104ZM136.188 29.2V26.68H134.548V24.28H132.948V22.36H130.748V24.28H129.148V26.68H127.508V29.2H136.188ZM136.188 36.24H127.508V43.36H125.868V45H121.468V43.36H119.748V23.88H121.468V21.4H123.108V19.04H124.708V16.68H126.348V15H137.348V16.68H138.988V19.04H140.588V21.4H142.228V23.88H143.988V43.36H142.308V45H137.948V43.36H136.188V36.24ZM159.176 22.44H153.976V27.52H159.176V25.96H160.416V24H159.176V22.44ZM165.536 34.68H167.296V36.6H168.656V43.48H167.296V45H162.856V43.48H161.456V41.48H159.896V39.2H158.336V37H156.576V35.08H153.976V43.48H152.456V45H147.656V43.48H146.136V16.52H147.656V15L164.016 14.96V16.52H165.536V18.52H166.976V20.44H168.296V29.32H166.976V31.2H165.536V34.68ZM191.891 15V16.52H193.331V21.32H191.891V22.84H185.851V43.48H184.411V45H179.131V43.48H177.611V22.84H171.651V21.32H170.131V16.52H171.651V15H191.891ZM202.056 14.4V15.68H203.336V33.64H202.056V34.92H197.416V33.64H196.136V15.68H197.416V14.4H202.056ZM202.056 37.28V38.56H203.336V43.32H202.056V44.6H197.416V43.32H196.136V38.56H197.416V37.28H202.056Z"/>
</mask>
<path d="M77.5994 33.76V32.04H75.6794V30.24H73.7994V28.4H72.1594V20.56H73.7994V18.68H75.6794V16.76H77.5994V15H91.7994V16.52H93.6394V21.16H91.7994V22.8H81.9994V23.92H80.3594V25.08H81.9994V26.24H88.7994V27.96H90.7194V29.76H92.5594V31.6H94.2394V39.4H92.5594V41.32H90.7194V43.24H88.7994V45H74.6794V43.48H72.8794V38.84H74.6794V37.2H84.3994V36.08H86.0394V34.88H84.3994V33.76H77.5994ZM117.104 15V16.52H118.544V21.32H117.104V22.84H111.064V43.48H109.624V45H104.344V43.48H102.824V22.84H96.8638V21.32H95.3438V16.52H96.8638V15H117.104ZM136.188 29.2V26.68H134.548V24.28H132.948V22.36H130.748V24.28H129.148V26.68H127.508V29.2H136.188ZM136.188 36.24H127.508V43.36H125.868V45H121.468V43.36H119.748V23.88H121.468V21.4H123.108V19.04H124.708V16.68H126.348V15H137.348V16.68H138.988V19.04H140.588V21.4H142.228V23.88H143.988V43.36H142.308V45H137.948V43.36H136.188V36.24ZM159.176 22.44H153.976V27.52H159.176V25.96H160.416V24H159.176V22.44ZM165.536 34.68H167.296V36.6H168.656V43.48H167.296V45H162.856V43.48H161.456V41.48H159.896V39.2H158.336V37H156.576V35.08H153.976V43.48H152.456V45H147.656V43.48H146.136V16.52H147.656V15L164.016 14.96V16.52H165.536V18.52H166.976V20.44H168.296V29.32H166.976V31.2H165.536V34.68ZM191.891 15V16.52H193.331V21.32H191.891V22.84H185.851V43.48H184.411V45H179.131V43.48H177.611V22.84H171.651V21.32H170.131V16.52H171.651V15H191.891ZM202.056 14.4V15.68H203.336V33.64H202.056V34.92H197.416V33.64H196.136V15.68H197.416V14.4H202.056ZM202.056 37.28V38.56H203.336V43.32H202.056V44.6H197.416V43.32H196.136V38.56H197.416V37.28H202.056Z" fill="white"/>
<path d="M77.5994 33.76H76.5994V34.76H77.5994V33.76ZM77.5994 32.04H78.5994V31.04H77.5994V32.04ZM75.6794 32.04H74.6794V33.04H75.6794V32.04ZM75.6794 30.24H76.6794V29.24H75.6794V30.24ZM73.7994 30.24H72.7994V31.24H73.7994V30.24ZM73.7994 28.4H74.7994V27.4H73.7994V28.4ZM72.1594 28.4H71.1594V29.4H72.1594V28.4ZM72.1594 20.56V19.56H71.1594V20.56H72.1594ZM73.7994 20.56V21.56H74.7994V20.56H73.7994ZM73.7994 18.68V17.68H72.7994V18.68H73.7994ZM75.6794 18.68V19.68H76.6794V18.68H75.6794ZM75.6794 16.76V15.76H74.6794V16.76H75.6794ZM77.5994 16.76V17.76H78.5994V16.76H77.5994ZM77.5994 15V14H76.5994V15H77.5994ZM91.7994 15H92.7994V14H91.7994V15ZM91.7994 16.52H90.7994V17.52H91.7994V16.52ZM93.6394 16.52H94.6394V15.52H93.6394V16.52ZM93.6394 21.16V22.16H94.6394V21.16H93.6394ZM91.7994 21.16V20.16H90.7994V21.16H91.7994ZM91.7994 22.8V23.8H92.7994V22.8H91.7994ZM81.9994 22.8V21.8H80.9994V22.8H81.9994ZM81.9994 23.92V24.92H82.9994V23.92H81.9994ZM80.3594 23.92V22.92H79.3594V23.92H80.3594ZM80.3594 25.08H79.3594V26.08H80.3594V25.08ZM81.9994 25.08H82.9994V24.08H81.9994V25.08ZM81.9994 26.24H80.9994V27.24H81.9994V26.24ZM88.7994 26.24H89.7994V25.24H88.7994V26.24ZM88.7994 27.96H87.7994V28.96H88.7994V27.96ZM90.7194 27.96H91.7194V26.96H90.7194V27.96ZM90.7194 29.76H89.7194V30.76H90.7194V29.76ZM92.5594 29.76H93.5594V28.76H92.5594V29.76ZM92.5594 31.6H91.5594V32.6H92.5594V31.6ZM94.2394 31.6H95.2394V30.6H94.2394V31.6ZM94.2394 39.4V40.4H95.2394V39.4H94.2394ZM92.5594 39.4V38.4H91.5594V39.4H92.5594ZM92.5594 41.32V42.32H93.5594V41.32H92.5594ZM90.7194 41.32V40.32H89.7194V41.32H90.7194ZM90.7194 43.24V44.24H91.7194V43.24H90.7194ZM88.7994 43.24V42.24H87.7994V43.24H88.7994ZM88.7994 45V46H89.7994V45H88.7994ZM74.6794 45H73.6794V46H74.6794V45ZM74.6794 43.48H75.6794V42.48H74.6794V43.48ZM72.8794 43.48H71.8794V44.48H72.8794V43.48ZM72.8794 38.84V37.84H71.8794V38.84H72.8794ZM74.6794 38.84V39.84H75.6794V38.84H74.6794ZM74.6794 37.2V36.2H73.6794V37.2H74.6794ZM84.3994 37.2V38.2H85.3994V37.2H84.3994ZM84.3994 36.08V35.08H83.3994V36.08H84.3994ZM86.0394 36.08V37.08H87.0394V36.08H86.0394ZM86.0394 34.88H87.0394V33.88H86.0394V34.88ZM84.3994 34.88H83.3994V35.88H84.3994V34.88ZM84.3994 33.76H85.3994V32.76H84.3994V33.76ZM77.5994 33.76H78.5994V32.04H77.5994H76.5994V33.76H77.5994ZM77.5994 32.04V31.04H75.6794V32.04V33.04H77.5994V32.04ZM75.6794 32.04H76.6794V30.24H75.6794H74.6794V32.04H75.6794ZM75.6794 30.24V29.24H73.7994V30.24V31.24H75.6794V30.24ZM73.7994 30.24H74.7994V28.4H73.7994H72.7994V30.24H73.7994ZM73.7994 28.4V27.4H72.1594V28.4V29.4H73.7994V28.4ZM72.1594 28.4H73.1594V20.56H72.1594H71.1594V28.4H72.1594ZM72.1594 20.56V21.56H73.7994V20.56V19.56H72.1594V20.56ZM73.7994 20.56H74.7994V18.68H73.7994H72.7994V20.56H73.7994ZM73.7994 18.68V19.68H75.6794V18.68V17.68H73.7994V18.68ZM75.6794 18.68H76.6794V16.76H75.6794H74.6794V18.68H75.6794ZM75.6794 16.76V17.76H77.5994V16.76V15.76H75.6794V16.76ZM77.5994 16.76H78.5994V15H77.5994H76.5994V16.76H77.5994ZM77.5994 15V16H91.7994V15V14H77.5994V15ZM91.7994 15H90.7994V16.52H91.7994H92.7994V15H91.7994ZM91.7994 16.52V17.52H93.6394V16.52V15.52H91.7994V16.52ZM93.6394 16.52H92.6394V21.16H93.6394H94.6394V16.52H93.6394ZM93.6394 21.16V20.16H91.7994V21.16V22.16H93.6394V21.16ZM91.7994 21.16H90.7994V22.8H91.7994H92.7994V21.16H91.7994ZM91.7994 22.8V21.8H81.9994V22.8V23.8H91.7994V22.8ZM81.9994 22.8H80.9994V23.92H81.9994H82.9994V22.8H81.9994ZM81.9994 23.92V22.92H80.3594V23.92V24.92H81.9994V23.92ZM80.3594 23.92H79.3594V25.08H80.3594H81.3594V23.92H80.3594ZM80.3594 25.08V26.08H81.9994V25.08V24.08H80.3594V25.08ZM81.9994 25.08H80.9994V26.24H81.9994H82.9994V25.08H81.9994ZM81.9994 26.24V27.24H88.7994V26.24V25.24H81.9994V26.24ZM88.7994 26.24H87.7994V27.96H88.7994H89.7994V26.24H88.7994ZM88.7994 27.96V28.96H90.7194V27.96V26.96H88.7994V27.96ZM90.7194 27.96H89.7194V29.76H90.7194H91.7194V27.96H90.7194ZM90.7194 29.76V30.76H92.5594V29.76V28.76H90.7194V29.76ZM92.5594 29.76H91.5594V31.6H92.5594H93.5594V29.76H92.5594ZM92.5594 31.6V32.6H94.2394V31.6V30.6H92.5594V31.6ZM94.2394 31.6H93.2394V39.4H94.2394H95.2394V31.6H94.2394ZM94.2394 39.4V38.4H92.5594V39.4V40.4H94.2394V39.4ZM92.5594 39.4H91.5594V41.32H92.5594H93.5594V39.4H92.5594ZM92.5594 41.32V40.32H90.7194V41.32V42.32H92.5594V41.32ZM90.7194 41.32H89.7194V43.24H90.7194H91.7194V41.32H90.7194ZM90.7194 43.24V42.24H88.7994V43.24V44.24H90.7194V43.24ZM88.7994 43.24H87.7994V45H88.7994H89.7994V43.24H88.7994ZM88.7994 45V44H74.6794V45V46H88.7994V45ZM74.6794 45H75.6794V43.48H74.6794H73.6794V45H74.6794ZM74.6794 43.48V42.48H72.8794V43.48V44.48H74.6794V43.48ZM72.8794 43.48H73.8794V38.84H72.8794H71.8794V43.48H72.8794ZM72.8794 38.84V39.84H74.6794V38.84V37.84H72.8794V38.84ZM74.6794 38.84H75.6794V37.2H74.6794H73.6794V38.84H74.6794ZM74.6794 37.2V38.2H84.3994V37.2V36.2H74.6794V37.2ZM84.3994 37.2H85.3994V36.08H84.3994H83.3994V37.2H84.3994ZM84.3994 36.08V37.08H86.0394V36.08V35.08H84.3994V36.08ZM86.0394 36.08H87.0394V34.88H86.0394H85.0394V36.08H86.0394ZM86.0394 34.88V33.88H84.3994V34.88V35.88H86.0394V34.88ZM84.3994 34.88H85.3994V33.76H84.3994H83.3994V34.88H84.3994ZM84.3994 33.76V32.76H77.5994V33.76V34.76H84.3994V33.76ZM117.104 15H118.104V14H117.104V15ZM117.104 16.52H116.104V17.52H117.104V16.52ZM118.544 16.52H119.544V15.52H118.544V16.52ZM118.544 21.32V22.32H119.544V21.32H118.544ZM117.104 21.32V20.32H116.104V21.32H117.104ZM117.104 22.84V23.84H118.104V22.84H117.104ZM111.064 22.84V21.84H110.064V22.84H111.064ZM111.064 43.48V44.48H112.064V43.48H111.064ZM109.624 43.48V42.48H108.624V43.48H109.624ZM109.624 45V46H110.624V45H109.624ZM104.344 45H103.344V46H104.344V45ZM104.344 43.48H105.344V42.48H104.344V43.48ZM102.824 43.48H101.824V44.48H102.824V43.48ZM102.824 22.84H103.824V21.84H102.824V22.84ZM96.8638 22.84H95.8638V23.84H96.8638V22.84ZM96.8638 21.32H97.8638V20.32H96.8638V21.32ZM95.3438 21.32H94.3438V22.32H95.3438V21.32ZM95.3438 16.52V15.52H94.3438V16.52H95.3438ZM96.8638 16.52V17.52H97.8638V16.52H96.8638ZM96.8638 15V14H95.8638V15H96.8638ZM117.104 15H116.104V16.52H117.104H118.104V15H117.104ZM117.104 16.52V17.52H118.544V16.52V15.52H117.104V16.52ZM118.544 16.52H117.544V21.32H118.544H119.544V16.52H118.544ZM118.544 21.32V20.32H117.104V21.32V22.32H118.544V21.32ZM117.104 21.32H116.104V22.84H117.104H118.104V21.32H117.104ZM117.104 22.84V21.84H111.064V22.84V23.84H117.104V22.84ZM111.064 22.84H110.064V43.48H111.064H112.064V22.84H111.064ZM111.064 43.48V42.48H109.624V43.48V44.48H111.064V43.48ZM109.624 43.48H108.624V45H109.624H110.624V43.48H109.624ZM109.624 45V44H104.344V45V46H109.624V45ZM104.344 45H105.344V43.48H104.344H103.344V45H104.344ZM104.344 43.48V42.48H102.824V43.48V44.48H104.344V43.48ZM102.824 43.48H103.824V22.84H102.824H101.824V43.48H102.824ZM102.824 22.84V21.84H96.8638V22.84V23.84H102.824V22.84ZM96.8638 22.84H97.8638V21.32H96.8638H95.8638V22.84H96.8638ZM96.8638 21.32V20.32H95.3438V21.32V22.32H96.8638V21.32ZM95.3438 21.32H96.3438V16.52H95.3438H94.3438V21.32H95.3438ZM95.3438 16.52V17.52H96.8638V16.52V15.52H95.3438V16.52ZM96.8638 16.52H97.8638V15H96.8638H95.8638V16.52H96.8638ZM96.8638 15V16H117.104V15V14H96.8638V15ZM136.188 29.2V30.2H137.188V29.2H136.188ZM136.188 26.68H137.188V25.68H136.188V26.68ZM134.548 26.68H133.548V27.68H134.548V26.68ZM134.548 24.28H135.548V23.28H134.548V24.28ZM132.948 24.28H131.948V25.28H132.948V24.28ZM132.948 22.36H133.948V21.36H132.948V22.36ZM130.748 22.36V21.36H129.748V22.36H130.748ZM130.748 24.28V25.28H131.748V24.28H130.748ZM129.148 24.28V23.28H128.148V24.28H129.148ZM129.148 26.68V27.68H130.148V26.68H129.148ZM127.508 26.68V25.68H126.508V26.68H127.508ZM127.508 29.2H126.508V30.2H127.508V29.2ZM136.188 36.24H137.188V35.24H136.188V36.24ZM127.508 36.24V35.24H126.508V36.24H127.508ZM127.508 43.36V44.36H128.508V43.36H127.508ZM125.868 43.36V42.36H124.868V43.36H125.868ZM125.868 45V46H126.868V45H125.868ZM121.468 45H120.468V46H121.468V45ZM121.468 43.36H122.468V42.36H121.468V43.36ZM119.748 43.36H118.748V44.36H119.748V43.36ZM119.748 23.88V22.88H118.748V23.88H119.748ZM121.468 23.88V24.88H122.468V23.88H121.468ZM121.468 21.4V20.4H120.468V21.4H121.468ZM123.108 21.4V22.4H124.108V21.4H123.108ZM123.108 19.04V18.04H122.108V19.04H123.108ZM124.708 19.04V20.04H125.708V19.04H124.708ZM124.708 16.68V15.68H123.708V16.68H124.708ZM126.348 16.68V17.68H127.348V16.68H126.348ZM126.348 15V14H125.348V15H126.348ZM137.348 15H138.348V14H137.348V15ZM137.348 16.68H136.348V17.68H137.348V16.68ZM138.988 16.68H139.988V15.68H138.988V16.68ZM138.988 19.04H137.988V20.04H138.988V19.04ZM140.588 19.04H141.588V18.04H140.588V19.04ZM140.588 21.4H139.588V22.4H140.588V21.4ZM142.228 21.4H143.228V20.4H142.228V21.4ZM142.228 23.88H141.228V24.88H142.228V23.88ZM143.988 23.88H144.988V22.88H143.988V23.88ZM143.988 43.36V44.36H144.988V43.36H143.988ZM142.308 43.36V42.36H141.308V43.36H142.308ZM142.308 45V46H143.308V45H142.308ZM137.948 45H136.948V46H137.948V45ZM137.948 43.36H138.948V42.36H137.948V43.36ZM136.188 43.36H135.188V44.36H136.188V43.36ZM136.188 29.2H137.188V26.68H136.188H135.188V29.2H136.188ZM136.188 26.68V25.68H134.548V26.68V27.68H136.188V26.68ZM134.548 26.68H135.548V24.28H134.548H133.548V26.68H134.548ZM134.548 24.28V23.28H132.948V24.28V25.28H134.548V24.28ZM132.948 24.28H133.948V22.36H132.948H131.948V24.28H132.948ZM132.948 22.36V21.36H130.748V22.36V23.36H132.948V22.36ZM130.748 22.36H129.748V24.28H130.748H131.748V22.36H130.748ZM130.748 24.28V23.28H129.148V24.28V25.28H130.748V24.28ZM129.148 24.28H128.148V26.68H129.148H130.148V24.28H129.148ZM129.148 26.68V25.68H127.508V26.68V27.68H129.148V26.68ZM127.508 26.68H126.508V29.2H127.508H128.508V26.68H127.508ZM127.508 29.2V30.2H136.188V29.2V28.2H127.508V29.2ZM136.188 36.24V35.24H127.508V36.24V37.24H136.188V36.24ZM127.508 36.24H126.508V43.36H127.508H128.508V36.24H127.508ZM127.508 43.36V42.36H125.868V43.36V44.36H127.508V43.36ZM125.868 43.36H124.868V45H125.868H126.868V43.36H125.868ZM125.868 45V44H121.468V45V46H125.868V45ZM121.468 45H122.468V43.36H121.468H120.468V45H121.468ZM121.468 43.36V42.36H119.748V43.36V44.36H121.468V43.36ZM119.748 43.36H120.748V23.88H119.748H118.748V43.36H119.748ZM119.748 23.88V24.88H121.468V23.88V22.88H119.748V23.88ZM121.468 23.88H122.468V21.4H121.468H120.468V23.88H121.468ZM121.468 21.4V22.4H123.108V21.4V20.4H121.468V21.4ZM123.108 21.4H124.108V19.04H123.108H122.108V21.4H123.108ZM123.108 19.04V20.04H124.708V19.04V18.04H123.108V19.04ZM124.708 19.04H125.708V16.68H124.708H123.708V19.04H124.708ZM124.708 16.68V17.68H126.348V16.68V15.68H124.708V16.68ZM126.348 16.68H127.348V15H126.348H125.348V16.68H126.348ZM126.348 15V16H137.348V15V14H126.348V15ZM137.348 15H136.348V16.68H137.348H138.348V15H137.348ZM137.348 16.68V17.68H138.988V16.68V15.68H137.348V16.68ZM138.988 16.68H137.988V19.04H138.988H139.988V16.68H138.988ZM138.988 19.04V20.04H140.588V19.04V18.04H138.988V19.04ZM140.588 19.04H139.588V21.4H140.588H141.588V19.04H140.588ZM140.588 21.4V22.4H142.228V21.4V20.4H140.588V21.4ZM142.228 21.4H141.228V23.88H142.228H143.228V21.4H142.228ZM142.228 23.88V24.88H143.988V23.88V22.88H142.228V23.88ZM143.988 23.88H142.988V43.36H143.988H144.988V23.88H143.988ZM143.988 43.36V42.36H142.308V43.36V44.36H143.988V43.36ZM142.308 43.36H141.308V45H142.308H143.308V43.36H142.308ZM142.308 45V44H137.948V45V46H142.308V45ZM137.948 45H138.948V43.36H137.948H136.948V45H137.948ZM137.948 43.36V42.36H136.188V43.36V44.36H137.948V43.36ZM136.188 43.36H137.188V36.24H136.188H135.188V43.36H136.188ZM159.176 22.44H160.176V21.44H159.176V22.44ZM153.976 22.44V21.44H152.976V22.44H153.976ZM153.976 27.52H152.976V28.52H153.976V27.52ZM159.176 27.52V28.52H160.176V27.52H159.176ZM159.176 25.96V24.96H158.176V25.96H159.176ZM160.416 25.96V26.96H161.416V25.96H160.416ZM160.416 24H161.416V23H160.416V24ZM159.176 24H158.176V25H159.176V24ZM165.536 34.68H164.536V35.68H165.536V34.68ZM167.296 34.68H168.296V33.68H167.296V34.68ZM167.296 36.6H166.296V37.6H167.296V36.6ZM168.656 36.6H169.656V35.6H168.656V36.6ZM168.656 43.48V44.48H169.656V43.48H168.656ZM167.296 43.48V42.48H166.296V43.48H167.296ZM167.296 45V46H168.296V45H167.296ZM162.856 45H161.856V46H162.856V45ZM162.856 43.48H163.856V42.48H162.856V43.48ZM161.456 43.48H160.456V44.48H161.456V43.48ZM161.456 41.48H162.456V40.48H161.456V41.48ZM159.896 41.48H158.896V42.48H159.896V41.48ZM159.896 39.2H160.896V38.2H159.896V39.2ZM158.336 39.2H157.336V40.2H158.336V39.2ZM158.336 37H159.336V36H158.336V37ZM156.576 37H155.576V38H156.576V37ZM156.576 35.08H157.576V34.08H156.576V35.08ZM153.976 35.08V34.08H152.976V35.08H153.976ZM153.976 43.48V44.48H154.976V43.48H153.976ZM152.456 43.48V42.48H151.456V43.48H152.456ZM152.456 45V46H153.456V45H152.456ZM147.656 45H146.656V46H147.656V45ZM147.656 43.48H148.656V42.48H147.656V43.48ZM146.136 43.48H145.136V44.48H146.136V43.48ZM146.136 16.52V15.52H145.136V16.52H146.136ZM147.656 16.52V17.52H148.656V16.52H147.656ZM147.656 15L147.653 14L146.656 14.0024V15H147.656ZM164.016 14.96H165.016V13.9576L164.013 13.96L164.016 14.96ZM164.016 16.52H163.016V17.52H164.016V16.52ZM165.536 16.52H166.536V15.52H165.536V16.52ZM165.536 18.52H164.536V19.52H165.536V18.52ZM166.976 18.52H167.976V17.52H166.976V18.52ZM166.976 20.44H165.976V21.44H166.976V20.44ZM168.296 20.44H169.296V19.44H168.296V20.44ZM168.296 29.32V30.32H169.296V29.32H168.296ZM166.976 29.32V28.32H165.976V29.32H166.976ZM166.976 31.2V32.2H167.976V31.2H166.976ZM165.536 31.2V30.2H164.536V31.2H165.536ZM159.176 22.44V21.44H153.976V22.44V23.44H159.176V22.44ZM153.976 22.44H152.976V27.52H153.976H154.976V22.44H153.976ZM153.976 27.52V28.52H159.176V27.52V26.52H153.976V27.52ZM159.176 27.52H160.176V25.96H159.176H158.176V27.52H159.176ZM159.176 25.96V26.96H160.416V25.96V24.96H159.176V25.96ZM160.416 25.96H161.416V24H160.416H159.416V25.96H160.416ZM160.416 24V23H159.176V24V25H160.416V24ZM159.176 24H160.176V22.44H159.176H158.176V24H159.176ZM165.536 34.68V35.68H167.296V34.68V33.68H165.536V34.68ZM167.296 34.68H166.296V36.6H167.296H168.296V34.68H167.296ZM167.296 36.6V37.6H168.656V36.6V35.6H167.296V36.6ZM168.656 36.6H167.656V43.48H168.656H169.656V36.6H168.656ZM168.656 43.48V42.48H167.296V43.48V44.48H168.656V43.48ZM167.296 43.48H166.296V45H167.296H168.296V43.48H167.296ZM167.296 45V44H162.856V45V46H167.296V45ZM162.856 45H163.856V43.48H162.856H161.856V45H162.856ZM162.856 43.48V42.48H161.456V43.48V44.48H162.856V43.48ZM161.456 43.48H162.456V41.48H161.456H160.456V43.48H161.456ZM161.456 41.48V40.48H159.896V41.48V42.48H161.456V41.48ZM159.896 41.48H160.896V39.2H159.896H158.896V41.48H159.896ZM159.896 39.2V38.2H158.336V39.2V40.2H159.896V39.2ZM158.336 39.2H159.336V37H158.336H157.336V39.2H158.336ZM158.336 37V36H156.576V37V38H158.336V37ZM156.576 37H157.576V35.08H156.576H155.576V37H156.576ZM156.576 35.08V34.08H153.976V35.08V36.08H156.576V35.08ZM153.976 35.08H152.976V43.48H153.976H154.976V35.08H153.976ZM153.976 43.48V42.48H152.456V43.48V44.48H153.976V43.48ZM152.456 43.48H151.456V45H152.456H153.456V43.48H152.456ZM152.456 45V44H147.656V45V46H152.456V45ZM147.656 45H148.656V43.48H147.656H146.656V45H147.656ZM147.656 43.48V42.48H146.136V43.48V44.48H147.656V43.48ZM146.136 43.48H147.136V16.52H146.136H145.136V43.48H146.136ZM146.136 16.52V17.52H147.656V16.52V15.52H146.136V16.52ZM147.656 16.52H148.656V15H147.656H146.656V16.52H147.656ZM147.656 15L147.658 16L164.018 15.96L164.016 14.96L164.013 13.96L147.653 14L147.656 15ZM164.016 14.96H163.016V16.52H164.016H165.016V14.96H164.016ZM164.016 16.52V17.52H165.536V16.52V15.52H164.016V16.52ZM165.536 16.52H164.536V18.52H165.536H166.536V16.52H165.536ZM165.536 18.52V19.52H166.976V18.52V17.52H165.536V18.52ZM166.976 18.52H165.976V20.44H166.976H167.976V18.52H166.976ZM166.976 20.44V21.44H168.296V20.44V19.44H166.976V20.44ZM168.296 20.44H167.296V29.32H168.296H169.296V20.44H168.296ZM168.296 29.32V28.32H166.976V29.32V30.32H168.296V29.32ZM166.976 29.32H165.976V31.2H166.976H167.976V29.32H166.976ZM166.976 31.2V30.2H165.536V31.2V32.2H166.976V31.2ZM165.536 31.2H164.536V34.68H165.536H166.536V31.2H165.536ZM191.891 15H192.891V14H191.891V15ZM191.891 16.52H190.891V17.52H191.891V16.52ZM193.331 16.52H194.331V15.52H193.331V16.52ZM193.331 21.32V22.32H194.331V21.32H193.331ZM191.891 21.32V20.32H190.891V21.32H191.891ZM191.891 22.84V23.84H192.891V22.84H191.891ZM185.851 22.84V21.84H184.851V22.84H185.851ZM185.851 43.48V44.48H186.851V43.48H185.851ZM184.411 43.48V42.48H183.411V43.48H184.411ZM184.411 45V46H185.411V45H184.411ZM179.131 45H178.131V46H179.131V45ZM179.131 43.48H180.131V42.48H179.131V43.48ZM177.611 43.48H176.611V44.48H177.611V43.48ZM177.611 22.84H178.611V21.84H177.611V22.84ZM171.651 22.84H170.651V23.84H171.651V22.84ZM171.651 21.32H172.651V20.32H171.651V21.32ZM170.131 21.32H169.131V22.32H170.131V21.32ZM170.131 16.52V15.52H169.131V16.52H170.131ZM171.651 16.52V17.52H172.651V16.52H171.651ZM171.651 15V14H170.651V15H171.651ZM191.891 15H190.891V16.52H191.891H192.891V15H191.891ZM191.891 16.52V17.52H193.331V16.52V15.52H191.891V16.52ZM193.331 16.52H192.331V21.32H193.331H194.331V16.52H193.331ZM193.331 21.32V20.32H191.891V21.32V22.32H193.331V21.32ZM191.891 21.32H190.891V22.84H191.891H192.891V21.32H191.891ZM191.891 22.84V21.84H185.851V22.84V23.84H191.891V22.84ZM185.851 22.84H184.851V43.48H185.851H186.851V22.84H185.851ZM185.851 43.48V42.48H184.411V43.48V44.48H185.851V43.48ZM184.411 43.48H183.411V45H184.411H185.411V43.48H184.411ZM184.411 45V44H179.131V45V46H184.411V45ZM179.131 45H180.131V43.48H179.131H178.131V45H179.131ZM179.131 43.48V42.48H177.611V43.48V44.48H179.131V43.48ZM177.611 43.48H178.611V22.84H177.611H176.611V43.48H177.611ZM177.611 22.84V21.84H171.651V22.84V23.84H177.611V22.84ZM171.651 22.84H172.651V21.32H171.651H170.651V22.84H171.651ZM171.651 21.32V20.32H170.131V21.32V22.32H171.651V21.32ZM170.131 21.32H171.131V16.52H170.131H169.131V21.32H170.131ZM170.131 16.52V17.52H171.651V16.52V15.52H170.131V16.52ZM171.651 16.52H172.651V15H171.651H170.651V16.52H171.651ZM171.651 15V16H191.891V15V14H171.651V15ZM202.056 14.4H203.056V13.4H202.056V14.4ZM202.056 15.68H201.056V16.68H202.056V15.68ZM203.336 15.68H204.336V14.68H203.336V15.68ZM203.336 33.64V34.64H204.336V33.64H203.336ZM202.056 33.64V32.64H201.056V33.64H202.056ZM202.056 34.92V35.92H203.056V34.92H202.056ZM197.416 34.92H196.416V35.92H197.416V34.92ZM197.416 33.64H198.416V32.64H197.416V33.64ZM196.136 33.64H195.136V34.64H196.136V33.64ZM196.136 15.68V14.68H195.136V15.68H196.136ZM197.416 15.68V16.68H198.416V15.68H197.416ZM197.416 14.4V13.4H196.416V14.4H197.416ZM202.056 37.28H203.056V36.28H202.056V37.28ZM202.056 38.56H201.056V39.56H202.056V38.56ZM203.336 38.56H204.336V37.56H203.336V38.56ZM203.336 43.32V44.32H204.336V43.32H203.336ZM202.056 43.32V42.32H201.056V43.32H202.056ZM202.056 44.6V45.6H203.056V44.6H202.056ZM197.416 44.6H196.416V45.6H197.416V44.6ZM197.416 43.32H198.416V42.32H197.416V43.32ZM196.136 43.32H195.136V44.32H196.136V43.32ZM196.136 38.56V37.56H195.136V38.56H196.136ZM197.416 38.56V39.56H198.416V38.56H197.416ZM197.416 37.28V36.28H196.416V37.28H197.416ZM202.056 14.4H201.056V15.68H202.056H203.056V14.4H202.056ZM202.056 15.68V16.68H203.336V15.68V14.68H202.056V15.68ZM203.336 15.68H202.336V33.64H203.336H204.336V15.68H203.336ZM203.336 33.64V32.64H202.056V33.64V34.64H203.336V33.64ZM202.056 33.64H201.056V34.92H202.056H203.056V33.64H202.056ZM202.056 34.92V33.92H197.416V34.92V35.92H202.056V34.92ZM197.416 34.92H198.416V33.64H197.416H196.416V34.92H197.416ZM197.416 33.64V32.64H196.136V33.64V34.64H197.416V33.64ZM196.136 33.64H197.136V15.68H196.136H195.136V33.64H196.136ZM196.136 15.68V16.68H197.416V15.68V14.68H196.136V15.68ZM197.416 15.68H198.416V14.4H197.416H196.416V15.68H197.416ZM197.416 14.4V15.4H202.056V14.4V13.4H197.416V14.4ZM202.056 37.28H201.056V38.56H202.056H203.056V37.28H202.056ZM202.056 38.56V39.56H203.336V38.56V37.56H202.056V38.56ZM203.336 38.56H202.336V43.32H203.336H204.336V38.56H203.336ZM203.336 43.32V42.32H202.056V43.32V44.32H203.336V43.32ZM202.056 43.32H201.056V44.6H202.056H203.056V43.32H202.056ZM202.056 44.6V43.6H197.416V44.6V45.6H202.056V44.6ZM197.416 44.6H198.416V43.32H197.416H196.416V44.6H197.416ZM197.416 43.32V42.32H196.136V43.32V44.32H197.416V43.32ZM196.136 43.32H197.136V38.56H196.136H195.136V43.32H196.136ZM196.136 38.56V39.56H197.416V38.56V37.56H196.136V38.56ZM197.416 38.56H198.416V37.28H197.416H196.416V38.56H197.416ZM197.416 37.28V38.28H202.056V37.28V36.28H197.416V37.28Z" fill="#104EA7" mask="url(#path-17-outside-1_4448_38309)"/>
<defs>
<linearGradient id="paint0_linear_4448_38309" x1="138.034" y1="7.15039" x2="138.034" y2="53.2912" gradientUnits="userSpaceOnUse">
<stop offset="0.43" stop-color="white"/>
<stop offset="1" stop-color="white"/>
</linearGradient>
<linearGradient id="paint1_linear_4448_38309" x1="138.034" y1="7" x2="138.034" y2="53.5178" gradientUnits="userSpaceOnUse">
<stop stop-color="white"/>
<stop offset="1" stop-color="white"/>
</linearGradient>
</defs>
</svg>
