<svg width="518" height="137" viewBox="0 0 518 137" fill="none" xmlns="http://www.w3.org/2000/svg">
<g clip-path="url(#clip0_4448_35170)">
<path d="M129.194 136.712C127.608 136.712 125.95 136.568 123.715 136.352C111.893 134.912 100.288 131.312 89.475 127.569C86.6637 126.633 83.8524 125.553 81.1132 124.473C73.328 121.522 65.2546 118.498 56.8207 117.418C54.2977 117.13 51.6306 116.914 48.9634 116.914C36.7811 116.914 24.743 120.37 16.7416 122.961L16.237 123.105C13.642 123.969 10.4703 124.977 7.51478 124.977C5.35224 124.977 3.55013 124.401 2.10844 123.249C0.882998 122.241 0.162152 120.586 0.306321 119.002C0.378406 118.21 0.666744 117.418 1.17134 116.482C2.25261 114.394 3.98264 112.451 5.64058 110.579C6.28934 109.859 6.9381 109.139 7.51478 108.419C9.82149 105.611 12.2003 102.804 14.507 100.068C19.1925 94.5967 24.0222 89.1973 28.8518 83.8699C29.2122 83.438 30.0773 82.5741 29.6448 81.5662C29.5006 81.1342 29.1402 80.7743 28.7797 80.4143C27.1939 78.7585 25.4638 77.1747 23.8059 75.5909C22.7246 74.583 21.5713 73.5751 20.49 72.5672C16.8858 69.3276 13.2095 66.016 9.96566 62.3444C5.64058 57.377 1.24342 48.1621 4.19889 44.9944C10.9028 44.8505 20.2738 44.5625 30.1494 44.5625C48.0984 44.5625 60.6411 45.5704 68.4984 47.5142C92.863 53.7054 120.904 68.6077 147.431 89.3413C148.08 89.8452 148.512 90.2052 148.656 90.2772L150.459 91.429C154.423 94.0207 158.172 96.4684 159.541 101.292C160.622 105.323 160.046 110.147 157.883 114.898C155 121.162 149.738 126.633 145.773 130.017C141.736 133.544 137.555 135.704 133.302 136.424C132.077 136.64 130.779 136.712 129.338 136.712H129.194Z" fill="#88C53A"/>
<path d="M30.0775 44.7068C47.9545 44.7068 60.4972 45.7147 68.3544 47.6584C92.6469 53.8497 120.688 68.68 147.143 89.4856C147.792 89.9895 148.224 90.3495 148.368 90.4215C148.945 90.8534 149.522 91.2134 150.17 91.5733C154.063 94.093 157.811 96.5407 159.109 101.22C160.19 105.18 159.614 109.931 157.451 114.683C154.568 120.946 149.305 126.345 145.413 129.729C141.448 133.256 137.267 135.344 133.086 136.064C131.861 136.28 130.635 136.352 129.194 136.352C127.68 136.352 125.95 136.208 123.787 135.992C111.966 134.552 100.36 130.953 89.6194 127.209C86.8081 126.273 83.9968 125.193 81.2575 124.114C73.4724 121.162 65.3989 118.138 56.8929 117.058C54.37 116.698 51.7029 116.554 49.0357 116.554C36.7813 116.554 24.7432 120.01 16.6697 122.602L16.1651 122.746C13.5701 123.61 10.3984 124.617 7.51499 124.617C5.35245 124.617 3.69451 124.114 2.3249 122.962C1.17155 122.026 0.450699 120.442 0.666953 118.93C0.739038 118.21 1.02738 117.418 1.45988 116.482C2.54115 114.467 4.27118 112.523 5.92913 110.579C6.57789 109.859 7.22665 109.139 7.80333 108.419C10.11 105.612 12.4888 102.804 14.7955 100.068C19.481 94.597 24.3107 89.1976 29.1404 83.8702C29.5729 83.4383 30.4379 82.4304 30.0054 81.2065C29.7891 80.6306 29.4287 80.2706 29.0683 79.9107C27.6987 78.4709 26.0407 76.887 24.0224 75.0872C22.9411 74.0794 21.7877 73.0715 20.6344 72.0636C17.0302 68.824 13.3538 65.5124 10.11 61.8408C6.0733 57.1613 1.74822 48.3064 4.1991 45.0668C11.0471 44.8508 20.3461 44.5628 30.0775 44.5628M30.0775 44.1309C20.3461 44.1309 10.9751 44.4188 3.91076 44.6348C0.739038 48.0904 5.56871 57.5933 9.67753 62.3447C13.9305 67.1682 18.8323 71.3437 23.5899 75.6632C25.3199 77.247 26.9778 78.8308 28.5637 80.4866C28.852 80.8466 29.2125 81.1345 29.3566 81.5665C29.645 82.3584 29.1404 83.0783 28.6358 83.5822C23.734 88.9096 18.9764 94.309 14.2909 99.7804C11.9122 102.516 9.60544 105.324 7.29874 108.131C5.20828 110.723 2.39698 113.387 0.883207 116.266C0.450699 117.058 0.0902762 117.994 0.0181916 118.93C-0.125978 120.658 0.594868 122.386 1.89239 123.466C3.55034 124.761 5.49662 125.265 7.51499 125.265C10.6867 125.265 14.1468 124.114 16.886 123.178C27.122 119.866 38.0789 117.202 49.0357 117.202C51.6308 117.202 54.2258 117.346 56.8209 117.706C68.2102 119.146 78.6625 124.114 89.4752 127.857C100.648 131.673 111.966 135.2 123.787 136.64C125.59 136.856 127.464 137 129.266 137C130.635 137 131.933 136.928 133.231 136.712C137.916 135.92 142.241 133.4 145.845 130.233C150.603 126.057 155.361 120.73 158.028 114.971C159.974 110.723 160.983 105.684 159.758 101.148C158.172 95.4609 153.342 93.0131 148.801 89.9895C147.071 88.8376 109.947 57.7373 68.5707 47.1545C59.2717 44.7788 44.3502 44.1309 30.1496 44.1309H30.0775Z" fill="white"/>
<path d="M388.699 136.567C387.257 136.567 385.959 136.495 384.734 136.279C380.481 135.559 376.3 133.4 372.263 129.872C368.371 126.416 363.036 121.017 360.153 114.754C357.99 110.002 357.342 105.107 358.495 101.147C359.793 96.3239 363.613 93.8762 367.578 91.2845L369.38 90.1326C369.38 90.1326 369.957 89.7007 370.605 89.1967C397.132 68.3912 425.173 53.5609 449.538 47.3696C457.395 45.3539 469.938 44.418 487.887 44.418C497.69 44.418 507.134 44.7059 513.982 44.9219C516.721 48.0175 512.324 57.2325 507.999 62.1279C504.755 65.7995 501.078 69.1111 497.474 72.3507C496.321 73.3586 495.24 74.3665 494.086 75.3744C492.356 76.9582 490.698 78.542 489.112 80.1978C488.824 80.5578 488.464 80.9177 488.247 81.3497C487.887 82.3575 488.68 83.2934 489.04 83.6534C493.942 88.9088 498.772 94.3801 503.385 99.8515C505.764 102.587 508.071 105.395 510.377 108.203C510.954 108.922 511.603 109.642 512.252 110.362C513.909 112.234 515.64 114.178 516.721 116.266C517.225 117.201 517.514 117.993 517.586 118.785C517.73 120.369 517.009 122.097 515.784 123.033C514.342 124.185 512.612 124.761 510.377 124.761C507.422 124.761 504.178 123.753 501.655 122.889L501.15 122.745C493.149 120.153 481.111 116.698 468.857 116.698C466.189 116.698 463.522 116.842 460.999 117.201C452.565 118.281 444.492 121.305 436.707 124.257C433.896 125.337 431.156 126.344 428.345 127.352C417.604 131.024 405.999 134.695 394.105 136.135C392.591 136.351 390.645 136.495 388.626 136.495L388.699 136.567Z" fill="#88C53A"/>
<path d="M487.815 43.9863V44.5623C497.474 44.5623 506.773 44.8502 513.693 45.0662C516.144 48.2338 511.819 57.1608 507.782 61.8402C504.61 65.5118 500.862 68.8234 497.258 72.063C496.104 73.0709 495.023 74.0788 493.87 75.0867C491.851 76.9585 490.265 78.4703 488.824 79.9101C488.535 80.2701 488.103 80.63 487.887 81.206C487.454 82.4298 488.319 83.4377 488.752 83.8697C493.581 89.1251 498.411 94.5964 503.097 100.068C505.475 102.803 507.782 105.611 510.089 108.419C510.665 109.139 511.314 109.859 511.963 110.579C513.621 112.45 515.351 114.394 516.432 116.482C516.865 117.346 517.153 118.138 517.225 118.93C517.369 120.441 516.721 122.025 515.567 122.961C514.198 124.041 512.468 124.617 510.377 124.617C507.494 124.617 504.25 123.609 501.727 122.745L501.222 122.601C493.221 120.009 481.111 116.554 468.856 116.554C466.189 116.554 463.522 116.698 460.999 117.058C452.493 118.138 444.42 121.161 436.635 124.113C433.895 125.121 431.084 126.201 428.273 127.209C417.532 130.88 405.926 134.552 394.105 135.992C391.87 136.28 390.212 136.352 388.698 136.352C387.257 136.352 386.031 136.28 384.806 136.064C380.625 135.344 376.444 133.184 372.479 129.728C368.587 126.345 363.324 120.945 360.441 114.682C358.279 109.931 357.702 105.179 358.783 101.22C360.081 96.5402 363.757 94.0925 367.722 91.5728C368.298 91.2128 368.875 90.7809 369.524 90.4209C369.668 90.3489 370.1 89.989 370.749 89.485C397.276 68.7514 425.245 53.9212 449.538 47.6579C457.395 45.6421 469.938 44.7062 487.815 44.7062V44.1303M487.815 43.9863C473.614 43.9863 458.692 44.6343 449.393 47.01C408.017 57.5927 370.893 88.6931 369.163 89.845C364.622 92.8686 359.792 95.3883 358.206 101.004C356.981 105.611 357.99 110.579 359.936 114.826C362.604 120.585 367.361 125.913 372.119 130.088C375.723 133.256 379.976 135.776 384.734 136.568C386.031 136.783 387.401 136.855 388.698 136.855C390.5 136.855 392.375 136.711 394.177 136.496C405.926 135.056 417.316 131.528 428.489 127.713C439.23 123.969 449.754 119.074 461.143 117.562C463.738 117.202 466.333 117.058 468.928 117.058C479.885 117.058 490.842 119.721 501.078 123.033C503.817 123.897 507.205 125.121 510.449 125.121C512.468 125.121 514.414 124.617 516.072 123.321C517.441 122.241 518.162 120.513 517.946 118.786C517.874 117.85 517.513 116.986 517.081 116.122C515.567 113.17 512.756 110.507 510.665 107.987C508.359 105.179 505.98 102.372 503.673 99.6358C498.988 94.1645 494.23 88.7651 489.328 83.4377C488.824 82.8618 488.247 82.2139 488.608 81.422C488.752 80.99 489.112 80.63 489.4 80.3421C490.986 78.6863 492.716 77.1025 494.374 75.5186C499.06 71.1991 504.034 67.0236 508.287 62.2002C512.395 57.4488 517.225 47.9459 514.053 44.4903C506.989 44.2743 497.618 43.9863 487.887 43.9863H487.815Z" fill="white"/>
<path d="M434.184 114.971C433.03 114.971 431.661 114.611 430.147 114.035C418.253 109.067 335.86 89.7018 255.342 89.7018H254.837C175.328 89.7738 97.6206 109.931 87.8171 114.035C86.2312 114.683 84.8616 114.971 83.7804 114.971C82.4828 114.971 81.4736 114.539 80.7528 113.747C79.0228 111.803 79.3111 108.276 79.3111 108.204C81.0411 80.8468 70.0122 58.1694 64.1013 46.0029C62.0108 41.7554 60.3529 38.3718 60.497 37.0759V36.284C60.7854 31.9645 60.9295 30.5247 85.6546 22.9656C97.6206 19.294 175.544 0.576172 254.837 0.576172C338.311 0.576172 423.155 20.2299 432.309 23.0375C457.034 30.5967 457.107 32.0365 457.395 36.356V37.1479C457.539 38.4437 455.881 41.8274 453.791 46.0749C447.88 58.2414 436.851 80.9188 438.581 108.276C438.581 108.276 438.941 111.947 437.139 113.819C436.418 114.611 435.409 115.043 434.112 115.043L434.184 114.971Z" fill="#88C53A"/>
<path d="M255.198 1.07987C338.239 1.07987 423.011 20.7336 432.165 23.4693C456.53 30.8844 456.602 32.3962 456.89 36.2838V37.0757C457.035 38.2275 455.305 41.6831 453.358 45.7147C447.447 57.9532 436.346 80.7026 438.076 108.203C438.076 108.203 438.365 111.587 436.779 113.315C436.13 114.035 435.265 114.323 434.184 114.323C433.103 114.323 431.805 114.035 430.291 113.387C418.397 108.419 335.86 89.0536 255.27 89.0536H254.765C175.184 89.1256 97.3324 109.283 87.5289 113.387C86.0151 114.035 84.7176 114.323 83.6363 114.323C82.483 114.323 81.69 113.963 81.0413 113.315C79.4554 111.587 79.7438 108.203 79.7438 108.131C81.4738 80.6306 70.4448 57.8812 64.4618 45.6427C62.5155 41.6111 60.7855 38.1555 60.8576 37.0037V36.2118C61.1459 32.2522 61.218 30.8124 85.5826 23.3973C97.7649 19.7977 175.616 1.15187 254.837 1.07987H255.198ZM255.198 0H254.837C174.751 0 95.7465 19.2937 85.4384 22.4614C59.0555 30.5244 60.353 31.8203 59.9205 37.0037C59.5601 42.1871 81.1134 70.6238 78.7346 108.131C78.7346 108.131 78.0137 115.475 83.7084 115.475C84.8618 115.475 86.2314 115.187 87.9614 114.467C98.3416 110.147 175.977 90.2775 254.765 90.2055C254.909 90.2055 255.053 90.2055 255.27 90.2055C336.653 90.2055 419.19 110.003 429.859 114.467C431.589 115.187 432.958 115.475 434.112 115.475C439.806 115.475 439.086 108.131 439.086 108.131C436.707 70.6238 458.332 42.1871 457.9 37.0037C457.539 31.8203 458.765 30.5244 432.382 22.4614C421.857 19.2218 337.951 0 255.198 0Z" fill="white"/>
<g style="mix-blend-mode:soft-light" opacity="0.5">
<path d="M458.128 37.0037C457.767 31.8203 458.993 30.5244 432.61 22.4614C421.869 19.2218 337.819 0 254.921 0C174.835 0 95.8305 19.2937 85.5224 22.4614C59.1395 30.5244 60.437 31.8203 60.0045 37.0037C59.644 42.1871 81.1974 70.6238 78.8186 108.131C78.8186 108.131 77.7373 118.714 88.0454 114.467C98.4256 110.147 176.061 90.2775 254.849 90.2055C336.449 90.1335 419.202 110.003 429.943 114.467C440.251 118.714 439.169 108.131 439.169 108.131C436.791 70.6238 458.416 42.1871 457.984 37.0037H458.128Z" fill="url(#paint0_radial_4448_35170)"/>
</g>
<path d="M223.354 50.7441H229.652L232.338 54.1865C234.022 52.2334 234.999 49.2305 234.975 45.3242C234.999 37.7559 231.386 33.6787 225.941 33.6543C220.448 33.6787 216.859 37.7559 216.859 45.3242C216.859 52.8682 220.448 56.9697 225.941 56.9941C226.649 56.9941 227.333 56.9209 227.968 56.7744L223.354 50.7441ZM209.389 45.3242C209.389 33.7764 216.518 27.1602 225.941 27.1602C235.292 27.1602 242.445 33.7764 242.445 45.3242C242.445 51.6475 240.297 56.4814 236.83 59.582L241.859 65.9297H234.975L232.143 62.4141C230.238 63.1221 228.139 63.4883 225.941 63.4883C216.518 63.4883 209.389 56.8232 209.389 45.3242ZM263.613 51.7207V36.4863H270.84V63H263.906V58.2148H263.613C262.417 61.291 259.561 63.3418 255.557 63.3418C250.259 63.3418 246.621 59.582 246.621 53.3809V36.4863H253.848V52.1113C253.848 55.2607 255.654 57.2139 258.486 57.2383C261.123 57.2139 263.613 55.334 263.613 51.7207ZM275.455 63V36.4863H282.682V63H275.455ZM275.113 29.3574C275.113 27.3066 276.896 25.6709 279.068 25.6465C281.217 25.6709 282.999 27.3066 282.975 29.3574C282.999 31.3594 281.217 33.0195 279.068 33.0195C276.896 33.0195 275.113 31.3594 275.113 29.3574ZM287.102 63V58.6543L300.188 42.4434V42.248H287.541V36.4863H308.879V41.2227L296.623 57.043V57.2383H309.318V63H287.102Z" fill="white"/>
</g>
<defs>
<radialGradient id="paint0_radial_4448_35170" cx="0" cy="0" r="1" gradientUnits="userSpaceOnUse" gradientTransform="translate(259.607 7.19916) scale(216.686 216.407)">
<stop offset="0.226974" stop-color="white"/>
<stop offset="0.52" stop-color="white"/>
<stop offset="0.57" stop-color="#CECECE"/>
<stop offset="0.76" stop-color="#3B3B3B"/>
<stop offset="0.84"/>
<stop offset="0.87" stop-color="#434343"/>
<stop offset="0.9" stop-color="#858585"/>
<stop offset="0.94" stop-color="#B9B9B9"/>
<stop offset="0.96" stop-color="#DFDFDF"/>
<stop offset="0.99" stop-color="#F6F6F6"/>
<stop offset="1" stop-color="white"/>
</radialGradient>
<clipPath id="clip0_4448_35170">
<rect width="518" height="137" fill="white"/>
</clipPath>
</defs>
</svg>
