<svg width="36" height="41" viewBox="0 0 36 41" fill="none" xmlns="http://www.w3.org/2000/svg">
<path d="M27.0663 1.55469L32.3242 5.08766C34.4725 6.52702 35.6598 9.40574 35.4337 13.4621C34.9248 22.2852 27.8767 33.3702 19.6978 38.2303C15.2879 40.8474 11.4435 41.1277 8.93706 39.4454L3.6792 35.9124C8.48477 36.0806 29.8931 22.6404 27.0852 1.55469H27.0663Z" fill="#FFB208"/>
<g style="mix-blend-mode:overlay" opacity="0.23">
<path d="M18.6612 38.8089C19.0004 38.622 19.3584 38.4351 19.6976 38.2295C20.3007 37.8743 20.8849 37.4817 21.4503 37.0705L13.0075 31.3691C12.103 32.0608 11.1984 32.659 10.3503 33.2011L18.6423 38.8089H18.6612Z" fill="white"/>
</g>
<g style="mix-blend-mode:overlay" opacity="0.23">
<path d="M33.8881 20.3978C34.755 18.0238 35.3015 15.6685 35.4334 13.444C35.4711 12.8832 35.4711 12.3598 35.4334 11.8551L27.2922 6.35938C27.1791 9.38764 26.5761 12.2103 25.6338 14.846L33.8692 20.4165L33.8881 20.3978Z" fill="white"/>
</g>
<path style="mix-blend-mode:overlay" d="M3.81177 35.8948C6.3182 37.7454 10.2569 37.5398 14.7986 34.8293C22.9775 29.9691 30.0257 18.8655 30.5345 10.0611C30.7418 6.50944 29.8561 3.85504 28.1977 2.28483L27.067 1.53711C29.8372 22.4359 8.90002 35.8014 3.81177 35.8948Z" fill="url(#paint0_linear_4448_38237)"/>
<path d="M0.570308 27.5388C1.07913 18.7157 8.1273 7.63079 16.3062 2.77062C24.4851 -2.08956 30.6852 1.10694 30.1764 9.93003C29.6676 18.7531 22.6194 29.8381 14.4405 34.6982C6.26161 39.5584 0.0426372 36.3619 0.570308 27.5388Z" fill="#FFDC08"/>
<g style="mix-blend-mode:overlay" opacity="0.23">
<path d="M30.1768 9.93098C30.2145 9.37019 30.2145 8.82809 30.1768 8.30469L0.778028 25.6144C0.683801 26.2687 0.60842 26.9042 0.570729 27.5398C0.419966 30.1942 0.872255 32.3439 1.81452 33.9141L27.9907 18.5111C29.2345 15.595 30.026 12.6602 30.1768 9.93098Z" fill="white"/>
</g>
<defs>
<linearGradient id="paint0_linear_4448_38237" x1="25.5664" y1="3.19351" x2="14.5504" y2="31.6232" gradientUnits="userSpaceOnUse">
<stop stop-color="#CED2F1"/>
<stop offset="0.12" stop-color="#E7E9F8"/>
<stop offset="0.23" stop-color="#F8F9FD"/>
<stop offset="0.31" stop-color="white"/>
<stop offset="0.38" stop-color="white" stop-opacity="0.92"/>
<stop offset="0.54" stop-color="white" stop-opacity="0.7"/>
<stop offset="0.77" stop-color="white" stop-opacity="0.36"/>
<stop offset="0.99" stop-color="white" stop-opacity="0"/>
</linearGradient>
</defs>
</svg>
