<svg width="111" height="113" viewBox="0 0 111 113" fill="none" xmlns="http://www.w3.org/2000/svg">
<g clip-path="url(#clip0_4451_5262)">
<path d="M111 0H0V113H111V0Z" fill="#B77D47"/>
<path d="M99.0756 12.1348H11.9175V100.867H99.0756V12.1348Z" fill="#FDD200"/>
<path d="M23.6421 92.0664H15.0068V100.947H23.6421V92.0664Z" fill="#F6B700"/>
<path d="M91.1597 12.1348V21.0153H82.5311V29.8958H73.8959V38.7763H65.2606V47.6568H56.632V56.5373H47.9968V65.4178H39.3615V74.2983H30.7263V83.1788H22.0977V92.0659V100.946H30.7263H39.3615H47.9968H56.632H65.2606H73.8959H82.5311H91.1597H99.795V92.0659V83.1788V74.2983V65.4178V56.5373V47.6568V38.7763V29.8958V21.0153V12.1348H91.1597Z" fill="#F6B700"/>
<path d="M15.6128 13.9395H7.32373V22.1653H15.6128V13.9395Z" fill="#B77D47"/>
<path d="M15.6128 7.81445H7.32373V22.1701H15.6128V7.81445Z" fill="#B77D47"/>
<path d="M23.3227 6.76367H15.0337V14.9962H23.3227V6.76367Z" fill="#B77D47"/>
<path d="M103.49 7.28711H95.2012V21.6427H103.49V7.28711Z" fill="#B77D47"/>
<path d="M95.7736 6.23633H87.4912V14.4688H95.7736V6.23633Z" fill="#B77D47"/>
<path d="M15.706 90.293H7.41699V104.649H15.706V90.293Z" fill="#B77D47"/>
<path d="M23.416 97.4668H15.127V105.699H23.416V97.4668Z" fill="#B77D47"/>
<path d="M103.583 90.8145H95.2939V105.17H103.583V90.8145Z" fill="#B77D47"/>
<path d="M95.8735 97.9961H87.5845V106.229H95.8735V97.9961Z" fill="#B77D47"/>
<path d="M30.7129 43.9785V35.7791H38.9686V43.9785H30.7129ZM47.2311 76.8093V60.3972H55.5001V52.1911H63.7559V35.7791H38.962V27.5664H72.0183V35.7791H80.2874V52.1911H72.0183V60.3972H63.7492V76.8093H47.2244H47.2311ZM47.2311 93.2213V85.0219H63.7559V93.2213H47.2311Z" fill="#A06D3C"/>
</g>
<defs>
<clipPath id="clip0_4451_5262">
<rect width="111" height="113" fill="white"/>
</clipPath>
</defs>
</svg>
