<svg width="378" height="152" viewBox="0 0 378 152" fill="none" xmlns="http://www.w3.org/2000/svg">
<path d="M99.5748 133.643C97.1141 134.389 94.2433 134.524 91.0308 133.915L82.1451 132.288C78.9326 131.678 74.7631 132.085 70.5937 133.372C66.4926 134.66 62.8016 136.693 60.4776 138.997L54.1209 145.368C51.8653 147.672 49.4046 149.163 46.944 149.976C43.5947 150.993 40.3822 150.654 37.6481 148.892C35.3242 147.401 32.3851 144.283 31.4965 137.845L30.3345 128.967C29.4459 122.122 23.431 113.787 17.211 110.669L9.14548 106.603C1.35339 102.672 0.259766 97.454 0.259766 94.6076C0.259766 91.829 1.4901 86.5429 9.35054 82.8833L17.4844 79.0203C23.7727 76.0384 29.9244 67.7704 31.018 60.9934L32.4534 52.1154C33.8204 43.6441 38.5367 41.001 41.2024 40.12C43.8681 39.239 49.2679 38.8324 55.2829 44.9995L61.5029 51.5055C66.2875 56.4527 76.1301 59.7735 82.9653 58.6892L91.9194 57.266C100.463 55.9106 104.496 59.5024 106.137 61.8066C107.777 64.1108 109.896 69.0581 105.795 76.5806L101.489 84.442C98.2077 90.4736 98.071 100.775 101.215 106.942L105.316 114.939C108.324 120.767 107.64 124.969 106.615 127.544C105.316 130.526 102.924 132.627 99.5748 133.711V133.643Z" fill="#975C1A"/>
<path opacity="0.5" d="M99.2333 132.695C96.9093 133.44 94.1752 133.508 91.1678 132.966L82.2821 131.339C78.9328 130.729 74.5583 131.136 70.2522 132.491C65.946 133.847 62.1183 135.948 59.726 138.319L53.3693 144.69C51.182 146.859 48.9264 148.282 46.6025 149.027C43.595 149.976 40.6559 149.637 38.1952 148.078C36.0763 146.723 33.3422 143.809 32.522 137.71L31.36 128.832C30.4031 121.716 24.1148 112.973 17.6897 109.72L9.62421 105.654C2.37893 101.994 1.35366 97.1827 1.42201 94.6075C1.42201 92.0322 2.58399 87.2205 9.89762 83.7642L18.0315 79.9012C24.5932 76.7838 31.0183 68.1769 32.1803 61.1288L33.6157 52.2508C34.846 44.3217 39.2205 41.8819 41.6811 41.0687C44.1418 40.3232 49.1315 39.9166 54.668 45.6771L60.888 52.1831C65.8776 57.4014 76.1304 60.7899 83.3073 59.6378L92.2614 58.2146C100.259 56.927 103.95 60.2478 105.453 62.3486C106.957 64.4495 108.871 68.9902 105.043 76.0383L100.737 83.8997C97.3194 90.2024 97.1827 100.91 100.464 107.348L104.565 115.345C107.367 120.835 106.82 124.765 105.795 127.07C104.633 129.78 102.446 131.678 99.4383 132.627L99.2333 132.695Z" fill="#EF8A2B"/>
<path opacity="0.5" d="M98.9598 131.745C96.7726 132.422 94.2436 132.49 91.3728 131.948L82.4871 130.322C79.0012 129.712 74.4216 130.118 69.9787 131.474C65.5359 132.829 61.5715 135.066 59.0425 137.573L52.6858 143.943C50.6352 145.977 48.5163 147.332 46.329 148.01C43.595 148.823 40.9976 148.552 38.742 147.129C36.7598 145.909 34.2991 143.198 33.4789 137.505L32.3169 128.627C31.2917 121.24 24.7983 112.159 18.0998 108.771L10.0343 104.704C3.33583 101.316 2.37891 96.9107 2.37891 94.6065C2.37891 92.3023 3.47253 87.8972 10.3077 84.6442L18.4416 80.7813C25.2084 77.5283 31.9752 68.5826 33.1372 61.2633L34.5726 52.3854C35.7345 44.9984 39.6989 42.762 41.8862 42.0165C44.1418 41.3388 48.653 40.9999 53.8477 46.3538L60.0677 52.8598C65.2625 58.2814 75.9253 61.8055 83.3757 60.6534L92.3297 59.2302C99.7801 58.0781 103.198 61.06 104.496 62.9576C105.863 64.8552 107.572 68.9892 104.018 75.5629L99.7117 83.4243C96.1574 89.9981 96.0207 101.112 99.4383 107.754L103.539 115.751C106.205 120.901 105.658 124.493 104.77 126.594C103.744 129.034 101.762 130.728 99.0282 131.609L98.9598 131.745Z" fill="#EF8A2B"/>
<path d="M98.6182 130.797C96.636 131.407 94.2437 131.475 91.578 131L82.6923 129.374C79.0013 128.696 74.285 129.17 69.7054 130.594C65.1259 132.017 60.9564 134.321 58.2907 136.964L51.934 143.334C50.0201 145.232 47.9696 146.52 45.9874 147.13C43.5267 147.875 41.2028 147.604 39.2889 146.384C37.5118 145.232 35.2562 142.792 34.5043 137.506L33.3423 128.628C32.3171 120.97 25.5502 111.482 18.5784 107.958L10.5129 103.892C4.29287 100.774 3.4043 96.776 3.4043 94.6751C3.4043 92.5742 4.42957 88.6435 10.7179 85.6616L18.8518 81.7987C25.892 78.4779 32.8639 69.1256 34.0942 61.4675L35.5296 52.5895C36.6232 45.7447 40.1775 43.7116 42.1597 43.0339C44.1419 42.4239 48.243 42.0851 53.096 47.1001L59.316 53.6061C64.7158 59.231 75.7887 62.8907 83.5125 61.6708L92.4666 60.2476C99.3701 59.1633 102.446 61.8741 103.676 63.5684C104.907 65.2626 106.41 69.0578 103.129 75.1571L98.8233 83.0185C95.1323 89.8634 94.9956 101.452 98.5499 108.297L102.651 116.294C105.112 121.038 104.633 124.359 103.813 126.324C102.924 128.425 101.147 129.984 98.6866 130.729L98.6182 130.797Z" fill="#EF8A2B"/>
<path d="M98.1389 129.17C96.3618 129.712 94.3112 129.78 91.8506 129.305L82.9649 127.679C79.0005 126.933 74.0792 127.408 69.1578 128.898C64.2365 130.389 59.9304 132.829 57.1279 135.676L50.7712 142.046C49.0624 143.74 47.2853 144.892 45.5081 145.435C43.5259 146.044 41.6805 145.841 40.1767 144.892C38.0578 143.537 36.6908 140.894 36.144 137.167L34.982 128.289C33.8884 120.021 26.8481 110.194 19.3294 106.399L11.2639 102.332C7.2312 100.299 5.04395 97.5885 5.04395 94.6066C5.04395 91.6924 7.3679 88.9816 11.4007 87.0163L19.5345 83.1533C27.1215 79.5615 34.4352 69.8703 35.7339 61.6023L37.1692 52.7243C37.8528 48.3192 39.835 45.4051 42.6374 44.5241C45.4398 43.6431 48.7207 44.9307 51.8649 48.1837L58.0849 54.6897C63.8948 60.7212 75.4462 64.5842 83.7167 63.2965L92.6708 61.8733C97.1137 61.1956 100.531 62.0767 102.24 64.5164C103.949 66.8884 103.744 70.4124 101.557 74.3431L97.2504 82.2045C93.2176 89.5915 93.0809 101.587 96.9086 109.042L101.01 117.039C102.719 120.359 103.129 123.341 102.172 125.646C101.488 127.34 100.053 128.492 98.1389 129.102V129.17Z" fill="#FFD73E"/>
<path d="M37.9222 52.9957C39.2892 44.5244 45.2358 42.6946 51.2508 48.8617L57.4708 55.3677C63.4174 61.6026 75.3106 65.5333 83.8545 64.1778L92.8086 62.7547C101.353 61.3992 104.975 66.482 100.874 74.0046L96.5679 81.866C92.4668 89.3885 92.3301 101.858 96.2262 109.449L100.327 117.446C104.292 125.104 100.532 130.051 91.9884 128.492L83.1027 126.866C74.5587 125.307 62.5971 129.034 56.5138 135.134L50.1571 141.504C44.0738 147.603 38.1272 145.57 36.9653 137.099L35.8033 128.221C34.6413 119.75 27.396 109.584 19.6723 105.721L11.6068 101.655C3.88304 97.7921 3.9514 91.5572 11.7435 87.8298L19.8773 83.9669C27.6694 80.2395 35.1881 70.2772 36.4868 61.8059L37.9222 52.9279V52.9957Z" fill="url(#paint0_radial_4448_40432)"/>
<g style="mix-blend-mode:screen" opacity="0.3">
<path d="M18.0991 100.911L10.0336 96.8444C8.52987 96.0989 7.29954 95.2179 6.41097 94.3369C5.5224 97.251 7.29954 100.436 11.8791 102.74L19.9446 106.807C25.6861 109.721 31.1543 116.023 34.0251 122.597C32.5213 114.261 25.5494 104.706 18.0991 100.978V100.911ZM100.395 117.989C100.531 122.462 96.8403 124.901 90.5519 123.749L81.6662 122.123C73.1222 120.564 61.1607 124.291 55.0774 130.323L48.7207 136.693C44.2095 141.234 39.7666 141.234 37.3059 137.507V138.117C38.5363 146.588 44.4829 148.621 50.5662 142.522L56.9229 136.151C61.7758 131.272 70.3882 127.951 78.0435 127.612C79.9574 127.544 81.8029 127.612 83.58 127.951L92.4657 129.578C101.01 131.136 104.701 126.121 100.805 118.531L100.531 117.989H100.395ZM100.873 65.06C100.668 66.3476 100.121 67.703 99.3009 69.194L94.9948 77.0554C91.0304 84.3746 90.757 96.1667 94.3112 103.825C92.9442 96.7766 93.8328 88.5086 96.8403 82.8836L101.146 75.0222C103.607 70.5494 103.265 66.9575 100.873 64.9922V65.06Z" fill="#0082FF"/>
</g>
<path opacity="0.3" d="M20.0815 104.772C21.2435 105.314 22.3371 106.06 23.4991 106.873C36.4176 105.518 48.7892 100.774 60.8875 95.4876C64.9202 93.7256 68.953 91.8958 72.9857 90.066C73.9427 89.5916 76.9501 88.2362 78.7956 87.3551C79.7525 86.9485 80.6411 86.4741 81.598 86.0675C81.393 86.203 81.1879 86.2708 80.9829 86.3386C84.6739 84.6443 88.3649 82.9501 92.1242 81.2558C92.466 81.1202 93.6279 80.5781 94.2431 80.307C95.0633 79.9004 95.8835 79.5615 96.6354 79.1549C96.7038 79.1549 96.7721 79.0871 96.9088 79.0194L99.9846 73.3944C101.762 70.1414 102.035 67.295 100.805 65.533C99.5062 63.771 96.7038 63.0933 93.0128 63.6354L84.0587 65.0586C75.173 66.4818 62.938 62.3478 56.7864 55.9096L50.5664 49.4036C47.969 46.7605 45.3033 45.6084 43.2527 46.2184C41.1338 46.8961 39.6301 49.3358 39.0149 52.9954L37.5796 61.8734C36.2125 70.6836 28.4888 80.9169 20.3549 84.7799L12.2211 88.6428C8.87185 90.2693 6.958 92.3702 6.88965 94.6066C6.88965 96.7753 8.73514 99.0117 12.0844 100.638L20.1499 104.704L20.0815 104.772Z" fill="#FFF9C0"/>
<path d="M25.823 83.0858C26.985 82.7469 32.3164 78.003 34.572 73.8689C36.8276 69.7349 39.2199 55.1643 40.1768 56.9941C41.1338 58.8239 42.2274 71.497 31.9746 79.765C24.2509 85.9999 25.823 83.0858 25.823 83.0858Z" fill="white"/>
<path d="M40.04 141.977C40.04 141.977 41.202 145.366 44.688 143.942C48.1739 142.519 51.0447 140.012 51.0447 140.012C51.0447 140.012 45.1664 143.4 43.3209 142.994C41.4754 142.587 40.04 141.977 40.04 141.977Z" fill="white"/>
<path d="M88.707 126.935C88.707 126.935 94.5853 128.426 96.7042 127.884C98.8231 127.342 100.805 126.935 101.01 124.089C101.215 121.243 100.6 119.48 100.6 119.48C100.6 119.48 101.489 125.715 96.7725 126.19C92.0563 126.596 88.6387 127.003 88.6387 127.003L88.707 126.935Z" fill="white"/>
<path d="M88.8437 64.9231C88.8437 64.9231 98.2079 62.4834 99.8484 65.3975C101.489 68.2439 100.395 70.0059 99.8484 72.3101C99.3699 74.6143 96.5675 79.2227 96.5675 78.8161C96.5675 78.4095 100.122 69.4638 97.5244 66.753C94.927 64.1099 88.7754 64.9231 88.7754 64.9231H88.8437Z" fill="white"/>
<path d="M326.365 150.652C323.973 149.636 321.717 147.874 319.667 145.434L313.925 138.521C311.875 136.014 308.389 133.642 304.356 132.015C300.392 130.389 296.222 129.576 292.941 129.847L283.919 130.66C280.706 130.931 277.836 130.592 275.443 129.576C272.231 128.22 270.043 125.916 269.018 122.798C268.198 120.155 267.925 115.886 271.479 110.396L276.332 102.806C280.023 96.9779 280.911 86.7445 278.177 80.3741L274.623 72.1061C271.205 64.2447 273.803 59.5007 275.648 57.3321C277.494 55.2312 281.8 51.9782 290.207 54.1469L298.956 56.3833C305.655 58.0775 315.771 55.7056 321.034 51.2327L327.869 45.3367C334.362 39.7117 339.762 40.6605 342.36 41.7448C344.957 42.8292 349.4 45.8788 349.947 54.4857L350.493 63.4314C350.904 70.2763 356.372 79.0864 362.318 82.6105L370.042 87.2189C377.492 91.624 378.176 96.9779 377.971 99.7565C377.766 102.535 376.125 107.686 368.128 110.803L359.721 114.124C353.296 116.631 346.529 124.425 344.957 131.134L342.906 139.877C341.403 146.247 338.19 149.093 335.729 150.313C332.79 151.804 329.578 151.872 326.365 150.517V150.652Z" fill="#975C1A"/>
<path opacity="0.5" d="M326.707 149.772C324.452 148.824 322.333 147.197 320.35 144.825L314.609 137.912C312.422 135.337 308.799 132.83 304.698 131.135C300.528 129.441 296.222 128.628 292.805 128.899L283.782 129.712C280.706 129.983 278.041 129.644 275.785 128.696C272.846 127.476 270.864 125.375 269.975 122.596C269.223 120.157 269.018 116.226 272.299 111.075L277.152 103.485C281.048 97.4534 281.937 86.7457 279.066 80.1719L275.512 71.9039C272.368 64.5169 274.691 60.1796 276.332 58.2142C278.041 56.2489 282.005 53.3347 289.866 55.3001L298.615 57.5365C305.655 59.2986 316.181 56.8588 321.581 52.1149L328.416 46.2188C334.499 40.9327 339.421 41.8137 341.813 42.8303C344.205 43.8469 348.238 46.6932 348.785 54.6902L349.332 63.6359C349.81 70.8196 355.415 79.9686 361.635 83.6282L369.359 88.2366C376.33 92.3706 377.014 97.2501 376.809 99.8254C376.604 102.401 375.1 107.077 367.581 110.059L359.174 113.38C352.476 116.023 345.367 124.155 343.795 131.135L341.745 139.878C340.377 145.842 337.37 148.485 335.114 149.637C332.517 150.992 329.578 151.06 326.639 149.84L326.707 149.772Z" fill="#EF8A2B"/>
<path opacity="0.5" d="M327.117 148.823C324.998 147.942 323.015 146.383 321.17 144.146L315.428 137.234C313.173 134.523 309.413 131.948 305.107 130.118C300.801 128.356 296.29 127.475 292.736 127.814L283.713 128.627C280.842 128.898 278.313 128.627 276.195 127.678C273.529 126.594 271.752 124.696 270.931 122.189C270.248 120.02 270.043 116.36 273.187 111.481L278.04 103.891C282.073 97.588 282.961 86.4736 280.022 79.6287L276.468 71.3607C273.529 64.4481 275.648 60.5174 277.151 58.7554C278.655 56.9934 282.346 54.3503 289.66 56.1801L298.409 58.4165C305.722 60.2463 316.659 57.7388 322.332 52.7916L329.167 46.8955C334.84 42.0161 339.352 42.7615 341.47 43.6425C343.589 44.5236 347.349 47.1666 347.827 54.6214L348.374 63.5671C348.852 71.0219 354.731 80.5775 361.156 84.3727L368.879 88.9811C375.373 92.844 375.988 97.3169 375.783 99.6211C375.578 101.925 374.211 106.195 367.239 108.973L358.832 112.294C351.86 115.005 344.478 123.476 342.837 130.796L340.787 139.538C339.488 145.163 336.754 147.603 334.704 148.619C332.38 149.839 329.714 149.839 327.048 148.755L327.117 148.823Z" fill="#EF8A2B"/>
<path d="M327.527 147.875C325.613 147.061 323.699 145.638 321.99 143.537L316.249 136.625C313.856 133.778 309.96 131.068 305.518 129.238C301.075 127.408 296.427 126.527 292.667 126.866L283.645 127.679C280.911 127.95 278.587 127.679 276.605 126.798C274.281 125.849 272.64 124.155 271.957 121.918C271.342 119.953 271.205 116.565 274.076 112.092L278.929 104.501C283.098 97.9277 284.055 86.4067 280.979 79.2908L277.425 71.0228C274.691 64.6523 276.605 61.0605 277.972 59.434C279.339 57.8753 282.688 55.4355 289.455 57.1976L298.204 59.434C305.791 61.3993 317.137 58.6885 323.084 53.6057L329.919 47.7097C335.182 43.169 339.215 43.8468 341.197 44.66C343.111 45.4732 346.46 47.8452 346.939 54.7578L347.485 63.7035C347.964 71.4294 354.047 81.3239 360.746 85.3224L368.469 89.9308C374.484 93.5226 375.1 97.5211 374.895 99.622C374.758 101.723 373.459 105.586 366.966 108.093L358.558 111.414C351.313 114.26 343.658 123.071 341.881 130.593L339.83 139.336C338.6 144.554 336.139 146.79 334.225 147.739C332.175 148.823 329.782 148.823 327.458 147.875H327.527Z" fill="#EF8A2B"/>
<path d="M328.142 146.384C326.434 145.707 324.793 144.351 323.221 142.522L317.479 135.609C314.882 132.492 310.849 129.713 306.133 127.748C301.417 125.782 296.564 124.901 292.531 125.24L283.509 126.053C281.048 126.257 278.929 126.053 277.289 125.308C275.375 124.495 274.144 123.207 273.598 121.445C272.846 119.073 273.529 116.159 275.512 112.974L280.364 105.383C284.876 98.3351 285.901 86.3397 282.552 78.6139L278.997 70.3459C277.22 66.2119 277.289 62.7556 279.271 60.5191C281.185 58.2827 284.671 57.6728 289.045 58.7571L297.794 60.9935C305.996 63.0944 317.821 60.3158 324.178 54.8264L331.013 48.9303C334.431 46.0162 337.78 44.9997 340.514 46.1518C343.248 47.3039 344.957 50.3535 345.23 54.8264L345.777 63.7721C346.324 72.1079 352.612 82.409 359.858 86.6786L367.581 91.287C371.477 93.5912 373.46 96.5053 373.186 99.4195C372.913 102.334 370.52 104.841 366.283 106.535L357.875 109.856C350.015 112.906 342.086 122.055 340.241 130.187L338.19 138.93C337.37 142.589 335.729 145.097 333.474 146.249C331.833 147.062 329.988 147.13 328.074 146.317L328.142 146.384Z" fill="#FFD73E"/>
<path d="M331.492 49.6055C337.985 43.9806 343.795 46.3525 344.342 54.9594L344.889 63.9051C345.435 72.4442 351.929 83.0842 359.379 87.4893L367.103 92.0977C374.553 96.5028 374.006 102.67 365.941 105.855L357.534 109.176C349.468 112.361 341.334 121.713 339.352 130.117L337.302 138.859C335.388 147.195 329.236 148.618 323.768 142.045L318.026 135.132C312.49 128.491 300.938 123.747 292.326 124.492L283.304 125.305C274.691 126.051 271.411 120.765 276.058 113.513L280.911 105.923C285.559 98.6715 286.585 86.3372 283.167 78.408L279.613 70.14C276.195 62.2786 280.296 57.5347 288.704 59.7034L297.453 61.9398C305.86 64.1084 318.026 61.1943 324.588 55.5693L331.423 49.6733L331.492 49.6055Z" fill="url(#paint1_radial_4448_40432)"/>
<g style="mix-blend-mode:screen" opacity="0.3">
<path d="M285.218 73.6645L281.663 65.3965C280.98 63.8378 280.638 62.4146 280.501 61.127C277.904 62.8212 277.22 66.3453 279.271 71.0215L282.825 79.2895C285.354 85.1177 285.423 93.4535 283.372 100.366C287.61 93.0469 288.43 81.2548 285.149 73.5967L285.218 73.6645ZM337.165 139.199C334.362 142.723 329.988 142.248 325.887 137.301L320.145 130.389C314.609 123.747 303.057 119.003 294.445 119.749L285.423 120.562C278.998 121.104 275.58 118.325 276.127 113.92L275.785 114.462C271.137 121.714 274.418 127 283.03 126.255L292.053 125.441C298.956 124.831 307.705 127.745 313.72 132.354C315.224 133.506 316.591 134.794 317.753 136.081L323.494 142.994C329.031 149.635 335.114 148.144 337.028 139.809L337.165 139.199ZM371.819 99.0107C370.794 99.824 369.564 100.569 367.991 101.179L359.584 104.5C351.792 107.55 343.932 116.428 341.676 124.56C345.162 118.325 351.245 112.497 357.192 110.193L365.599 106.872C370.384 104.975 372.503 102.06 371.819 99.0107Z" fill="#0082FF"/>
</g>
<path opacity="0.3" d="M284.191 77.9351C284.67 79.0872 285.08 80.3748 285.422 81.7302C296.153 88.9139 308.73 93.1835 321.443 96.9109C325.681 98.1307 329.987 99.3506 334.225 100.435C335.25 100.706 338.463 101.587 340.376 102.061C341.402 102.333 342.359 102.604 343.384 102.875C343.111 102.875 342.905 102.739 342.769 102.739C346.733 103.756 350.629 104.908 354.594 105.924C355.004 106.06 356.234 106.331 356.849 106.534C357.738 106.738 358.558 107.009 359.447 107.212C359.515 107.212 359.652 107.212 359.72 107.212L365.667 104.84C369.153 103.485 371.203 101.451 371.408 99.2828C371.613 97.1142 369.836 94.81 366.692 92.9124L358.968 88.304C351.244 83.6956 344.546 72.7845 343.999 63.9066L343.452 54.9608C343.247 51.3012 341.949 48.6582 339.898 47.8449C337.847 47.0317 335.113 47.8449 332.311 50.3524L325.476 56.2485C318.709 62.0768 306.132 65.0587 297.452 62.8222L288.703 60.5858C285.08 59.637 282.209 60.1114 280.774 61.7379C279.338 63.3644 279.338 66.2785 280.774 69.6671L284.328 77.9351H284.191Z" fill="#FFF9C0"/>
<path d="M302.647 64.9231C303.74 65.3975 310.917 65.1264 315.36 63.4321C319.803 61.7379 331.081 52.1144 330.602 54.0798C330.124 56.1129 322.81 66.4818 309.55 66.2785C299.571 66.1429 302.715 64.9231 302.715 64.9231H302.647Z" fill="white"/>
<path d="M275.375 119.072C275.375 119.072 274.144 122.393 277.63 123.545C281.185 124.697 285.081 124.562 285.081 124.562C285.081 124.562 278.382 123.477 277.22 121.919C276.058 120.428 275.375 119.072 275.375 119.072Z" fill="white"/>
<path d="M322.4 138.588C322.4 138.588 325.955 143.467 327.937 144.416C329.919 145.365 331.696 146.314 333.678 144.213C335.661 142.112 336.344 140.418 336.344 140.418C336.344 140.418 332.995 145.772 329.099 143.129C325.203 140.418 322.332 138.588 322.332 138.588H322.4Z" fill="white"/>
<path d="M362.66 91.2188C362.66 91.2188 371.409 95.3528 370.793 98.6057C370.178 101.859 368.196 102.469 366.351 103.892C364.505 105.315 359.379 107.077 359.652 106.806C359.926 106.467 368.469 101.927 368.196 98.1991C367.923 94.5395 362.66 91.2188 362.66 91.2188Z" fill="white"/>
<path d="M220.489 120.157C217.549 120.157 214.405 119.276 211.193 117.65L202.17 112.974C198.889 111.279 194.242 110.331 189.389 110.331C184.536 110.331 179.819 111.279 176.607 112.974L167.584 117.65C164.372 119.344 161.228 120.157 158.289 120.157C154.392 120.157 151.043 118.666 148.651 115.888C146.669 113.516 144.481 109.178 145.78 101.927L147.489 91.9647C148.788 84.3066 145.165 73.26 139.56 67.8384L132.247 60.7902C125.275 54.0132 125.89 47.9816 126.847 44.9997C127.804 42.0178 130.948 36.7994 140.585 35.3763L150.701 33.9531C158.425 32.8687 167.926 26.0239 171.412 19.0435L175.923 9.96228C180.229 1.28764 186.244 0 189.389 0C192.533 0 198.548 1.28764 202.854 9.96228L207.365 19.0435C210.851 26.0239 220.352 32.801 228.076 33.9531L238.192 35.3763C247.829 36.7994 250.973 42.0178 251.93 44.9997C252.887 47.9816 253.502 54.0132 246.531 60.7902L239.217 67.8384C233.612 73.26 229.989 84.3066 231.288 91.9647L232.997 101.927C234.227 109.178 232.108 113.516 230.126 115.888C227.734 118.666 224.385 120.157 220.489 120.157Z" fill="#975C1A"/>
<path opacity="0.5" d="M220.488 119.003C217.754 119.003 214.815 118.19 211.739 116.563L202.716 111.887C199.299 110.125 194.446 109.108 189.388 109.108C184.33 109.108 179.477 110.125 176.059 111.887L167.037 116.563C163.961 118.19 161.022 119.003 158.288 119.003C154.733 119.003 151.658 117.647 149.539 115.14C147.693 112.971 145.711 108.905 146.941 102.128L148.65 92.1657C150.017 84.1688 146.258 72.7156 140.38 67.0229L133.066 59.9747C126.504 53.672 127.051 48.1148 127.94 45.3362C128.828 42.5577 131.699 37.8137 140.721 36.4583L150.837 35.0351C158.903 33.883 168.814 26.7671 172.437 19.5156L176.948 10.4344C180.98 2.3019 186.449 1.08203 189.388 1.08203C192.327 1.08203 197.795 2.3019 201.828 10.4344L206.339 19.5156C209.962 26.7671 219.804 33.883 227.938 35.0351L238.054 36.4583C247.077 37.7459 249.947 42.5577 250.836 45.2685C251.724 47.9793 252.271 53.5365 245.709 59.9069L238.396 66.9551C232.518 72.58 228.758 84.101 230.125 92.098L231.834 102.06C232.996 108.905 231.082 112.904 229.237 115.072C227.118 117.58 224.042 118.935 220.488 118.935V119.003Z" fill="#EF8A2B"/>
<path opacity="0.5" d="M220.488 117.854C217.959 117.854 215.157 117.108 212.286 115.549L203.264 110.873C199.709 109.043 194.651 107.959 189.388 107.959C184.125 107.959 179.067 109.043 175.513 110.873L166.491 115.549C163.62 117.04 160.817 117.854 158.288 117.854C155.076 117.854 152.342 116.634 150.428 114.397C148.719 112.432 146.942 108.705 148.036 102.266L149.744 92.3041C151.18 84.036 147.284 72.0406 141.2 66.1446L133.887 59.0965C127.803 53.2004 128.282 48.1854 129.034 45.6779C129.854 43.1704 132.451 38.833 140.927 37.6132L151.043 36.19C159.45 34.9701 169.703 27.5831 173.462 20.0606L177.974 10.9793C181.733 3.38902 186.723 2.30469 189.388 2.30469C192.054 2.30469 197.044 3.45679 200.803 10.9793L205.314 20.0606C209.074 27.5831 219.326 35.0379 227.734 36.19L237.85 37.6132C246.257 38.833 248.923 43.1704 249.743 45.6779C250.563 48.1854 251.042 53.2004 244.89 59.0965L237.576 66.1446C231.493 72.0406 227.597 83.9683 229.032 92.3041L230.741 102.266C231.835 108.637 230.058 112.364 228.349 114.397C226.435 116.634 223.701 117.854 220.488 117.854Z" fill="#EF8A2B"/>
<path d="M220.489 116.703C218.097 116.703 215.568 115.958 212.834 114.534L203.811 109.858C200.052 107.893 194.857 106.809 189.389 106.809C183.921 106.809 178.726 107.893 174.967 109.858L165.944 114.534C163.21 115.958 160.613 116.703 158.289 116.703C155.418 116.703 153.026 115.619 151.317 113.653C149.813 111.824 148.173 108.435 149.198 102.471L150.907 92.509C152.411 83.9021 148.31 71.4323 142.021 65.333L134.708 58.2848C129.034 52.8632 129.444 48.2548 130.196 46.0183C130.948 43.7819 133.34 39.8512 141.133 38.7669L151.249 37.3437C159.998 36.0561 170.661 28.398 174.557 20.5366L179.068 11.4553C182.554 4.47496 187.065 3.39062 189.457 3.39062C191.85 3.39062 196.361 4.40718 199.847 11.4553L204.358 20.5366C208.254 28.398 218.917 36.0561 227.666 37.3437L237.782 38.7669C245.574 39.919 247.966 43.7819 248.718 46.0183C249.47 48.2548 249.812 52.7954 244.207 58.2848L236.893 65.333C230.605 71.4323 226.504 83.9021 228.008 92.509L229.716 102.471C230.742 108.435 229.17 111.824 227.597 113.653C225.889 115.619 223.496 116.703 220.626 116.703H220.489Z" fill="#EF8A2B"/>
<path d="M220.489 114.872C218.438 114.872 216.114 114.194 213.654 112.974L204.631 108.298C200.598 106.197 195.13 105.045 189.32 105.045C183.51 105.045 178.111 106.197 174.01 108.298L164.987 112.974C162.526 114.262 160.203 114.872 158.152 114.872C155.828 114.872 153.914 114.058 152.616 112.5C150.77 110.331 150.223 107.01 150.907 102.808L152.616 92.8462C154.256 83.5616 150.018 70.6174 143.183 64.0436L135.869 56.9955C132.247 53.4714 130.811 49.8118 131.837 46.6266C132.862 43.4414 136.211 41.3405 141.269 40.595L151.385 39.1718C160.818 37.8164 171.891 29.8195 176.128 21.3482L180.64 12.2669C182.895 7.72626 185.971 5.21875 189.32 5.21875C192.67 5.21875 195.745 7.72626 198.001 12.2669L202.512 21.3482C206.75 29.8195 217.823 37.8164 227.256 39.1718L237.372 40.595C242.43 41.3405 245.779 43.4414 246.804 46.6266C247.829 49.8118 246.394 53.4714 242.771 56.9955L235.458 64.0436C228.623 70.6174 224.385 83.5616 226.025 92.8462L227.734 102.808C228.486 106.942 227.871 110.331 226.025 112.5C224.727 114.058 222.744 114.872 220.489 114.872Z" fill="#FFD73E"/>
<path d="M181.528 12.7384C185.834 4.06376 192.943 4.06376 197.249 12.7384L201.76 21.8197C206.066 30.4943 217.549 38.7623 227.187 40.1177L237.303 41.5409C246.94 42.9641 249.128 49.6056 242.156 56.3149L234.842 63.3631C227.87 70.1401 223.496 83.4232 225.136 92.9788L226.845 102.941C228.486 112.497 222.744 116.563 214.132 112.09L205.109 107.414C196.429 102.941 182.348 102.941 173.667 107.414L164.645 112.09C156.033 116.563 150.291 112.497 151.932 102.941L153.64 92.9788C155.281 83.4232 150.906 70.1401 143.934 63.3631L136.621 56.3149C129.649 49.5378 131.836 42.8963 141.474 41.5409L151.59 40.1177C161.227 38.6945 172.711 30.4943 177.017 21.8197L181.528 12.7384Z" fill="url(#paint2_radial_4448_40432)"/>
<g style="mix-blend-mode:screen" opacity="0.3">
<path d="M143.935 57.7406L136.621 50.6924C135.254 49.337 134.229 48.0494 133.545 46.7617C131.563 49.6081 132.452 53.6066 136.621 57.605L143.935 64.6532C149.13 69.6682 152.889 78.3428 153.777 86.3398C155.008 76.9196 150.702 64.2465 143.935 57.7406ZM226.709 103.553C225.342 108.433 220.557 109.788 214.132 106.468L205.11 101.791C196.429 97.3186 182.348 97.3186 173.668 101.791L164.645 106.468C158.22 109.788 153.436 108.365 152.069 103.553L151.932 104.231C150.292 113.787 156.033 117.853 164.645 113.38L173.668 108.704C180.571 105.112 190.961 104.367 199.3 106.535C201.419 107.078 203.401 107.823 205.11 108.704L214.132 113.38C222.744 117.853 228.486 113.787 226.845 104.231L226.709 103.553ZM245.232 46.7617C244.549 48.0494 243.523 49.337 242.156 50.6924L234.843 57.7406C228.076 64.2465 223.77 76.9196 225 86.3398C225.889 78.3428 229.648 69.6682 234.843 64.6532L242.156 57.605C246.326 53.6066 247.214 49.6081 245.232 46.7617Z" fill="#0082FF"/>
</g>
<path opacity="0.3" d="M144.755 62.5514C145.78 63.568 146.737 64.7201 147.694 65.9399C162.048 68.7863 176.948 67.8375 191.849 66.211C196.839 65.6689 201.76 65.0589 206.75 64.3812C207.98 64.2457 211.671 63.7035 213.927 63.4324C215.088 63.2969 216.25 63.0936 217.412 62.958C217.139 62.958 216.866 63.0258 216.661 63.0258C221.24 62.4159 225.82 61.8737 230.331 61.2638C230.741 61.2638 232.245 60.9927 232.928 60.9249C233.954 60.7894 234.91 60.6538 235.936 60.5183C236.004 60.5183 236.141 60.5183 236.209 60.5183L241.404 55.5033C244.411 52.5891 245.71 49.6072 244.958 47.2352C244.206 44.931 241.404 43.2368 237.234 42.6268L227.118 41.2037C217.071 39.7805 205.314 31.2414 200.803 22.2957L196.292 13.2144C194.446 9.48702 191.917 7.31836 189.457 7.31836C186.996 7.31836 184.467 9.48702 182.621 13.2144L178.11 22.2957C173.599 31.3092 161.843 39.7805 151.795 41.2037L141.679 42.6268C137.509 43.2368 134.707 44.931 133.955 47.2352C133.203 49.5394 134.502 52.5891 137.509 55.5033L144.823 62.5514H144.755Z" fill="#FFF9C0"/>
<path d="M158.288 41.0661C159.655 41.0661 166.969 37.7453 170.865 34.0857C174.693 30.4261 182.211 15.5165 182.621 17.8207C183.031 20.1249 179.887 34.0857 166.012 39.5751C155.554 43.7091 158.288 41.1338 158.288 41.1338V41.0661Z" fill="white"/>
<path d="M153.572 109.246C153.572 109.246 153.709 113.245 157.878 112.906C162.048 112.567 166.081 110.737 166.081 110.737C166.081 110.737 158.63 112.431 156.785 111.415C154.871 110.33 153.572 109.246 153.572 109.246Z" fill="white"/>
<path d="M211.124 109.246C211.124 109.246 217.002 112.77 219.463 112.906C221.924 113.041 224.248 113.244 225.41 110.262C226.571 107.281 226.572 105.18 226.572 105.18C226.572 105.18 225.41 112.228 220.215 111.076C215.02 109.924 211.192 109.246 211.192 109.246H211.124Z" fill="white"/>
<path d="M232.245 42.5586C232.245 42.5586 243.113 43.1008 243.933 46.7604C244.753 50.42 242.908 51.9109 241.609 54.2151C240.311 56.5193 235.731 60.5856 235.868 60.1112C236.004 59.6368 242.908 51.2332 240.994 47.5058C239.149 43.7785 232.177 42.6264 232.177 42.6264L232.245 42.5586Z" fill="white"/>
<defs>
<radialGradient id="paint0_radial_4448_40432" cx="0" cy="0" r="1" gradientTransform="matrix(61.9178 -19.1683 19.3327 61.3914 54.2197 74.2316)" gradientUnits="userSpaceOnUse">
<stop offset="0.11" stop-color="#FDFF00"/>
<stop offset="0.57" stop-color="#FDBE00"/>
<stop offset="0.84" stop-color="#FCA200"/>
<stop offset="1" stop-color="#FC9701"/>
</radialGradient>
<radialGradient id="paint1_radial_4448_40432" cx="0" cy="0" r="1" gradientTransform="matrix(59.8542 24.7882 -25.0008 59.3454 329.27 78.9886)" gradientUnits="userSpaceOnUse">
<stop offset="0.11" stop-color="#FDFF00"/>
<stop offset="0.57" stop-color="#FDBE00"/>
<stop offset="0.84" stop-color="#FCA200"/>
<stop offset="1" stop-color="#FC9701"/>
</radialGradient>
<radialGradient id="paint2_radial_4448_40432" cx="0" cy="0" r="1" gradientUnits="userSpaceOnUse" gradientTransform="translate(191.849 42.2186) scale(73.1363 72.5146)">
<stop offset="0.11" stop-color="#FDFF00"/>
<stop offset="0.57" stop-color="#FDBE00"/>
<stop offset="0.84" stop-color="#FCA200"/>
<stop offset="1" stop-color="#FC9701"/>
</radialGradient>
</defs>
</svg>
