<svg width="218" height="218" viewBox="0 0 218 218" fill="none" xmlns="http://www.w3.org/2000/svg">
<g clip-path="url(#clip0_1_684)">
<path d="M112.516 0H105.484V7.03226H112.516V0Z" fill="#FFE027"/>
<path d="M84.3871 14.0645H77.3549V21.0967H84.3871V14.0645Z" fill="#FFE027"/>
<path d="M112.516 14.0645H105.484V21.0967H112.516V14.0645Z" fill="#FFE027"/>
<path d="M147.677 14.0645H140.645V21.0967H147.677V14.0645Z" fill="#FFE027"/>
<path d="M91.4193 21.0967H84.3871V28.1289H91.4193V21.0967Z" fill="#FFE027"/>
<path d="M140.645 21.0967H133.613V28.1289H140.645V21.0967Z" fill="#FFE027"/>
<path d="M105.484 28.1292H98.4517V35.1614H105.484V28.1292Z" fill="#FFE027"/>
<path d="M112.516 28.1292H105.484V35.1614H112.516V28.1292Z" fill="#FFE027"/>
<path d="M119.548 28.1292H112.516V35.1614H119.548V28.1292Z" fill="#FFE027"/>
<path d="M126.581 28.1292H119.548V35.1614H126.581V28.1292Z" fill="#DF7126"/>
<path d="M98.4516 35.1614H91.4193V42.1936H98.4516V35.1614Z" fill="#FFE027"/>
<path d="M105.484 35.1614H98.4517V42.1936H105.484V35.1614Z" fill="#FFF4B0"/>
<path d="M112.516 35.1614H105.484V42.1936H112.516V35.1614Z" fill="#FFF4B0"/>
<path d="M119.548 35.1614H112.516V42.1936H119.548V35.1614Z" fill="#FFF4B0"/>
<path d="M126.581 35.1614H119.548V42.1936H126.581V35.1614Z" fill="#FFE027"/>
<path d="M133.613 35.1614H126.581V42.1936H133.613V35.1614Z" fill="#DF7126"/>
<path d="M35.1613 42.1936H28.129V49.2259H35.1613V42.1936Z" fill="#222034"/>
<path d="M42.1935 42.1936H35.1613V49.2259H42.1935V42.1936Z" fill="#222034"/>
<path d="M49.2259 42.1936H42.1936V49.2259H49.2259V42.1936Z" fill="#222034"/>
<path d="M56.2581 42.1936H49.2258V49.2259H56.2581V42.1936Z" fill="#222034"/>
<path d="M63.2903 42.1936H56.2581V49.2259H63.2903V42.1936Z" fill="#222034"/>
<path d="M70.3225 42.1936H63.2903V49.2259H70.3225V42.1936Z" fill="#FFE027"/>
<path d="M77.3549 42.1936H70.3226V49.2259H77.3549V42.1936Z" fill="#222034"/>
<path d="M84.3871 42.1936H77.3549V49.2259H84.3871V42.1936Z" fill="#FFE027"/>
<path d="M91.4193 42.1936H84.3871V49.2259H91.4193V42.1936Z" fill="#222034"/>
<path d="M98.4516 42.1936H91.4193V49.2259H98.4516V42.1936Z" fill="#FFE027"/>
<path d="M105.484 42.1936H98.4517V49.2259H105.484V42.1936Z" fill="#FFF4B0"/>
<path d="M112.516 42.1936H105.484V49.2259H112.516V42.1936Z" fill="#FFE027"/>
<path d="M119.548 42.1936H112.516V49.2259H119.548V42.1936Z" fill="#FFF4B0"/>
<path d="M126.581 42.1936H119.548V49.2259H126.581V42.1936Z" fill="#FFE027"/>
<path d="M133.613 42.1936H126.581V49.2259H133.613V42.1936Z" fill="#DF7126"/>
<path d="M140.645 42.1936H133.613V49.2259H140.645V42.1936Z" fill="#222034"/>
<path d="M147.677 42.1936H140.645V49.2259H147.677V42.1936Z" fill="#FFE027"/>
<path d="M154.71 42.1936H147.677V49.2259H154.71V42.1936Z" fill="#222034"/>
<path d="M161.742 42.1936H154.71V49.2259H161.742V42.1936Z" fill="#FFE027"/>
<path d="M168.774 42.1936H161.742V49.2259H168.774V42.1936Z" fill="#222034"/>
<path d="M175.806 42.1936H168.774V49.2259H175.806V42.1936Z" fill="#222034"/>
<path d="M182.839 42.1936H175.806V49.2259H182.839V42.1936Z" fill="#222034"/>
<path d="M189.871 42.1936H182.839V49.2259H189.871V42.1936Z" fill="#222034"/>
<path d="M28.1291 49.2258H21.0968V56.2581H28.1291V49.2258Z" fill="#222034"/>
<path d="M35.1613 49.2258H28.129V56.2581H35.1613V49.2258Z" fill="#D9A066"/>
<path d="M42.1935 49.2258H35.1613V56.2581H42.1935V49.2258Z" fill="#D9A066"/>
<path d="M49.2259 49.2258H42.1936V56.2581H49.2259V49.2258Z" fill="#D9A066"/>
<path d="M56.2581 49.2258H49.2258V56.2581H56.2581V49.2258Z" fill="#D9A066"/>
<path d="M63.2903 49.2258H56.2581V56.2581H63.2903V49.2258Z" fill="#D9A066"/>
<path d="M70.3225 49.2258H63.2903V56.2581H70.3225V49.2258Z" fill="#D9A066"/>
<path d="M77.3549 49.2258H70.3226V56.2581H77.3549V49.2258Z" fill="#D9A066"/>
<path d="M84.3871 49.2258H77.3549V56.2581H84.3871V49.2258Z" fill="#D9A066"/>
<path d="M91.4193 49.2258H84.3871V56.2581H91.4193V49.2258Z" fill="#D9A066"/>
<path d="M98.4516 49.2258H91.4193V56.2581H98.4516V49.2258Z" fill="#FFE027"/>
<path d="M105.484 49.2258H98.4517V56.2581H105.484V49.2258Z" fill="#FFF4B0"/>
<path d="M112.516 49.2258H105.484V56.2581H112.516V49.2258Z" fill="#FFF4B0"/>
<path d="M119.548 49.2258H112.516V56.2581H119.548V49.2258Z" fill="#FFF4B0"/>
<path d="M126.581 49.2258H119.548V56.2581H126.581V49.2258Z" fill="#FFE027"/>
<path d="M133.613 49.2258H126.581V56.2581H133.613V49.2258Z" fill="#DF7126"/>
<path d="M140.645 49.2258H133.613V56.2581H140.645V49.2258Z" fill="#D9A066"/>
<path d="M147.677 49.2258H140.645V56.2581H147.677V49.2258Z" fill="#D9A066"/>
<path d="M154.71 49.2258H147.677V56.2581H154.71V49.2258Z" fill="#D9A066"/>
<path d="M161.742 49.2258H154.71V56.2581H161.742V49.2258Z" fill="#D9A066"/>
<path d="M168.774 49.2258H161.742V56.2581H168.774V49.2258Z" fill="#D9A066"/>
<path d="M175.806 49.2258H168.774V56.2581H175.806V49.2258Z" fill="#D9A066"/>
<path d="M182.839 49.2258H175.806V56.2581H182.839V49.2258Z" fill="#D9A066"/>
<path d="M189.871 49.2258H182.839V56.2581H189.871V49.2258Z" fill="#D9A066"/>
<path d="M196.903 49.2258H189.871V56.2581H196.903V49.2258Z" fill="#222034"/>
<path d="M21.0968 56.2581H14.0646V63.2903H21.0968V56.2581Z" fill="#222034"/>
<path d="M28.1291 56.2581H21.0968V63.2903H28.1291V56.2581Z" fill="#D9A066"/>
<path d="M35.1613 56.2581H28.129V63.2903H35.1613V56.2581Z" fill="#D9A066"/>
<path d="M42.1935 56.2581H35.1613V63.2903H42.1935V56.2581Z" fill="#663931"/>
<path d="M49.2259 56.2581H42.1936V63.2903H49.2259V56.2581Z" fill="#663931"/>
<path d="M56.2581 56.2581H49.2258V63.2903H56.2581V56.2581Z" fill="#663931"/>
<path d="M63.2903 56.2581H56.2581V63.2903H63.2903V56.2581Z" fill="#663931"/>
<path d="M70.3225 56.2581H63.2903V63.2903H70.3225V56.2581Z" fill="#663931"/>
<path d="M77.3549 56.2581H70.3226V63.2903H77.3549V56.2581Z" fill="#663931"/>
<path d="M84.3871 56.2581H77.3549V63.2903H84.3871V56.2581Z" fill="#663931"/>
<path d="M91.4193 56.2581H84.3871V63.2903H91.4193V56.2581Z" fill="#663931"/>
<path d="M98.4516 56.2581H91.4193V63.2903H98.4516V56.2581Z" fill="#663931"/>
<path d="M105.484 56.2581H98.4517V63.2903H105.484V56.2581Z" fill="#FFE027"/>
<path d="M112.516 56.2581H105.484V63.2903H112.516V56.2581Z" fill="#FFE027"/>
<path d="M119.548 56.2581H112.516V63.2903H119.548V56.2581Z" fill="#FFE027"/>
<path d="M126.581 56.2581H119.548V63.2903H126.581V56.2581Z" fill="#DF7126"/>
<path d="M133.613 56.2581H126.581V63.2903H133.613V56.2581Z" fill="#663931"/>
<path d="M140.645 56.2581H133.613V63.2903H140.645V56.2581Z" fill="#663931"/>
<path d="M147.677 56.2581H140.645V63.2903H147.677V56.2581Z" fill="#663931"/>
<path d="M154.71 56.2581H147.677V63.2903H154.71V56.2581Z" fill="#663931"/>
<path d="M161.742 56.2581H154.71V63.2903H161.742V56.2581Z" fill="#663931"/>
<path d="M168.774 56.2581H161.742V63.2903H168.774V56.2581Z" fill="#663931"/>
<path d="M175.806 56.2581H168.774V63.2903H175.806V56.2581Z" fill="#663931"/>
<path d="M182.839 56.2581H175.806V63.2903H182.839V56.2581Z" fill="#663931"/>
<path d="M189.871 56.2581H182.839V63.2903H189.871V56.2581Z" fill="#D9A066"/>
<path d="M196.903 56.2581H189.871V63.2903H196.903V56.2581Z" fill="#D9A066"/>
<path d="M203.935 56.2581H196.903V63.2903H203.935V56.2581Z" fill="#222034"/>
<path d="M21.0968 63.2903H14.0646V70.3225H21.0968V63.2903Z" fill="#222034"/>
<path d="M28.1291 63.2903H21.0968V70.3225H28.1291V63.2903Z" fill="#D9A066"/>
<path d="M35.1613 63.2903H28.129V70.3225H35.1613V63.2903Z" fill="#663931"/>
<path d="M42.1935 63.2903H35.1613V70.3225H42.1935V63.2903Z" fill="#663931"/>
<path d="M49.2259 63.2903H42.1936V70.3225H49.2259V63.2903Z" fill="#663931"/>
<path d="M56.2581 63.2903H49.2258V70.3225H56.2581V63.2903Z" fill="#663931"/>
<path d="M63.2903 63.2903H56.2581V70.3225H63.2903V63.2903Z" fill="#663931"/>
<path d="M70.3225 63.2903H63.2903V70.3225H70.3225V63.2903Z" fill="#663931"/>
<path d="M77.3549 63.2903H70.3226V70.3225H77.3549V63.2903Z" fill="#663931"/>
<path d="M84.3871 63.2903H77.3549V70.3225H84.3871V63.2903Z" fill="#663931"/>
<path d="M91.4193 63.2903H84.3871V70.3225H91.4193V63.2903Z" fill="#FFE027"/>
<path d="M98.4516 63.2903H91.4193V70.3225H98.4516V63.2903Z" fill="#663931"/>
<path d="M105.484 63.2903H98.4517V70.3225H105.484V63.2903Z" fill="#663931"/>
<path d="M112.516 63.2903H105.484V70.3225H112.516V63.2903Z" fill="#663931"/>
<path d="M119.548 63.2903H112.516V70.3225H119.548V63.2903Z" fill="#663931"/>
<path d="M126.581 63.2903H119.548V70.3225H126.581V63.2903Z" fill="#663931"/>
<path d="M133.613 63.2903H126.581V70.3225H133.613V63.2903Z" fill="#FFE027"/>
<path d="M140.645 63.2903H133.613V70.3225H140.645V63.2903Z" fill="#663931"/>
<path d="M147.677 63.2903H140.645V70.3225H147.677V63.2903Z" fill="#663931"/>
<path d="M154.71 63.2903H147.677V70.3225H154.71V63.2903Z" fill="#663931"/>
<path d="M161.742 63.2903H154.71V70.3225H161.742V63.2903Z" fill="#663931"/>
<path d="M168.774 63.2903H161.742V70.3225H168.774V63.2903Z" fill="#663931"/>
<path d="M175.806 63.2903H168.774V70.3225H175.806V63.2903Z" fill="#663931"/>
<path d="M182.839 63.2903H175.806V70.3225H182.839V63.2903Z" fill="#663931"/>
<path d="M189.871 63.2903H182.839V70.3225H189.871V63.2903Z" fill="#663931"/>
<path d="M196.903 63.2903H189.871V70.3225H196.903V63.2903Z" fill="#D9A066"/>
<path d="M203.935 63.2903H196.903V70.3225H203.935V63.2903Z" fill="#222034"/>
<path d="M21.0968 70.3225H14.0646V77.3548H21.0968V70.3225Z" fill="#222034"/>
<path d="M28.1291 70.3225H21.0968V77.3548H28.1291V70.3225Z" fill="#D9A066"/>
<path d="M35.1613 70.3225H28.129V77.3548H35.1613V70.3225Z" fill="#663931"/>
<path d="M42.1935 70.3225H35.1613V77.3548H42.1935V70.3225Z" fill="#663931"/>
<path d="M49.2259 70.3225H42.1936V77.3548H49.2259V70.3225Z" fill="#663931"/>
<path d="M56.2581 70.3225H49.2258V77.3548H56.2581V70.3225Z" fill="#663931"/>
<path d="M63.2903 70.3225H56.2581V77.3548H63.2903V70.3225Z" fill="#663931"/>
<path d="M70.3225 70.3225H63.2903V77.3548H70.3225V70.3225Z" fill="#663931"/>
<path d="M77.3549 70.3225H70.3226V77.3548H77.3549V70.3225Z" fill="#663931"/>
<path d="M84.3871 70.3225H77.3549V77.3548H84.3871V70.3225Z" fill="#FFE027"/>
<path d="M91.4193 70.3225H84.3871V77.3548H91.4193V70.3225Z" fill="#663931"/>
<path d="M98.4516 70.3225H91.4193V77.3548H98.4516V70.3225Z" fill="#663931"/>
<path d="M105.484 70.3225H98.4517V77.3548H105.484V70.3225Z" fill="#663931"/>
<path d="M112.516 70.3225H105.484V77.3548H112.516V70.3225Z" fill="#FFE027"/>
<path d="M119.548 70.3225H112.516V77.3548H119.548V70.3225Z" fill="#663931"/>
<path d="M126.581 70.3225H119.548V77.3548H126.581V70.3225Z" fill="#663931"/>
<path d="M133.613 70.3225H126.581V77.3548H133.613V70.3225Z" fill="#663931"/>
<path d="M140.645 70.3225H133.613V77.3548H140.645V70.3225Z" fill="#FFE027"/>
<path d="M147.677 70.3225H140.645V77.3548H147.677V70.3225Z" fill="#663931"/>
<path d="M154.71 70.3225H147.677V77.3548H154.71V70.3225Z" fill="#663931"/>
<path d="M161.742 70.3225H154.71V77.3548H161.742V70.3225Z" fill="#663931"/>
<path d="M168.774 70.3225H161.742V77.3548H168.774V70.3225Z" fill="#663931"/>
<path d="M175.806 70.3225H168.774V77.3548H175.806V70.3225Z" fill="#663931"/>
<path d="M182.839 70.3225H175.806V77.3548H182.839V70.3225Z" fill="#663931"/>
<path d="M189.871 70.3225H182.839V77.3548H189.871V70.3225Z" fill="#663931"/>
<path d="M196.903 70.3225H189.871V77.3548H196.903V70.3225Z" fill="#D9A066"/>
<path d="M203.935 70.3225H196.903V77.3548H203.935V70.3225Z" fill="#222034"/>
<path d="M21.0968 77.3547H14.0646V84.387H21.0968V77.3547Z" fill="#222034"/>
<path d="M28.1291 77.3547H21.0968V84.387H28.1291V77.3547Z" fill="#D9A066"/>
<path d="M35.1613 77.3547H28.129V84.387H35.1613V77.3547Z" fill="#663931"/>
<path d="M42.1935 77.3547H35.1613V84.387H42.1935V77.3547Z" fill="#663931"/>
<path d="M49.2259 77.3547H42.1936V84.387H49.2259V77.3547Z" fill="#663931"/>
<path d="M56.2581 77.3547H49.2258V84.387H56.2581V77.3547Z" fill="#663931"/>
<path d="M63.2903 77.3547H56.2581V84.387H63.2903V77.3547Z" fill="#663931"/>
<path d="M70.3225 77.3547H63.2903V84.387H70.3225V77.3547Z" fill="#663931"/>
<path d="M77.3549 77.3547H70.3226V84.387H77.3549V77.3547Z" fill="#663931"/>
<path d="M84.3871 77.3547H77.3549V84.387H84.3871V77.3547Z" fill="#663931"/>
<path d="M91.4193 77.3547H84.3871V84.387H91.4193V77.3547Z" fill="#663931"/>
<path d="M98.4516 77.3547H91.4193V84.387H98.4516V77.3547Z" fill="#663931"/>
<path d="M105.484 77.3547H98.4517V84.387H105.484V77.3547Z" fill="#663931"/>
<path d="M112.516 77.3547H105.484V84.387H112.516V77.3547Z" fill="#663931"/>
<path d="M119.548 77.3547H112.516V84.387H119.548V77.3547Z" fill="#663931"/>
<path d="M126.581 77.3547H119.548V84.387H126.581V77.3547Z" fill="#663931"/>
<path d="M133.613 77.3547H126.581V84.387H133.613V77.3547Z" fill="#663931"/>
<path d="M140.645 77.3547H133.613V84.387H140.645V77.3547Z" fill="#663931"/>
<path d="M147.677 77.3547H140.645V84.387H147.677V77.3547Z" fill="#663931"/>
<path d="M154.71 77.3547H147.677V84.387H154.71V77.3547Z" fill="#663931"/>
<path d="M161.742 77.3547H154.71V84.387H161.742V77.3547Z" fill="#663931"/>
<path d="M168.774 77.3547H161.742V84.387H168.774V77.3547Z" fill="#663931"/>
<path d="M175.806 77.3547H168.774V84.387H175.806V77.3547Z" fill="#663931"/>
<path d="M182.839 77.3547H175.806V84.387H182.839V77.3547Z" fill="#663931"/>
<path d="M189.871 77.3547H182.839V84.387H189.871V77.3547Z" fill="#663931"/>
<path d="M196.903 77.3547H189.871V84.387H196.903V77.3547Z" fill="#D9A066"/>
<path d="M203.935 77.3547H196.903V84.387H203.935V77.3547Z" fill="#222034"/>
<path d="M21.0968 84.3872H14.0646V91.4195H21.0968V84.3872Z" fill="#222034"/>
<path d="M28.1291 84.3872H21.0968V91.4195H28.1291V84.3872Z" fill="#D9A066"/>
<path d="M35.1613 84.3872H28.129V91.4195H35.1613V84.3872Z" fill="#663931"/>
<path d="M42.1935 84.3872H35.1613V91.4195H42.1935V84.3872Z" fill="#663931"/>
<path d="M49.2259 84.3872H42.1936V91.4195H49.2259V84.3872Z" fill="#663931"/>
<path d="M56.2581 84.3872H49.2258V91.4195H56.2581V84.3872Z" fill="#663931"/>
<path d="M63.2903 84.3872H56.2581V91.4195H63.2903V84.3872Z" fill="#663931"/>
<path d="M70.3225 84.3872H63.2903V91.4195H70.3225V84.3872Z" fill="#663931"/>
<path d="M77.3549 84.3872H70.3226V91.4195H77.3549V84.3872Z" fill="#663931"/>
<path d="M84.3871 84.3872H77.3549V91.4195H84.3871V84.3872Z" fill="#663931"/>
<path d="M91.4193 84.3872H84.3871V91.4195H91.4193V84.3872Z" fill="#663931"/>
<path d="M98.4516 84.3872H91.4193V91.4195H98.4516V84.3872Z" fill="#663931"/>
<path d="M105.484 84.3872H98.4517V91.4195H105.484V84.3872Z" fill="#663931"/>
<path d="M112.516 84.3872H105.484V91.4195H112.516V84.3872Z" fill="#FFE027"/>
<path d="M119.548 84.3872H112.516V91.4195H119.548V84.3872Z" fill="#663931"/>
<path d="M126.581 84.3872H119.548V91.4195H126.581V84.3872Z" fill="#663931"/>
<path d="M133.613 84.3872H126.581V91.4195H133.613V84.3872Z" fill="#663931"/>
<path d="M140.645 84.3872H133.613V91.4195H140.645V84.3872Z" fill="#663931"/>
<path d="M147.677 84.3872H140.645V91.4195H147.677V84.3872Z" fill="#663931"/>
<path d="M154.71 84.3872H147.677V91.4195H154.71V84.3872Z" fill="#663931"/>
<path d="M161.742 84.3872H154.71V91.4195H161.742V84.3872Z" fill="#663931"/>
<path d="M168.774 84.3872H161.742V91.4195H168.774V84.3872Z" fill="#663931"/>
<path d="M175.806 84.3872H168.774V91.4195H175.806V84.3872Z" fill="#663931"/>
<path d="M182.839 84.3872H175.806V91.4195H182.839V84.3872Z" fill="#663931"/>
<path d="M189.871 84.3872H182.839V91.4195H189.871V84.3872Z" fill="#663931"/>
<path d="M196.903 84.3872H189.871V91.4195H196.903V84.3872Z" fill="#D9A066"/>
<path d="M203.935 84.3872H196.903V91.4195H203.935V84.3872Z" fill="#222034"/>
<path d="M21.0968 91.4194H14.0646V98.4517H21.0968V91.4194Z" fill="#222034"/>
<path d="M28.1291 91.4194H21.0968V98.4517H28.1291V91.4194Z" fill="#D9A066"/>
<path d="M35.1613 91.4194H28.129V98.4517H35.1613V91.4194Z" fill="#663931"/>
<path d="M42.1935 91.4194H35.1613V98.4517H42.1935V91.4194Z" fill="#663931"/>
<path d="M49.2259 91.4194H42.1936V98.4517H49.2259V91.4194Z" fill="#663931"/>
<path d="M56.2581 91.4194H49.2258V98.4517H56.2581V91.4194Z" fill="#663931"/>
<path d="M63.2903 91.4194H56.2581V98.4517H63.2903V91.4194Z" fill="#663931"/>
<path d="M70.3225 91.4194H63.2903V98.4517H70.3225V91.4194Z" fill="#663931"/>
<path d="M77.3549 91.4194H70.3226V98.4517H77.3549V91.4194Z" fill="#663931"/>
<path d="M84.3871 91.4194H77.3549V98.4517H84.3871V91.4194Z" fill="#663931"/>
<path d="M91.4193 91.4194H84.3871V98.4517H91.4193V91.4194Z" fill="#FFF4B0"/>
<path d="M98.4516 91.4194H91.4193V98.4517H98.4516V91.4194Z" fill="#FFE027"/>
<path d="M105.484 91.4194H98.4517V98.4517H105.484V91.4194Z" fill="#DF7126"/>
<path d="M112.516 91.4194H105.484V98.4517H112.516V91.4194Z" fill="#663931"/>
<path d="M119.548 91.4194H112.516V98.4517H119.548V91.4194Z" fill="#663931"/>
<path d="M126.581 91.4194H119.548V98.4517H126.581V91.4194Z" fill="#663931"/>
<path d="M133.613 91.4194H126.581V98.4517H133.613V91.4194Z" fill="#663931"/>
<path d="M140.645 91.4194H133.613V98.4517H140.645V91.4194Z" fill="#663931"/>
<path d="M147.677 91.4194H140.645V98.4517H147.677V91.4194Z" fill="#663931"/>
<path d="M154.71 91.4194H147.677V98.4517H154.71V91.4194Z" fill="#663931"/>
<path d="M161.742 91.4194H154.71V98.4517H161.742V91.4194Z" fill="#663931"/>
<path d="M168.774 91.4194H161.742V98.4517H168.774V91.4194Z" fill="#663931"/>
<path d="M175.806 91.4194H168.774V98.4517H175.806V91.4194Z" fill="#663931"/>
<path d="M182.839 91.4194H175.806V98.4517H182.839V91.4194Z" fill="#663931"/>
<path d="M189.871 91.4194H182.839V98.4517H189.871V91.4194Z" fill="#663931"/>
<path d="M196.903 91.4194H189.871V98.4517H196.903V91.4194Z" fill="#D9A066"/>
<path d="M203.935 91.4194H196.903V98.4517H203.935V91.4194Z" fill="#222034"/>
<path d="M21.0968 98.4517H14.0646V105.484H21.0968V98.4517Z" fill="#222034"/>
<path d="M28.1291 98.4517H21.0968V105.484H28.1291V98.4517Z" fill="#D9A066"/>
<path d="M35.1613 98.4517H28.129V105.484H35.1613V98.4517Z" fill="#FFE027"/>
<path d="M42.1935 98.4517H35.1613V105.484H42.1935V98.4517Z" fill="#663931"/>
<path d="M49.2259 98.4517H42.1936V105.484H49.2259V98.4517Z" fill="#663931"/>
<path d="M56.2581 98.4517H49.2258V105.484H56.2581V98.4517Z" fill="#FFF4B0"/>
<path d="M63.2903 98.4517H56.2581V105.484H63.2903V98.4517Z" fill="#FFE027"/>
<path d="M70.3225 98.4517H63.2903V105.484H70.3225V98.4517Z" fill="#DF7126"/>
<path d="M77.3549 98.4517H70.3226V105.484H77.3549V98.4517Z" fill="#663931"/>
<path d="M84.3871 98.4517H77.3549V105.484H84.3871V98.4517Z" fill="#FFE027"/>
<path d="M91.4193 98.4517H84.3871V105.484H91.4193V98.4517Z" fill="#FFE027"/>
<path d="M98.4516 98.4517H91.4193V105.484H98.4516V98.4517Z" fill="#FFE027"/>
<path d="M105.484 98.4517H98.4517V105.484H105.484V98.4517Z" fill="#FFE027"/>
<path d="M112.516 98.4517H105.484V105.484H112.516V98.4517Z" fill="#DF7126"/>
<path d="M119.548 98.4517H112.516V105.484H119.548V98.4517Z" fill="#663931"/>
<path d="M126.581 98.4517H119.548V105.484H126.581V98.4517Z" fill="#663931"/>
<path d="M133.613 98.4517H126.581V105.484H133.613V98.4517Z" fill="#663931"/>
<path d="M140.645 98.4517H133.613V105.484H140.645V98.4517Z" fill="#FFF4B0"/>
<path d="M147.677 98.4517H140.645V105.484H147.677V98.4517Z" fill="#FFE027"/>
<path d="M154.71 98.4517H147.677V105.484H154.71V98.4517Z" fill="#DF7126"/>
<path d="M161.742 98.4517H154.71V105.484H161.742V98.4517Z" fill="#663931"/>
<path d="M168.774 98.4517H161.742V105.484H168.774V98.4517Z" fill="#663931"/>
<path d="M175.806 98.4517H168.774V105.484H175.806V98.4517Z" fill="#FFE027"/>
<path d="M182.839 98.4517H175.806V105.484H182.839V98.4517Z" fill="#DF7126"/>
<path d="M189.871 98.4517H182.839V105.484H189.871V98.4517Z" fill="#663931"/>
<path d="M196.903 98.4517H189.871V105.484H196.903V98.4517Z" fill="#D9A066"/>
<path d="M203.935 98.4517H196.903V105.484H203.935V98.4517Z" fill="#222034"/>
<path d="M21.0968 105.484H14.0646V112.516H21.0968V105.484Z" fill="#222034"/>
<path d="M28.1291 105.484H21.0968V112.516H28.1291V105.484Z" fill="#D9A066"/>
<path d="M35.1613 105.484H28.129V112.516H35.1613V105.484Z" fill="#FFE027"/>
<path d="M42.1935 105.484H35.1613V112.516H42.1935V105.484Z" fill="#FFE027"/>
<path d="M49.2259 105.484H42.1936V112.516H49.2259V105.484Z" fill="#FFE027"/>
<path d="M56.2581 105.484H49.2258V112.516H56.2581V105.484Z" fill="#FFE027"/>
<path d="M63.2903 105.484H56.2581V112.516H63.2903V105.484Z" fill="#FFE027"/>
<path d="M70.3225 105.484H63.2903V112.516H70.3225V105.484Z" fill="#FFE027"/>
<path d="M77.3549 105.484H70.3226V112.516H77.3549V105.484Z" fill="#DF7126"/>
<path d="M84.3871 105.484H77.3549V112.516H84.3871V105.484Z" fill="#FFE027"/>
<path d="M91.4193 105.484H84.3871V112.516H91.4193V105.484Z" fill="#FFF4B0"/>
<path d="M98.4516 105.484H91.4193V112.516H98.4516V105.484Z" fill="#FFF4B0"/>
<path d="M105.484 105.484H98.4517V112.516H105.484V105.484Z" fill="#FFE027"/>
<path d="M112.516 105.484H105.484V112.516H112.516V105.484Z" fill="#DF7126"/>
<path d="M119.548 105.484H112.516V112.516H119.548V105.484Z" fill="#FFE027"/>
<path d="M126.581 105.484H119.548V112.516H126.581V105.484Z" fill="#663931"/>
<path d="M133.613 105.484H126.581V112.516H133.613V105.484Z" fill="#FFE027"/>
<path d="M140.645 105.484H133.613V112.516H140.645V105.484Z" fill="#FFE027"/>
<path d="M147.677 105.484H140.645V112.516H147.677V105.484Z" fill="#FFE027"/>
<path d="M154.71 105.484H147.677V112.516H154.71V105.484Z" fill="#FFE027"/>
<path d="M161.742 105.484H154.71V112.516H161.742V105.484Z" fill="#DF7126"/>
<path d="M168.774 105.484H161.742V112.516H168.774V105.484Z" fill="#FFE027"/>
<path d="M175.806 105.484H168.774V112.516H175.806V105.484Z" fill="#FFE027"/>
<path d="M182.839 105.484H175.806V112.516H182.839V105.484Z" fill="#FFE027"/>
<path d="M189.871 105.484H182.839V112.516H189.871V105.484Z" fill="#DF7126"/>
<path d="M196.903 105.484H189.871V112.516H196.903V105.484Z" fill="#D9A066"/>
<path d="M203.935 105.484H196.903V112.516H203.935V105.484Z" fill="#222034"/>
<path d="M21.0968 112.516H14.0646V119.548H21.0968V112.516Z" fill="#222034"/>
<path d="M28.1291 112.516H21.0968V119.548H28.1291V112.516Z" fill="#FFE027"/>
<path d="M35.1613 112.516H28.129V119.548H35.1613V112.516Z" fill="#D9A066"/>
<path d="M42.1935 112.516H35.1613V119.548H42.1935V112.516Z" fill="#D9A066"/>
<path d="M49.2259 112.516H42.1936V119.548H49.2259V112.516Z" fill="#D9A066"/>
<path d="M56.2581 112.516H49.2258V119.548H56.2581V112.516Z" fill="#D9A066"/>
<path d="M63.2903 112.516H56.2581V119.548H63.2903V112.516Z" fill="#D9A066"/>
<path d="M70.3225 112.516H63.2903V119.548H70.3225V112.516Z" fill="#D9A066"/>
<path d="M77.3549 112.516H70.3226V119.548H77.3549V112.516Z" fill="#D9A066"/>
<path d="M84.3871 112.516H77.3549V119.548H84.3871V112.516Z" fill="#D9A066"/>
<path d="M91.4193 112.516H84.3871V119.548H91.4193V112.516Z" fill="#D9A066"/>
<path d="M98.4516 112.516H91.4193V119.548H98.4516V112.516Z" fill="#D9A066"/>
<path d="M105.484 112.516H98.4517V119.548H105.484V112.516Z" fill="#D9A066"/>
<path d="M112.516 112.516H105.484V119.548H112.516V112.516Z" fill="#D9A066"/>
<path d="M119.548 112.516H112.516V119.548H119.548V112.516Z" fill="#D9A066"/>
<path d="M126.581 112.516H119.548V119.548H126.581V112.516Z" fill="#D9A066"/>
<path d="M133.613 112.516H126.581V119.548H133.613V112.516Z" fill="#D9A066"/>
<path d="M140.645 112.516H133.613V119.548H140.645V112.516Z" fill="#D9A066"/>
<path d="M147.677 112.516H140.645V119.548H147.677V112.516Z" fill="#D9A066"/>
<path d="M154.71 112.516H147.677V119.548H154.71V112.516Z" fill="#D9A066"/>
<path d="M161.742 112.516H154.71V119.548H161.742V112.516Z" fill="#D9A066"/>
<path d="M168.774 112.516H161.742V119.548H168.774V112.516Z" fill="#D9A066"/>
<path d="M175.806 112.516H168.774V119.548H175.806V112.516Z" fill="#D9A066"/>
<path d="M182.839 112.516H175.806V119.548H182.839V112.516Z" fill="#D9A066"/>
<path d="M189.871 112.516H182.839V119.548H189.871V112.516Z" fill="#D9A066"/>
<path d="M196.903 112.516H189.871V119.548H196.903V112.516Z" fill="#FFE027"/>
<path d="M203.935 112.516H196.903V119.548H203.935V112.516Z" fill="#222034"/>
<path d="M14.0645 119.548H7.03223V126.581H14.0645V119.548Z" fill="#222034"/>
<path d="M21.0968 119.548H14.0646V126.581H21.0968V119.548Z" fill="#FFE861"/>
<path d="M28.1291 119.548H21.0968V126.581H28.1291V119.548Z" fill="#FFE027"/>
<path d="M35.1613 119.548H28.129V126.581H35.1613V119.548Z" fill="#FFE027"/>
<path d="M42.1935 119.548H35.1613V126.581H42.1935V119.548Z" fill="#FFE027"/>
<path d="M49.2259 119.548H42.1936V126.581H49.2259V119.548Z" fill="#FFE027"/>
<path d="M56.2581 119.548H49.2258V126.581H56.2581V119.548Z" fill="#FFE027"/>
<path d="M63.2903 119.548H56.2581V126.581H63.2903V119.548Z" fill="#FFE027"/>
<path d="M70.3225 119.548H63.2903V126.581H70.3225V119.548Z" fill="#FFE027"/>
<path d="M77.3549 119.548H70.3226V126.581H77.3549V119.548Z" fill="#FFE027"/>
<path d="M84.3871 119.548H77.3549V126.581H84.3871V119.548Z" fill="#FFE027"/>
<path d="M91.4193 119.548H84.3871V126.581H91.4193V119.548Z" fill="#FFE027"/>
<path d="M98.4516 119.548H91.4193V126.581H98.4516V119.548Z" fill="#FFE027"/>
<path d="M105.484 119.548H98.4517V126.581H105.484V119.548Z" fill="#FFE027"/>
<path d="M112.516 119.548H105.484V126.581H112.516V119.548Z" fill="#FFE027"/>
<path d="M119.548 119.548H112.516V126.581H119.548V119.548Z" fill="#FFE027"/>
<path d="M126.581 119.548H119.548V126.581H126.581V119.548Z" fill="#FFE027"/>
<path d="M133.613 119.548H126.581V126.581H133.613V119.548Z" fill="#FFE027"/>
<path d="M140.645 119.548H133.613V126.581H140.645V119.548Z" fill="#FFE027"/>
<path d="M147.677 119.548H140.645V126.581H147.677V119.548Z" fill="#FFE027"/>
<path d="M154.71 119.548H147.677V126.581H154.71V119.548Z" fill="#FFE027"/>
<path d="M161.742 119.548H154.71V126.581H161.742V119.548Z" fill="#FFE027"/>
<path d="M168.774 119.548H161.742V126.581H168.774V119.548Z" fill="#FFE027"/>
<path d="M175.806 119.548H168.774V126.581H175.806V119.548Z" fill="#FFE027"/>
<path d="M182.839 119.548H175.806V126.581H182.839V119.548Z" fill="#FFE027"/>
<path d="M189.871 119.548H182.839V126.581H189.871V119.548Z" fill="#FFE027"/>
<path d="M196.903 119.548H189.871V126.581H196.903V119.548Z" fill="#FFE027"/>
<path d="M203.935 119.548H196.903V126.581H203.935V119.548Z" fill="#FFE861"/>
<path d="M210.968 119.548H203.936V126.581H210.968V119.548Z" fill="#222034"/>
<path d="M21.0968 126.581H14.0646V133.613H21.0968V126.581Z" fill="#222034"/>
<path d="M28.1291 126.581H21.0968V133.613H28.1291V126.581Z" fill="#FFE027"/>
<path d="M35.1613 126.581H28.129V133.613H35.1613V126.581Z" fill="#D9A066"/>
<path d="M42.1935 126.581H35.1613V133.613H42.1935V126.581Z" fill="#D9A066"/>
<path d="M49.2259 126.581H42.1936V133.613H49.2259V126.581Z" fill="#D9A066"/>
<path d="M56.2581 126.581H49.2258V133.613H56.2581V126.581Z" fill="#D9A066"/>
<path d="M63.2903 126.581H56.2581V133.613H63.2903V126.581Z" fill="#D9A066"/>
<path d="M70.3225 126.581H63.2903V133.613H70.3225V126.581Z" fill="#D9A066"/>
<path d="M77.3549 126.581H70.3226V133.613H77.3549V126.581Z" fill="#D9A066"/>
<path d="M84.3871 126.581H77.3549V133.613H84.3871V126.581Z" fill="#D9A066"/>
<path d="M91.4193 126.581H84.3871V133.613H91.4193V126.581Z" fill="#D9A066"/>
<path d="M98.4516 126.581H91.4193V133.613H98.4516V126.581Z" fill="#D9A066"/>
<path d="M105.484 126.581H98.4517V133.613H105.484V126.581Z" fill="#D9A066"/>
<path d="M112.516 126.581H105.484V133.613H112.516V126.581Z" fill="#D9A066"/>
<path d="M119.548 126.581H112.516V133.613H119.548V126.581Z" fill="#D9A066"/>
<path d="M126.581 126.581H119.548V133.613H126.581V126.581Z" fill="#D9A066"/>
<path d="M133.613 126.581H126.581V133.613H133.613V126.581Z" fill="#D9A066"/>
<path d="M140.645 126.581H133.613V133.613H140.645V126.581Z" fill="#D9A066"/>
<path d="M147.677 126.581H140.645V133.613H147.677V126.581Z" fill="#D9A066"/>
<path d="M154.71 126.581H147.677V133.613H154.71V126.581Z" fill="#D9A066"/>
<path d="M161.742 126.581H154.71V133.613H161.742V126.581Z" fill="#D9A066"/>
<path d="M168.774 126.581H161.742V133.613H168.774V126.581Z" fill="#D9A066"/>
<path d="M175.806 126.581H168.774V133.613H175.806V126.581Z" fill="#D9A066"/>
<path d="M182.839 126.581H175.806V133.613H182.839V126.581Z" fill="#D9A066"/>
<path d="M189.871 126.581H182.839V133.613H189.871V126.581Z" fill="#D9A066"/>
<path d="M196.903 126.581H189.871V133.613H196.903V126.581Z" fill="#FFE027"/>
<path d="M203.935 126.581H196.903V133.613H203.935V126.581Z" fill="#222034"/>
<path d="M21.0968 133.613H14.0646V140.645H21.0968V133.613Z" fill="#222034"/>
<path d="M28.1291 133.613H21.0968V140.645H28.1291V133.613Z" fill="#D9A066"/>
<path d="M35.1613 133.613H28.129V140.645H35.1613V133.613Z" fill="#8F563B"/>
<path d="M42.1935 133.613H35.1613V140.645H42.1935V133.613Z" fill="#8F563B"/>
<path d="M49.2259 133.613H42.1936V140.645H49.2259V133.613Z" fill="#8F563B"/>
<path d="M56.2581 133.613H49.2258V140.645H56.2581V133.613Z" fill="#8F563B"/>
<path d="M63.2903 133.613H56.2581V140.645H63.2903V133.613Z" fill="#8F563B"/>
<path d="M70.3225 133.613H63.2903V140.645H70.3225V133.613Z" fill="#8F563B"/>
<path d="M77.3549 133.613H70.3226V140.645H77.3549V133.613Z" fill="#8F563B"/>
<path d="M84.3871 133.613H77.3549V140.645H84.3871V133.613Z" fill="#8F563B"/>
<path d="M91.4193 133.613H84.3871V140.645H91.4193V133.613Z" fill="#8F563B"/>
<path d="M98.4516 133.613H91.4193V140.645H98.4516V133.613Z" fill="#8F563B"/>
<path d="M105.484 133.613H98.4517V140.645H105.484V133.613Z" fill="#663931"/>
<path d="M112.516 133.613H105.484V140.645H112.516V133.613Z" fill="#663931"/>
<path d="M119.548 133.613H112.516V140.645H119.548V133.613Z" fill="#663931"/>
<path d="M126.581 133.613H119.548V140.645H126.581V133.613Z" fill="#8F563B"/>
<path d="M133.613 133.613H126.581V140.645H133.613V133.613Z" fill="#8F563B"/>
<path d="M140.645 133.613H133.613V140.645H140.645V133.613Z" fill="#8F563B"/>
<path d="M147.677 133.613H140.645V140.645H147.677V133.613Z" fill="#8F563B"/>
<path d="M154.71 133.613H147.677V140.645H154.71V133.613Z" fill="#8F563B"/>
<path d="M161.742 133.613H154.71V140.645H161.742V133.613Z" fill="#8F563B"/>
<path d="M168.774 133.613H161.742V140.645H168.774V133.613Z" fill="#8F563B"/>
<path d="M175.806 133.613H168.774V140.645H175.806V133.613Z" fill="#8F563B"/>
<path d="M182.839 133.613H175.806V140.645H182.839V133.613Z" fill="#8F563B"/>
<path d="M189.871 133.613H182.839V140.645H189.871V133.613Z" fill="#8F563B"/>
<path d="M196.903 133.613H189.871V140.645H196.903V133.613Z" fill="#D9A066"/>
<path d="M203.935 133.613H196.903V140.645H203.935V133.613Z" fill="#222034"/>
<path d="M21.0968 140.645H14.0646V147.678H21.0968V140.645Z" fill="#222034"/>
<path d="M28.1291 140.645H21.0968V147.678H28.1291V140.645Z" fill="#D9A066"/>
<path d="M35.1613 140.645H28.129V147.678H35.1613V140.645Z" fill="#8F563B"/>
<path d="M42.1935 140.645H35.1613V147.678H42.1935V140.645Z" fill="#8F563B"/>
<path d="M49.2259 140.645H42.1936V147.678H49.2259V140.645Z" fill="#8F563B"/>
<path d="M56.2581 140.645H49.2258V147.678H56.2581V140.645Z" fill="#8F563B"/>
<path d="M63.2903 140.645H56.2581V147.678H63.2903V140.645Z" fill="#8F563B"/>
<path d="M70.3225 140.645H63.2903V147.678H70.3225V140.645Z" fill="#8F563B"/>
<path d="M77.3549 140.645H70.3226V147.678H77.3549V140.645Z" fill="#8F563B"/>
<path d="M84.3871 140.645H77.3549V147.678H84.3871V140.645Z" fill="#8F563B"/>
<path d="M91.4193 140.645H84.3871V147.678H91.4193V140.645Z" fill="#8F563B"/>
<path d="M98.4516 140.645H91.4193V147.678H98.4516V140.645Z" fill="#8F563B"/>
<path d="M105.484 140.645H98.4517V147.678H105.484V140.645Z" fill="#663931"/>
<path d="M112.516 140.645H105.484V147.678H112.516V140.645Z" fill="#222034"/>
<path d="M119.548 140.645H112.516V147.678H119.548V140.645Z" fill="#663931"/>
<path d="M126.581 140.645H119.548V147.678H126.581V140.645Z" fill="#8F563B"/>
<path d="M133.613 140.645H126.581V147.678H133.613V140.645Z" fill="#8F563B"/>
<path d="M140.645 140.645H133.613V147.678H140.645V140.645Z" fill="#8F563B"/>
<path d="M147.677 140.645H140.645V147.678H147.677V140.645Z" fill="#8F563B"/>
<path d="M154.71 140.645H147.677V147.678H154.71V140.645Z" fill="#8F563B"/>
<path d="M161.742 140.645H154.71V147.678H161.742V140.645Z" fill="#8F563B"/>
<path d="M168.774 140.645H161.742V147.678H168.774V140.645Z" fill="#8F563B"/>
<path d="M175.806 140.645H168.774V147.678H175.806V140.645Z" fill="#8F563B"/>
<path d="M182.839 140.645H175.806V147.678H182.839V140.645Z" fill="#8F563B"/>
<path d="M189.871 140.645H182.839V147.678H189.871V140.645Z" fill="#8F563B"/>
<path d="M196.903 140.645H189.871V147.678H196.903V140.645Z" fill="#D9A066"/>
<path d="M203.935 140.645H196.903V147.678H203.935V140.645Z" fill="#222034"/>
<path d="M21.0968 147.677H14.0646V154.71H21.0968V147.677Z" fill="#222034"/>
<path d="M28.1291 147.677H21.0968V154.71H28.1291V147.677Z" fill="#663931"/>
<path d="M35.1613 147.677H28.129V154.71H35.1613V147.677Z" fill="#663931"/>
<path d="M42.1935 147.677H35.1613V154.71H42.1935V147.677Z" fill="#663931"/>
<path d="M49.2259 147.677H42.1936V154.71H49.2259V147.677Z" fill="#663931"/>
<path d="M56.2581 147.677H49.2258V154.71H56.2581V147.677Z" fill="#663931"/>
<path d="M63.2903 147.677H56.2581V154.71H63.2903V147.677Z" fill="#663931"/>
<path d="M70.3225 147.677H63.2903V154.71H70.3225V147.677Z" fill="#663931"/>
<path d="M77.3549 147.677H70.3226V154.71H77.3549V147.677Z" fill="#663931"/>
<path d="M84.3871 147.677H77.3549V154.71H84.3871V147.677Z" fill="#663931"/>
<path d="M91.4193 147.677H84.3871V154.71H91.4193V147.677Z" fill="#663931"/>
<path d="M98.4516 147.677H91.4193V154.71H98.4516V147.677Z" fill="#663931"/>
<path d="M105.484 147.677H98.4517V154.71H105.484V147.677Z" fill="#663931"/>
<path d="M112.516 147.677H105.484V154.71H112.516V147.677Z" fill="#222034"/>
<path d="M119.548 147.677H112.516V154.71H119.548V147.677Z" fill="#663931"/>
<path d="M126.581 147.677H119.548V154.71H126.581V147.677Z" fill="#663931"/>
<path d="M133.613 147.677H126.581V154.71H133.613V147.677Z" fill="#663931"/>
<path d="M140.645 147.677H133.613V154.71H140.645V147.677Z" fill="#663931"/>
<path d="M147.677 147.677H140.645V154.71H147.677V147.677Z" fill="#663931"/>
<path d="M154.71 147.677H147.677V154.71H154.71V147.677Z" fill="#663931"/>
<path d="M161.742 147.677H154.71V154.71H161.742V147.677Z" fill="#663931"/>
<path d="M168.774 147.677H161.742V154.71H168.774V147.677Z" fill="#663931"/>
<path d="M175.806 147.677H168.774V154.71H175.806V147.677Z" fill="#663931"/>
<path d="M182.839 147.677H175.806V154.71H182.839V147.677Z" fill="#663931"/>
<path d="M189.871 147.677H182.839V154.71H189.871V147.677Z" fill="#663931"/>
<path d="M196.903 147.677H189.871V154.71H196.903V147.677Z" fill="#663931"/>
<path d="M203.935 147.677H196.903V154.71H203.935V147.677Z" fill="#222034"/>
<path d="M21.0968 154.71H14.0646V161.742H21.0968V154.71Z" fill="#222034"/>
<path d="M28.1291 154.71H21.0968V161.742H28.1291V154.71Z" fill="#D9A066"/>
<path d="M35.1613 154.71H28.129V161.742H35.1613V154.71Z" fill="#8F563B"/>
<path d="M42.1935 154.71H35.1613V161.742H42.1935V154.71Z" fill="#8F563B"/>
<path d="M49.2259 154.71H42.1936V161.742H49.2259V154.71Z" fill="#8F563B"/>
<path d="M56.2581 154.71H49.2258V161.742H56.2581V154.71Z" fill="#8F563B"/>
<path d="M63.2903 154.71H56.2581V161.742H63.2903V154.71Z" fill="#8F563B"/>
<path d="M70.3225 154.71H63.2903V161.742H70.3225V154.71Z" fill="#8F563B"/>
<path d="M77.3549 154.71H70.3226V161.742H77.3549V154.71Z" fill="#8F563B"/>
<path d="M84.3871 154.71H77.3549V161.742H84.3871V154.71Z" fill="#8F563B"/>
<path d="M91.4193 154.71H84.3871V161.742H91.4193V154.71Z" fill="#8F563B"/>
<path d="M98.4516 154.71H91.4193V161.742H98.4516V154.71Z" fill="#8F563B"/>
<path d="M105.484 154.71H98.4517V161.742H105.484V154.71Z" fill="#663931"/>
<path d="M112.516 154.71H105.484V161.742H112.516V154.71Z" fill="#222034"/>
<path d="M119.548 154.71H112.516V161.742H119.548V154.71Z" fill="#663931"/>
<path d="M126.581 154.71H119.548V161.742H126.581V154.71Z" fill="#8F563B"/>
<path d="M133.613 154.71H126.581V161.742H133.613V154.71Z" fill="#8F563B"/>
<path d="M140.645 154.71H133.613V161.742H140.645V154.71Z" fill="#8F563B"/>
<path d="M147.677 154.71H140.645V161.742H147.677V154.71Z" fill="#8F563B"/>
<path d="M154.71 154.71H147.677V161.742H154.71V154.71Z" fill="#8F563B"/>
<path d="M161.742 154.71H154.71V161.742H161.742V154.71Z" fill="#8F563B"/>
<path d="M168.774 154.71H161.742V161.742H168.774V154.71Z" fill="#8F563B"/>
<path d="M175.806 154.71H168.774V161.742H175.806V154.71Z" fill="#8F563B"/>
<path d="M182.839 154.71H175.806V161.742H182.839V154.71Z" fill="#8F563B"/>
<path d="M189.871 154.71H182.839V161.742H189.871V154.71Z" fill="#8F563B"/>
<path d="M196.903 154.71H189.871V161.742H196.903V154.71Z" fill="#D9A066"/>
<path d="M203.935 154.71H196.903V161.742H203.935V154.71Z" fill="#222034"/>
<path d="M21.0968 161.742H14.0646V168.774H21.0968V161.742Z" fill="#222034"/>
<path d="M28.1291 161.742H21.0968V168.774H28.1291V161.742Z" fill="#D9A066"/>
<path d="M35.1613 161.742H28.129V168.774H35.1613V161.742Z" fill="#8F563B"/>
<path d="M42.1935 161.742H35.1613V168.774H42.1935V161.742Z" fill="#8F563B"/>
<path d="M49.2259 161.742H42.1936V168.774H49.2259V161.742Z" fill="#8F563B"/>
<path d="M56.2581 161.742H49.2258V168.774H56.2581V161.742Z" fill="#8F563B"/>
<path d="M63.2903 161.742H56.2581V168.774H63.2903V161.742Z" fill="#8F563B"/>
<path d="M70.3225 161.742H63.2903V168.774H70.3225V161.742Z" fill="#8F563B"/>
<path d="M77.3549 161.742H70.3226V168.774H77.3549V161.742Z" fill="#8F563B"/>
<path d="M84.3871 161.742H77.3549V168.774H84.3871V161.742Z" fill="#8F563B"/>
<path d="M91.4193 161.742H84.3871V168.774H91.4193V161.742Z" fill="#8F563B"/>
<path d="M98.4516 161.742H91.4193V168.774H98.4516V161.742Z" fill="#8F563B"/>
<path d="M105.484 161.742H98.4517V168.774H105.484V161.742Z" fill="#663931"/>
<path d="M112.516 161.742H105.484V168.774H112.516V161.742Z" fill="#663931"/>
<path d="M119.548 161.742H112.516V168.774H119.548V161.742Z" fill="#663931"/>
<path d="M126.581 161.742H119.548V168.774H126.581V161.742Z" fill="#8F563B"/>
<path d="M133.613 161.742H126.581V168.774H133.613V161.742Z" fill="#8F563B"/>
<path d="M140.645 161.742H133.613V168.774H140.645V161.742Z" fill="#8F563B"/>
<path d="M147.677 161.742H140.645V168.774H147.677V161.742Z" fill="#8F563B"/>
<path d="M154.71 161.742H147.677V168.774H154.71V161.742Z" fill="#8F563B"/>
<path d="M161.742 161.742H154.71V168.774H161.742V161.742Z" fill="#8F563B"/>
<path d="M168.774 161.742H161.742V168.774H168.774V161.742Z" fill="#8F563B"/>
<path d="M175.806 161.742H168.774V168.774H175.806V161.742Z" fill="#8F563B"/>
<path d="M182.839 161.742H175.806V168.774H182.839V161.742Z" fill="#8F563B"/>
<path d="M189.871 161.742H182.839V168.774H189.871V161.742Z" fill="#8F563B"/>
<path d="M196.903 161.742H189.871V168.774H196.903V161.742Z" fill="#D9A066"/>
<path d="M203.935 161.742H196.903V168.774H203.935V161.742Z" fill="#222034"/>
<path d="M21.0968 168.774H14.0646V175.806H21.0968V168.774Z" fill="#222034"/>
<path d="M28.1291 168.774H21.0968V175.806H28.1291V168.774Z" fill="#663931"/>
<path d="M35.1613 168.774H28.129V175.806H35.1613V168.774Z" fill="#663931"/>
<path d="M42.1935 168.774H35.1613V175.806H42.1935V168.774Z" fill="#663931"/>
<path d="M49.2259 168.774H42.1936V175.806H49.2259V168.774Z" fill="#663931"/>
<path d="M56.2581 168.774H49.2258V175.806H56.2581V168.774Z" fill="#663931"/>
<path d="M63.2903 168.774H56.2581V175.806H63.2903V168.774Z" fill="#663931"/>
<path d="M70.3225 168.774H63.2903V175.806H70.3225V168.774Z" fill="#663931"/>
<path d="M77.3549 168.774H70.3226V175.806H77.3549V168.774Z" fill="#663931"/>
<path d="M84.3871 168.774H77.3549V175.806H84.3871V168.774Z" fill="#663931"/>
<path d="M91.4193 168.774H84.3871V175.806H91.4193V168.774Z" fill="#663931"/>
<path d="M98.4516 168.774H91.4193V175.806H98.4516V168.774Z" fill="#663931"/>
<path d="M105.484 168.774H98.4517V175.806H105.484V168.774Z" fill="#663931"/>
<path d="M112.516 168.774H105.484V175.806H112.516V168.774Z" fill="#663931"/>
<path d="M119.548 168.774H112.516V175.806H119.548V168.774Z" fill="#663931"/>
<path d="M126.581 168.774H119.548V175.806H126.581V168.774Z" fill="#663931"/>
<path d="M133.613 168.774H126.581V175.806H133.613V168.774Z" fill="#663931"/>
<path d="M140.645 168.774H133.613V175.806H140.645V168.774Z" fill="#663931"/>
<path d="M147.677 168.774H140.645V175.806H147.677V168.774Z" fill="#663931"/>
<path d="M154.71 168.774H147.677V175.806H154.71V168.774Z" fill="#663931"/>
<path d="M161.742 168.774H154.71V175.806H161.742V168.774Z" fill="#663931"/>
<path d="M168.774 168.774H161.742V175.806H168.774V168.774Z" fill="#663931"/>
<path d="M175.806 168.774H168.774V175.806H175.806V168.774Z" fill="#663931"/>
<path d="M182.839 168.774H175.806V175.806H182.839V168.774Z" fill="#663931"/>
<path d="M189.871 168.774H182.839V175.806H189.871V168.774Z" fill="#663931"/>
<path d="M196.903 168.774H189.871V175.806H196.903V168.774Z" fill="#663931"/>
<path d="M203.935 168.774H196.903V175.806H203.935V168.774Z" fill="#222034"/>
<path d="M21.0968 175.806H14.0646V182.839H21.0968V175.806Z" fill="#222034"/>
<path d="M28.1291 175.806H21.0968V182.839H28.1291V175.806Z" fill="#D9A066"/>
<path d="M35.1613 175.806H28.129V182.839H35.1613V175.806Z" fill="#8F563B"/>
<path d="M42.1935 175.806H35.1613V182.839H42.1935V175.806Z" fill="#8F563B"/>
<path d="M49.2259 175.806H42.1936V182.839H49.2259V175.806Z" fill="#8F563B"/>
<path d="M56.2581 175.806H49.2258V182.839H56.2581V175.806Z" fill="#8F563B"/>
<path d="M63.2903 175.806H56.2581V182.839H63.2903V175.806Z" fill="#8F563B"/>
<path d="M70.3225 175.806H63.2903V182.839H70.3225V175.806Z" fill="#8F563B"/>
<path d="M77.3549 175.806H70.3226V182.839H77.3549V175.806Z" fill="#8F563B"/>
<path d="M84.3871 175.806H77.3549V182.839H84.3871V175.806Z" fill="#8F563B"/>
<path d="M91.4193 175.806H84.3871V182.839H91.4193V175.806Z" fill="#8F563B"/>
<path d="M98.4516 175.806H91.4193V182.839H98.4516V175.806Z" fill="#8F563B"/>
<path d="M105.484 175.806H98.4517V182.839H105.484V175.806Z" fill="#8F563B"/>
<path d="M112.516 175.806H105.484V182.839H112.516V175.806Z" fill="#8F563B"/>
<path d="M119.548 175.806H112.516V182.839H119.548V175.806Z" fill="#8F563B"/>
<path d="M126.581 175.806H119.548V182.839H126.581V175.806Z" fill="#8F563B"/>
<path d="M133.613 175.806H126.581V182.839H133.613V175.806Z" fill="#8F563B"/>
<path d="M140.645 175.806H133.613V182.839H140.645V175.806Z" fill="#8F563B"/>
<path d="M147.677 175.806H140.645V182.839H147.677V175.806Z" fill="#8F563B"/>
<path d="M154.71 175.806H147.677V182.839H154.71V175.806Z" fill="#8F563B"/>
<path d="M161.742 175.806H154.71V182.839H161.742V175.806Z" fill="#8F563B"/>
<path d="M168.774 175.806H161.742V182.839H168.774V175.806Z" fill="#8F563B"/>
<path d="M175.806 175.806H168.774V182.839H175.806V175.806Z" fill="#8F563B"/>
<path d="M182.839 175.806H175.806V182.839H182.839V175.806Z" fill="#8F563B"/>
<path d="M189.871 175.806H182.839V182.839H189.871V175.806Z" fill="#8F563B"/>
<path d="M196.903 175.806H189.871V182.839H196.903V175.806Z" fill="#D9A066"/>
<path d="M203.935 175.806H196.903V182.839H203.935V175.806Z" fill="#222034"/>
<path d="M21.0968 182.839H14.0646V189.871H21.0968V182.839Z" fill="#222034"/>
<path d="M28.1291 182.839H21.0968V189.871H28.1291V182.839Z" fill="#D9A066"/>
<path d="M35.1613 182.839H28.129V189.871H35.1613V182.839Z" fill="#8F563B"/>
<path d="M42.1935 182.839H35.1613V189.871H42.1935V182.839Z" fill="#8F563B"/>
<path d="M49.2259 182.839H42.1936V189.871H49.2259V182.839Z" fill="#8F563B"/>
<path d="M56.2581 182.839H49.2258V189.871H56.2581V182.839Z" fill="#8F563B"/>
<path d="M63.2903 182.839H56.2581V189.871H63.2903V182.839Z" fill="#8F563B"/>
<path d="M70.3225 182.839H63.2903V189.871H70.3225V182.839Z" fill="#8F563B"/>
<path d="M77.3549 182.839H70.3226V189.871H77.3549V182.839Z" fill="#8F563B"/>
<path d="M84.3871 182.839H77.3549V189.871H84.3871V182.839Z" fill="#8F563B"/>
<path d="M91.4193 182.839H84.3871V189.871H91.4193V182.839Z" fill="#8F563B"/>
<path d="M98.4516 182.839H91.4193V189.871H98.4516V182.839Z" fill="#8F563B"/>
<path d="M105.484 182.839H98.4517V189.871H105.484V182.839Z" fill="#8F563B"/>
<path d="M112.516 182.839H105.484V189.871H112.516V182.839Z" fill="#8F563B"/>
<path d="M119.548 182.839H112.516V189.871H119.548V182.839Z" fill="#8F563B"/>
<path d="M126.581 182.839H119.548V189.871H126.581V182.839Z" fill="#8F563B"/>
<path d="M133.613 182.839H126.581V189.871H133.613V182.839Z" fill="#8F563B"/>
<path d="M140.645 182.839H133.613V189.871H140.645V182.839Z" fill="#8F563B"/>
<path d="M147.677 182.839H140.645V189.871H147.677V182.839Z" fill="#8F563B"/>
<path d="M154.71 182.839H147.677V189.871H154.71V182.839Z" fill="#8F563B"/>
<path d="M161.742 182.839H154.71V189.871H161.742V182.839Z" fill="#8F563B"/>
<path d="M168.774 182.839H161.742V189.871H168.774V182.839Z" fill="#8F563B"/>
<path d="M175.806 182.839H168.774V189.871H175.806V182.839Z" fill="#8F563B"/>
<path d="M182.839 182.839H175.806V189.871H182.839V182.839Z" fill="#8F563B"/>
<path d="M189.871 182.839H182.839V189.871H189.871V182.839Z" fill="#8F563B"/>
<path d="M196.903 182.839H189.871V189.871H196.903V182.839Z" fill="#D9A066"/>
<path d="M203.935 182.839H196.903V189.871H203.935V182.839Z" fill="#222034"/>
<path d="M21.0968 189.871H14.0646V196.903H21.0968V189.871Z" fill="#222034"/>
<path d="M28.1291 189.871H21.0968V196.903H28.1291V189.871Z" fill="#222034"/>
<path d="M35.1613 189.871H28.129V196.903H35.1613V189.871Z" fill="#45283C"/>
<path d="M42.1935 189.871H35.1613V196.903H42.1935V189.871Z" fill="#45283C"/>
<path d="M49.2259 189.871H42.1936V196.903H49.2259V189.871Z" fill="#45283C"/>
<path d="M56.2581 189.871H49.2258V196.903H56.2581V189.871Z" fill="#45283C"/>
<path d="M63.2903 189.871H56.2581V196.903H63.2903V189.871Z" fill="#45283C"/>
<path d="M70.3225 189.871H63.2903V196.903H70.3225V189.871Z" fill="#45283C"/>
<path d="M77.3549 189.871H70.3226V196.903H77.3549V189.871Z" fill="#45283C"/>
<path d="M84.3871 189.871H77.3549V196.903H84.3871V189.871Z" fill="#45283C"/>
<path d="M91.4193 189.871H84.3871V196.903H91.4193V189.871Z" fill="#45283C"/>
<path d="M98.4516 189.871H91.4193V196.903H98.4516V189.871Z" fill="#45283C"/>
<path d="M105.484 189.871H98.4517V196.903H105.484V189.871Z" fill="#45283C"/>
<path d="M112.516 189.871H105.484V196.903H112.516V189.871Z" fill="#45283C"/>
<path d="M119.548 189.871H112.516V196.903H119.548V189.871Z" fill="#45283C"/>
<path d="M126.581 189.871H119.548V196.903H126.581V189.871Z" fill="#45283C"/>
<path d="M133.613 189.871H126.581V196.903H133.613V189.871Z" fill="#45283C"/>
<path d="M140.645 189.871H133.613V196.903H140.645V189.871Z" fill="#45283C"/>
<path d="M147.677 189.871H140.645V196.903H147.677V189.871Z" fill="#45283C"/>
<path d="M154.71 189.871H147.677V196.903H154.71V189.871Z" fill="#45283C"/>
<path d="M161.742 189.871H154.71V196.903H161.742V189.871Z" fill="#45283C"/>
<path d="M168.774 189.871H161.742V196.903H168.774V189.871Z" fill="#45283C"/>
<path d="M175.806 189.871H168.774V196.903H175.806V189.871Z" fill="#45283C"/>
<path d="M182.839 189.871H175.806V196.903H182.839V189.871Z" fill="#45283C"/>
<path d="M189.871 189.871H182.839V196.903H189.871V189.871Z" fill="#45283C"/>
<path d="M196.903 189.871H189.871V196.903H196.903V189.871Z" fill="#222034"/>
<path d="M203.935 189.871H196.903V196.903H203.935V189.871Z" fill="#222034"/>
<path d="M21.0968 196.903H14.0646V203.936H21.0968V196.903Z" fill="#222034"/>
<path d="M28.1291 196.903H21.0968V203.936H28.1291V196.903Z" fill="#222034"/>
<path d="M35.1613 196.903H28.129V203.936H35.1613V196.903Z" fill="#FFE027"/>
<path d="M42.1935 196.903H35.1613V203.936H42.1935V196.903Z" fill="#8A6F30"/>
<path d="M49.2259 196.903H42.1936V203.936H49.2259V196.903Z" fill="#8A6F30"/>
<path d="M56.2581 196.903H49.2258V203.936H56.2581V196.903Z" fill="#222034"/>
<path d="M63.2903 196.903H56.2581V203.936H63.2903V196.903Z" fill="#222034"/>
<path d="M70.3225 196.903H63.2903V203.936H70.3225V196.903Z" fill="#222034"/>
<path d="M77.3549 196.903H70.3226V203.936H77.3549V196.903Z" fill="#222034"/>
<path d="M84.3871 196.903H77.3549V203.936H84.3871V196.903Z" fill="#222034"/>
<path d="M91.4193 196.903H84.3871V203.936H91.4193V196.903Z" fill="#222034"/>
<path d="M98.4516 196.903H91.4193V203.936H98.4516V196.903Z" fill="#222034"/>
<path d="M105.484 196.903H98.4517V203.936H105.484V196.903Z" fill="#222034"/>
<path d="M112.516 196.903H105.484V203.936H112.516V196.903Z" fill="#222034"/>
<path d="M119.548 196.903H112.516V203.936H119.548V196.903Z" fill="#222034"/>
<path d="M126.581 196.903H119.548V203.936H126.581V196.903Z" fill="#222034"/>
<path d="M133.613 196.903H126.581V203.936H133.613V196.903Z" fill="#222034"/>
<path d="M140.645 196.903H133.613V203.936H140.645V196.903Z" fill="#222034"/>
<path d="M147.677 196.903H140.645V203.936H147.677V196.903Z" fill="#222034"/>
<path d="M154.71 196.903H147.677V203.936H154.71V196.903Z" fill="#222034"/>
<path d="M161.742 196.903H154.71V203.936H161.742V196.903Z" fill="#222034"/>
<path d="M168.774 196.903H161.742V203.936H168.774V196.903Z" fill="#222034"/>
<path d="M175.806 196.903H168.774V203.936H175.806V196.903Z" fill="#8A6F30"/>
<path d="M182.839 196.903H175.806V203.936H182.839V196.903Z" fill="#8A6F30"/>
<path d="M189.871 196.903H182.839V203.936H189.871V196.903Z" fill="#FFE027"/>
<path d="M196.903 196.903H189.871V203.936H196.903V196.903Z" fill="#222034"/>
<path d="M203.935 196.903H196.903V203.936H203.935V196.903Z" fill="#222034"/>
<path d="M14.0645 203.936H7.03223V210.968H14.0645V203.936Z" fill="#222034"/>
<path d="M21.0968 203.936H14.0646V210.968H21.0968V203.936Z" fill="#FFE027"/>
<path d="M28.1291 203.936H21.0968V210.968H28.1291V203.936Z" fill="#FFE027"/>
<path d="M35.1613 203.936H28.129V210.968H35.1613V203.936Z" fill="#FFE027"/>
<path d="M42.1935 203.936H35.1613V210.968H42.1935V203.936Z" fill="#8A6F30"/>
<path d="M49.2259 203.936H42.1936V210.968H49.2259V203.936Z" fill="#222034"/>
<path d="M175.806 203.936H168.774V210.968H175.806V203.936Z" fill="#222034"/>
<path d="M182.839 203.936H175.806V210.968H182.839V203.936Z" fill="#8A6F30"/>
<path d="M189.871 203.936H182.839V210.968H189.871V203.936Z" fill="#FFE027"/>
<path d="M196.903 203.936H189.871V210.968H196.903V203.936Z" fill="#FFE027"/>
<path d="M203.935 203.936H196.903V210.968H203.935V203.936Z" fill="#FFE027"/>
<path d="M210.968 203.936H203.936V210.968H210.968V203.936Z" fill="#222034"/>
<path d="M7.03226 210.968H0V218H7.03226V210.968Z" fill="#222034"/>
<path d="M14.0645 210.968H7.03223V218H14.0645V210.968Z" fill="#FFE027"/>
<path d="M21.0968 210.968H14.0646V218H21.0968V210.968Z" fill="#FFE027"/>
<path d="M28.1291 210.968H21.0968V218H28.1291V210.968Z" fill="#8A6F30"/>
<path d="M35.1613 210.968H28.129V218H35.1613V210.968Z" fill="#8A6F30"/>
<path d="M42.1935 210.968H35.1613V218H42.1935V210.968Z" fill="#222034"/>
<path d="M182.839 210.968H175.806V218H182.839V210.968Z" fill="#222034"/>
<path d="M189.871 210.968H182.839V218H189.871V210.968Z" fill="#8A6F30"/>
<path d="M196.903 210.968H189.871V218H196.903V210.968Z" fill="#8A6F30"/>
<path d="M203.935 210.968H196.903V218H203.935V210.968Z" fill="#FFE027"/>
<path d="M210.968 210.968H203.936V218H210.968V210.968Z" fill="#FFE027"/>
<path d="M218 210.968H210.968V218H218V210.968Z" fill="#222034"/>
</g>
<defs>
<clipPath id="clip0_1_684">
<rect width="218" height="218" fill="white"/>
</clipPath>
</defs>
</svg>
