<svg width="128" height="178" viewBox="0 0 128 178" fill="none" xmlns="http://www.w3.org/2000/svg">
<path d="M120.713 96.7595V60.8422H126.677V52.8624H111.424V40.4199H43.7723V43.5471H22.5479V72.1483H0V103.993H128V96.7595H120.713Z" fill="#F6C300"/>
<path d="M0 103.992V154.094H13.0771V177.353H90.8614V142.647H105.452V118.708H128V103.992H0Z" fill="#EB7B13"/>
<path d="M0 144.611V154.093H13.0771V177.352H90.8614V144.611H0Z" fill="#B6301A"/>
<path d="M102.45 125.467V137.703H79.2401V123.842H57.8916V112.428H49.5374V121.395H42.1097V134.434H26.3362V121.395H5.90578V137.703H0V152.368H10.5543V154.093H13.0771V165.416H24.4751V153.189H51.3902V167.863H71.8206V157.262H89.4553V160.53H90.8614V142.646H105.452V125.467H102.45Z" fill="#B6301A"/>
<path d="M61.3734 135.383H49.0739V145.976H61.3734V135.383Z" fill="#EB7B13"/>
<path d="M88.9918 143.67H76.6923V154.263H88.9918V143.67Z" fill="#EB7B13"/>
<path d="M36.7744 145.975H24.4749V156.576H36.7744V145.975Z" fill="#EB7B13"/>
<path d="M120.713 96.7617V77.3846H111.73V52.8646H111.424V51.2969H92.2344V64.3366H63.4582V73.3035H21.6876V96.1313H3.12659V72.1505H0V112.356H13.7967V103.995H30.0417V110.117H44.8972V103.995H74.1366V109.586H88.9921V103.995H128V96.7617H120.713Z" fill="#EE950A"/>
<path d="M92.2342 0V13.0397H63.458V22.0149H43.772V43.5487H22.5476V52.6981H30.0415V58.8115H44.8969V52.6981H74.1364V58.2806H88.9918V52.6981H111.424V0H92.2342Z" fill="#FEED00"/>
<path d="M13.954 84.5586V86.9558V112.43H45.4846" fill="white"/>
<path d="M105.13 84.5586V86.9558V112.43H66.9902" fill="white"/>
<path d="M94.1697 110.048H85.9314L86.0555 98.493L94.1697 92.6367V110.048Z" fill="#231815"/>
<path d="M29.893 109.982H21.6547V91.3594L29.893 98.4267V109.982Z" fill="#231815"/>
</svg>
