<svg width="68" height="31" viewBox="0 0 68 31" fill="none" xmlns="http://www.w3.org/2000/svg">
<path d="M6.15593 7.74719C5.50566 7.7809 2.57944 7.94944 0.4156 8.07303L0.953757 17.5337L3.48758 17.8483L1.04345 19.0506L1.41343 25.5899L4.84418 25.9944L1.51434 27.2753L1.69372 30.5L59.1195 27.2416L61.2161 23.9045H56.7538L61.6421 23.2079L64.4674 18.691L62.5054 18.3876L64.9944 17.8596L67.8309 13.3202L57.5947 0.5L0.168945 3.75843L0.359542 7.10674C3.29698 7.3764 6.78378 7.71348 6.15593 7.74719Z" fill="url(#paint0_linear_4448_38294)"/>
<path style="mix-blend-mode:multiply" opacity="0.3" d="M33.3331 24.8935C24.588 24.4103 15.686 25.0508 7.00824 26.1631C6.9634 26.1631 6.9634 26.2418 7.00824 26.2418C15.7869 25.6687 24.5544 25.4665 33.3331 25.0171C33.4115 25.0171 33.4003 24.9047 33.3331 24.8935Z" fill="url(#paint1_linear_4448_38294)"/>
<path style="mix-blend-mode:multiply" opacity="0.3" d="M51.4509 24.5787C49.2646 24.6124 47.1232 24.6349 44.9369 24.8371C42.8291 25.0281 40.6989 25.4776 38.5799 25.3203C38.5351 25.3203 38.5239 25.3989 38.5799 25.3989C42.7282 26.2641 47.3362 25.3203 51.4621 24.736C51.563 24.7248 51.563 24.5675 51.4621 24.5787H51.4509Z" fill="url(#paint2_linear_4448_38294)"/>
<path style="mix-blend-mode:multiply" opacity="0.3" d="M39.1295 4.35352C30.4742 4.67936 21.774 5.10632 13.1298 5.62318C13.085 5.62318 13.085 5.69059 13.1298 5.69059C21.7291 6.1625 30.6199 5.76925 39.1407 4.49958C39.2304 4.48835 39.2304 4.35352 39.1407 4.35352H39.1295Z" fill="url(#paint3_linear_4448_38294)"/>
<path style="mix-blend-mode:multiply" opacity="0.3" d="M9.66554 7.49989C9.66554 7.49989 9.60948 7.57854 9.66554 7.58977C11.0334 7.79202 12.3563 7.73584 13.7353 7.66843C13.7466 7.66843 13.7578 7.64595 13.7353 7.64595C12.3675 7.51112 11.0558 7.37629 9.67675 7.49989H9.66554Z" fill="url(#paint4_linear_4448_38294)"/>
<path style="mix-blend-mode:multiply" opacity="0.3" d="M60.4877 17.8705C57.7745 17.275 54.4783 17.7918 51.7202 17.9716C51.6978 17.9716 51.709 17.9941 51.7202 17.9941C54.4895 18.1626 57.7745 18.6682 60.4989 18.0727C60.5998 18.0502 60.5774 17.8929 60.4877 17.8705Z" fill="url(#paint5_linear_4448_38294)"/>
<path style="mix-blend-mode:multiply" opacity="0.3" d="M56.5964 20.87C55.4977 20.634 54.2868 20.9711 53.1769 21.0273C53.1657 21.0273 53.1657 21.0498 53.1769 21.0498C54.2644 21.2408 55.5649 21.4992 56.5964 20.9936C56.6525 20.9711 56.6637 20.8812 56.5964 20.87Z" fill="url(#paint6_linear_4448_38294)"/>
<path style="mix-blend-mode:multiply" opacity="0.3" d="M11.9967 16.7027C9.91134 16.5342 7.72508 16.523 5.67336 16.9162C5.6173 16.9162 5.59488 17.0174 5.67336 17.0286C7.7475 17.2983 9.92255 17.1634 11.9967 16.8601C12.0752 16.8488 12.0976 16.714 12.0079 16.7027H11.9967Z" fill="url(#paint7_linear_4448_38294)"/>
<path d="M20.6763 24.812L19.5135 23.0978C19.0226 23.2671 18.527 23.3565 17.9879 23.3885C16.231 23.4925 14.5515 22.8707 13.2772 21.6438C12.004 20.437 11.1337 18.5852 10.9961 16.2492C10.8597 13.9333 11.5066 11.9916 12.6281 10.6229C13.7508 9.27423 15.3456 8.45854 17.1025 8.35451C18.8594 8.25048 20.5389 8.87229 21.8132 10.0991C23.0875 11.3259 23.9579 13.1777 24.0943 15.4937C24.2366 17.9095 23.5321 19.8946 22.3308 21.2681L23.362 22.7898C23.6885 23.2312 23.7426 23.4684 23.301 23.7951L21.6088 24.9972C21.2071 25.3216 20.9629 25.2559 20.6763 24.812ZM20.6004 15.7006C20.5158 14.2631 20.1117 13.1851 19.5303 12.4982C18.929 11.8126 18.1491 11.4981 17.2906 11.549C16.4321 11.5998 15.6946 12.0041 15.1979 12.7548C14.6812 13.5066 14.4065 14.6248 14.4911 16.0623C14.5758 17.4998 14.9787 18.5579 15.5801 19.2435C16.1614 19.9304 16.9413 20.2448 17.7998 20.194C18.6583 20.1432 19.3958 19.7389 19.9125 18.987C20.4092 18.2363 20.6851 17.1381 20.6004 15.7006ZM35.3669 22.099C34.573 22.2261 33.8155 22.291 32.957 22.3418L30.0221 22.5156C28.5647 22.6019 27.5323 22.082 26.9016 21.2378C26.2321 20.416 25.9455 19.2909 25.9395 18.1693L25.8863 12.8432C25.8991 12.041 26.0236 11.7732 26.7224 11.7318L28.2198 11.6431C28.9185 11.6018 29.2133 11.8448 29.2005 12.6469L29.2442 17.1322C29.2455 18.1739 29.4006 18.7658 29.6789 19.0699C29.9573 19.3739 30.4 19.4078 31.0178 19.3512L32.7324 19.2096L32.4548 12.4542C32.4277 11.6544 32.5921 11.3842 33.2909 11.3429L34.8282 11.2518C35.527 11.2105 35.7619 11.457 35.7889 12.2568L36.1666 21.0499C36.1889 21.4292 36.1619 21.6512 36.0715 21.8168C35.94 21.9649 35.745 22.0565 35.3669 22.099ZM38.1325 20.9735L37.6586 12.9275C37.6116 12.1288 37.7971 11.8774 38.4959 11.8361L40.0532 11.7439C40.752 11.7025 40.9869 11.949 41.0327 12.7277L41.5465 20.7714C41.5936 21.57 41.3892 21.8425 40.6904 21.8839L39.0932 21.9785C38.3945 22.0199 38.1795 21.7721 38.1325 20.9735ZM37.1862 8.9885C37.1239 7.93033 37.8778 7.12436 38.936 7.06171C39.9941 6.99905 40.8973 7.70691 40.9596 8.76507C41.0219 9.82324 40.2069 10.6128 39.1488 10.6754C38.0906 10.7381 37.2485 10.0467 37.1862 8.9885ZM51.7272 21.2304L44.4999 21.6584C43.4018 21.7234 43.2397 21.0117 43.653 20.2059L47.1229 13.469L43.5691 13.6794C43.0101 13.7125 42.74 13.5482 42.7071 12.9892L42.6212 11.5317C42.5895 10.9926 42.8373 10.7776 43.3963 10.7445L50.9031 10.3C51.9613 10.2374 52.1821 10.9255 51.75 11.7525L48.2214 18.5129L51.5555 18.3155C52.1146 18.2824 52.3847 18.4467 52.4176 19.0057L52.5011 20.4233C52.534 20.9823 52.2862 21.1973 51.7272 21.2304Z" fill="white"/>
<defs>
<linearGradient id="paint0_linear_4448_38294" x1="28.7496" y1="-4.12172" x2="40.9543" y2="48.6221" gradientUnits="userSpaceOnUse">
<stop stop-color="#DE975D"/>
<stop offset="0.07" stop-color="#D58C56"/>
<stop offset="0.3" stop-color="#C07146"/>
<stop offset="0.53" stop-color="#B15D3A"/>
<stop offset="0.76" stop-color="#A85133"/>
<stop offset="1" stop-color="#A64E31"/>
</linearGradient>
<linearGradient id="paint1_linear_4448_38294" x1="6.96438" y1="26.0933" x2="33.3818" y2="24.6011" gradientUnits="userSpaceOnUse">
<stop stop-color="#DE975D"/>
<stop offset="0.07" stop-color="#D58C56"/>
<stop offset="0.3" stop-color="#C07146"/>
<stop offset="0.53" stop-color="#B15D3A"/>
<stop offset="0.76" stop-color="#A85133"/>
<stop offset="1" stop-color="#A64E31"/>
</linearGradient>
<linearGradient id="paint2_linear_4448_38294" x1="38.5579" y1="25.5837" x2="51.5427" y2="24.8503" gradientUnits="userSpaceOnUse">
<stop stop-color="#DE975D"/>
<stop offset="0.07" stop-color="#D58C56"/>
<stop offset="0.3" stop-color="#C07146"/>
<stop offset="0.53" stop-color="#B15D3A"/>
<stop offset="0.76" stop-color="#A85133"/>
<stop offset="1" stop-color="#A64E31"/>
</linearGradient>
<linearGradient id="paint3_linear_4448_38294" x1="13.1209" y1="6.06029" x2="39.2137" y2="4.5864" gradientUnits="userSpaceOnUse">
<stop stop-color="#DE975D"/>
<stop offset="0.07" stop-color="#D58C56"/>
<stop offset="0.3" stop-color="#C07146"/>
<stop offset="0.53" stop-color="#B15D3A"/>
<stop offset="0.76" stop-color="#A85133"/>
<stop offset="1" stop-color="#A64E31"/>
</linearGradient>
<linearGradient id="paint4_linear_4448_38294" x1="9.64247" y1="7.69844" x2="13.7394" y2="7.46702" gradientUnits="userSpaceOnUse">
<stop stop-color="#DE975D"/>
<stop offset="0.07" stop-color="#D58C56"/>
<stop offset="0.3" stop-color="#C07146"/>
<stop offset="0.53" stop-color="#B15D3A"/>
<stop offset="0.76" stop-color="#A85133"/>
<stop offset="1" stop-color="#A64E31"/>
</linearGradient>
<linearGradient id="paint5_linear_4448_38294" x1="51.7343" y1="18.2973" x2="60.5663" y2="17.7984" gradientUnits="userSpaceOnUse">
<stop stop-color="#DE975D"/>
<stop offset="0.07" stop-color="#D58C56"/>
<stop offset="0.3" stop-color="#C07146"/>
<stop offset="0.53" stop-color="#B15D3A"/>
<stop offset="0.76" stop-color="#A85133"/>
<stop offset="1" stop-color="#A64E31"/>
</linearGradient>
<linearGradient id="paint6_linear_4448_38294" x1="53.1874" y1="21.1742" x2="56.6575" y2="20.9781" gradientUnits="userSpaceOnUse">
<stop stop-color="#DE975D"/>
<stop offset="0.07" stop-color="#D58C56"/>
<stop offset="0.3" stop-color="#C07146"/>
<stop offset="0.53" stop-color="#B15D3A"/>
<stop offset="0.76" stop-color="#A85133"/>
<stop offset="1" stop-color="#A64E31"/>
</linearGradient>
<linearGradient id="paint7_linear_4448_38294" x1="5.62208" y1="17.054" x2="12.0473" y2="16.6911" gradientUnits="userSpaceOnUse">
<stop stop-color="#DE975D"/>
<stop offset="0.07" stop-color="#D58C56"/>
<stop offset="0.3" stop-color="#C07146"/>
<stop offset="0.53" stop-color="#B15D3A"/>
<stop offset="0.76" stop-color="#A85133"/>
<stop offset="1" stop-color="#A64E31"/>
</linearGradient>
</defs>
</svg>
