<svg width="24" height="24" viewBox="0 0 24 24" fill="none" xmlns="http://www.w3.org/2000/svg">
<path d="M12 14.2458C10.7574 14.2458 9.75 15.2538 9.75 16.4973V21.0001H14.25V16.4973C14.25 15.2538 13.2426 14.2458 12 14.2458Z" fill="#ABCEFF"/>
<path d="M15.75 16.4972V21H18.75C19.9926 21 21 19.992 21 18.7486V11.9036C21.0002 11.5137 20.8488 11.1391 20.5777 10.8589L14.2043 3.96438C13.0797 2.74687 11.1817 2.67211 9.96491 3.79739C9.90711 3.85086 9.85143 3.90655 9.79802 3.96438L3.43576 10.8567C3.15655 11.138 2.99989 11.5184 3 11.9149V18.7486C3 19.992 4.00737 21 5.25 21H8.24999V16.4972C8.26402 14.4508 9.9152 12.7797 11.9088 12.7316C13.9691 12.6818 15.7343 14.3814 15.75 16.4972Z" fill="#ABCEFF"/>
<path d="M12 14.2458C10.7574 14.2458 9.75 15.2538 9.75 16.4973V21.0001H14.25V16.4973C14.25 15.2538 13.2426 14.2458 12 14.2458Z" fill="#ABCEFF"/>
</svg>
