<svg width="58" height="54" viewBox="0 0 58 54" fill="none" xmlns="http://www.w3.org/2000/svg">
<g clip-path="url(#clip0_60_2633)">
<path d="M20.7521 5.1925C24.0224 4.71313 31.1549 3.77028 37.2804 5.11631C37.7847 5.22742 38.3084 5.02266 38.584 4.59409C40.6789 1.34488 42.8418 -1.16941 47.6946 0.563928C52.9024 2.42425 52.9722 7.93536 52.9024 8.62425C52.8408 9.22742 52.6171 11.5703 51.6669 13.0703C51.4173 13.4639 51.4043 13.9592 51.6588 14.3496C53.277 16.8433 57.4634 23.2925 57.9692 30.4623C58.5319 38.4544 51.7059 47.2719 35.591 47.2036C19.4761 47.1354 2.24404 48.2607 0.415128 29.2465C5.49555e-05 24.3322 2.84558 18.4338 5.32953 16.1909C5.74947 15.8131 5.84999 15.2036 5.56463 14.7195C3.9546 12.0052 2.4986 8.01948 6.13698 3.79885C10.171 -0.882103 17.7055 0.416309 19.4582 4.49409C19.4696 4.51948 19.4809 4.54329 19.4939 4.56869C19.7355 5.0179 20.2397 5.2671 20.7505 5.1925H20.7521Z" fill="#F2B23B"/>
<path d="M9.83415 5.7485L10.1396 5.53905C12.0014 4.26229 14.5713 4.70545 15.8754 6.52816C16.2996 7.121 16.1534 7.94028 15.5465 8.35645L10.69 11.6868C10.0844 12.102 9.24758 11.9588 8.82247 11.3647C7.5183 9.54199 7.97097 7.02616 9.83282 5.74941L9.83415 5.7485Z" fill="#DF800F"/>
<path d="M46.6421 4.52353L47.333 4.91401C48.9379 5.82115 49.4901 7.83412 48.5626 9.40671C48.2611 9.91808 47.5922 10.0935 47.0698 9.7983L42.4544 7.18957C41.932 6.89433 41.7528 6.23951 42.0544 5.72814C42.981 4.15693 45.0372 3.61639 46.6435 4.52433L46.6421 4.52353Z" fill="#DF800F"/>
<mask id="mask0_60_2633" style="mask-type:luminance" maskUnits="userSpaceOnUse" x="0" y="-1" width="59" height="49">
<path d="M20.7521 5.1925C24.0224 4.71313 31.1549 3.77028 37.2804 5.11631C37.7847 5.22742 38.3084 5.02266 38.584 4.59409C40.6789 1.34488 42.8418 -1.16941 47.6946 0.563928C52.9024 2.42425 52.9722 7.93536 52.9024 8.62425C52.8408 9.22742 52.6171 11.5703 51.6669 13.0703C51.4173 13.4639 51.4043 13.9592 51.6588 14.3496C53.277 16.8433 57.4634 23.2925 57.9692 30.4623C58.5319 38.4544 51.7059 47.2719 35.591 47.2036C19.4761 47.1354 2.24404 48.2607 0.415128 29.2465C5.49555e-05 24.3322 2.84558 18.4338 5.32953 16.1909C5.74947 15.8131 5.84999 15.2036 5.56463 14.7195C3.9546 12.0052 2.4986 8.01948 6.13698 3.79885C10.171 -0.882103 17.7055 0.416309 19.4582 4.49409C19.4696 4.51948 19.4809 4.54329 19.4939 4.56869C19.7355 5.0179 20.2397 5.2671 20.7505 5.1925H20.7521Z" fill="white"/>
</mask>
<g mask="url(#mask0_60_2633)">
<path d="M8.65496 29.5945C9.00843 28.5517 7.2622 28.7279 6.61527 28.639C5.04902 28.4231 1.6879 27.0342 1.06529 26.5279C0.715067 26.258 0.407005 26.0374 0.238382 25.8945C-0.173449 27.8263 0.0567872 28.2469 0.134613 29.3548C0.293509 29.439 0.476725 29.5295 0.67129 29.6199V29.6168C2.19377 30.3041 3.88811 30.8993 5.59866 30.7882C6.35747 30.739 8.38095 30.4009 8.65496 29.5945Z" fill="#673925"/>
<path d="M8.97271 33.1408C8.81057 32.1773 7.51022 33.0233 6.96382 33.2154C5.72184 33.6519 3.35625 34.2662 1.96673 33.8931C1.75108 33.8344 1.53382 33.7757 1.31331 33.7328C1.12847 33.6979 0.987414 33.6678 0.867432 33.6408C1.22089 34.5963 1.64894 35.5281 2.16616 36.4074C2.32667 36.409 2.50989 36.4074 2.70121 36.3979V36.3947C4.18802 36.3185 5.77211 36.0995 7.07245 35.3185C7.64804 34.9725 9.09918 33.8852 8.97271 33.1408Z" fill="#673925"/>
<path d="M50.5887 30.6625C50.2125 29.7863 51.4707 29.8181 52.2814 29.7054C53.6352 29.5165 55.9084 28.5387 56.9218 27.5213C57.2055 27.2657 57.3855 27.0959 57.5217 26.9609C57.7357 27.9276 57.9611 28.8689 58 29.8562C57.8686 29.9387 57.6335 30.0705 57.473 30.1609V30.1578C56.2084 30.8498 54.788 31.4736 53.3061 31.4911C52.6494 31.499 50.8805 31.3403 50.5903 30.6625H50.5887Z" fill="#673925"/>
<path d="M51.0103 34.0964C50.9843 33.252 52.2312 33.7599 52.7273 33.8329C53.9304 34.0123 55.9879 33.9012 57.2899 33.4774C57.6093 33.3536 57.8136 33.2694 57.9709 33.2012C57.8331 34.0694 57.6693 34.9297 57.3807 35.7599C57.2445 35.7869 57.0483 35.8139 56.8845 35.8393V35.8361C55.6101 36.0123 54.2271 36.0853 52.9916 35.6345C52.4436 35.4345 51.0297 34.7488 51.0103 34.0948V34.0964Z" fill="#673925"/>
<path d="M31.5181 18.3499C32.2331 18.3896 33.0973 17.9976 33.146 17.0372C33.193 16.0769 32.9336 14.6388 33.6226 14.5007C34.3117 14.3626 35.8958 14.9134 36.5314 14.8912C37.167 14.869 37.8788 14.1579 37.1021 13.1229C36.3255 12.088 33.6875 12.1483 33.3973 11.869C33.107 11.5896 32.906 10.396 32.8882 10.1293C32.8703 9.86263 35.15 10.5356 35.3932 10.569C35.6364 10.6023 36.5217 10.7261 36.8103 10.269C37.0989 9.81184 37.0535 8.93406 36.2849 8.54517C35.5164 8.15628 33.9226 7.7912 33.3113 7.6912C32.7001 7.5912 32.2931 7.65946 32.0661 6.78803C31.8407 5.9166 31.4062 5.0166 31.2619 4.67533C31.0625 4.20073 30.8549 4.27692 29.9308 4.28168C29.0066 4.28644 27.2587 4.32295 26.9636 4.36898C26.5842 4.4293 26.4853 5.02612 27.3641 5.97533C28.2429 6.92454 28.4342 7.98485 26.4853 7.95628C24.5364 7.92612 22.5924 9.1166 23.1291 10.2452C23.6657 11.3753 24.1619 11.7102 25.9584 10.8166C27.7549 9.92295 28.9271 9.98327 29.219 10.5245C29.5092 11.0674 30.0232 11.9452 27.9559 12.2356C25.8887 12.5261 24.0273 12.9182 24.1943 14.3753C24.3613 15.8309 25.5174 15.7341 26.9004 15.0452C28.2834 14.3547 29.6843 14.2356 29.9178 14.6833C30.1513 15.1309 30.1302 16.6102 30.1756 17.0515C30.221 17.4928 30.2826 18.2801 31.5181 18.3483V18.3499Z" fill="#673925"/>
</g>
<path d="M22.4577 49.8406C22.4772 49.6295 22.4837 49.4184 22.4788 49.2073C22.4269 46.9771 22.3572 43.7327 26.4917 44.8295C30.0863 45.7835 30.9294 46.7009 31.1143 46.9978C31.1645 47.0787 31.218 47.1581 31.2813 47.2311C31.7953 47.8374 33.7588 50.3517 31.9071 51.4025C29.7929 52.6009 26.7139 54.7073 24.3402 53.7628C22.3702 52.9787 22.3686 50.7755 22.4577 49.8406Z" fill="#DA7000"/>
<path d="M30.7143 48.5112L27.5555 48.3459C27.121 48.3231 26.7498 48.6496 26.7266 49.075C26.7034 49.5005 27.0368 49.8638 27.4714 49.8865L30.6302 50.0518C31.0648 50.0746 31.4359 49.7481 31.4591 49.3227C31.4824 48.8972 31.1489 48.5339 30.7143 48.5112Z" fill="#CA6400"/>
<path d="M43.9669 49.3456C43.941 49.1361 43.9313 48.925 43.9313 48.7123C43.928 46.4821 43.9167 43.2361 39.8097 44.4313C37.2301 45.1821 35.9946 46.0361 35.5066 46.4536C35.3655 46.5742 35.2472 46.7186 35.1385 46.8694C35.1207 46.8948 35.1012 46.9202 35.0818 46.9456C34.5824 47.5631 32.6821 50.125 34.5597 51.1297C36.7032 52.2774 39.8324 54.3091 42.1818 53.3091C44.1323 52.479 44.0788 50.2774 43.9669 49.344V49.3456Z" fill="#DA7000"/>
<path d="M35.6745 49.931L38.8283 49.6907C39.2622 49.6577 39.5865 49.2865 39.5528 48.8618C39.519 48.437 39.1399 48.1195 38.706 48.1525L35.5522 48.3928C35.1183 48.4258 34.794 48.797 34.8277 49.2217C34.8615 49.6465 35.2406 49.9641 35.6745 49.931Z" fill="#CA6400"/>
<path d="M33.6894 46.2187L32.3507 46.2553C31.4923 46.2788 30.8158 46.9791 30.8398 47.8195L30.9121 50.3534C30.9361 51.1938 31.6514 51.856 32.5098 51.8325L33.8486 51.7959C34.707 51.7725 35.3834 51.0722 35.3594 50.2318L35.2871 47.6979C35.2632 46.8575 34.5478 46.1953 33.6894 46.2187Z" fill="#DA7000"/>
<path d="M31.9542 44.5713C39.4385 44.5713 45.5057 41.2361 45.5057 37.1221C45.5057 33.008 39.4385 29.6729 31.9542 29.6729C24.4699 29.6729 18.4027 33.008 18.4027 37.1221C18.4027 41.2361 24.4699 44.5713 31.9542 44.5713Z" fill="#FFE1B6"/>
<path d="M20.491 33.6018C15.442 33.6018 11.3351 29.5812 11.3351 24.6383C11.3351 19.6954 15.442 15.6748 20.491 15.6748C25.54 15.6748 29.6469 19.6954 29.6469 24.6383C29.6469 29.5812 25.54 33.6018 20.491 33.6018ZM20.491 16.8939C16.1295 16.8939 12.5819 20.3669 12.5819 24.6367C12.5819 28.9066 16.1295 32.3796 20.491 32.3796C24.8525 32.3796 28.4017 28.9066 28.4017 24.6367C28.4017 20.3669 24.8541 16.8939 20.491 16.8939Z" fill="#4C2A23"/>
<path d="M43.0477 33.2951C37.9987 33.2951 33.8917 29.2745 33.8917 24.3317C33.8917 19.3888 37.9987 15.3682 43.0477 15.3682C48.0966 15.3682 52.2036 19.3888 52.2036 24.3317C52.2036 29.2745 48.0966 33.2951 43.0477 33.2951ZM43.0477 16.5872C38.6861 16.5872 35.1386 20.0602 35.1386 24.3301C35.1386 28.5999 38.6861 32.0745 43.0477 32.0745C47.4092 32.0745 50.9567 28.6015 50.9567 24.3301C50.9567 20.0586 47.4092 16.5872 43.0477 16.5872Z" fill="#4C2A23"/>
<path d="M29.0746 25.048L28.6271 23.9099L28.6206 23.9131C28.6547 23.8988 28.7033 23.8718 28.7665 23.8401C29.5578 23.429 31.9655 22.175 34.9359 23.8004L34.3279 24.8655C31.9509 23.5639 30.0636 24.5465 29.3535 24.9163C29.2383 24.9766 29.1557 25.0195 29.0762 25.048H29.0746Z" fill="#4C2A23"/>
<path d="M22.3993 28.2701C23.9601 28.2701 25.2254 26.8374 25.2254 25.0701C25.2254 23.3028 23.9601 21.8701 22.3993 21.8701C20.8385 21.8701 19.5732 23.3028 19.5732 25.0701C19.5732 26.8374 20.8385 28.2701 22.3993 28.2701Z" fill="#4C2A23"/>
<path d="M21.5384 24.8808C22.013 24.8808 22.3977 24.5041 22.3977 24.0395C22.3977 23.5749 22.013 23.1982 21.5384 23.1982C21.0638 23.1982 20.6791 23.5749 20.6791 24.0395C20.6791 24.5041 21.0638 24.8808 21.5384 24.8808Z" fill="white"/>
<path d="M40.2719 28.2701C41.8327 28.2701 43.0979 26.8374 43.0979 25.0701C43.0979 23.3028 41.8327 21.8701 40.2719 21.8701C38.7111 21.8701 37.4458 23.3028 37.4458 25.0701C37.4458 26.8374 38.7111 28.2701 40.2719 28.2701Z" fill="#4C2A23"/>
<path d="M39.4108 24.8808C39.8854 24.8808 40.2702 24.5041 40.2702 24.0395C40.2702 23.5749 39.8854 23.1982 39.4108 23.1982C38.9363 23.1982 38.5515 23.5749 38.5515 24.0395C38.5515 24.5041 38.9363 24.8808 39.4108 24.8808Z" fill="white"/>
<path d="M40.7859 20.9313C42.4354 20.5454 43.6536 19.7446 43.5066 19.1426C43.3597 18.5407 41.9033 18.3655 40.2538 18.7514C38.6042 19.1374 37.3861 19.9382 37.533 20.5401C37.68 21.1421 39.1363 21.3172 40.7859 20.9313Z" fill="#FFE1B6"/>
<path d="M25.3863 20.8066C25.5332 20.2046 24.3151 19.4038 22.6655 19.0179C21.016 18.632 19.5596 18.8071 19.4127 19.4091C19.2657 20.011 20.4838 20.8119 22.1334 21.1978C23.783 21.5837 25.2393 21.4086 25.3863 20.8066Z" fill="#FFE1B6"/>
<path d="M35.8844 35.1699C35.8844 38.4064 34.216 41.0302 32.1584 41.0302C30.1009 41.0302 28.4325 38.4064 28.4325 35.1699" fill="#97321F"/>
<mask id="mask1_60_2633" style="mask-type:luminance" maskUnits="userSpaceOnUse" x="28" y="35" width="8" height="7">
<path d="M35.8844 35.1699C35.8844 38.4064 34.216 41.0302 32.1584 41.0302C30.1009 41.0302 28.4325 38.4064 28.4325 35.1699" fill="white"/>
</mask>
<g mask="url(#mask1_60_2633)">
<path d="M32.1584 44.0544C33.8392 44.0544 35.2018 42.7205 35.2018 41.0751C35.2018 39.4296 33.8392 38.0957 32.1584 38.0957C30.4777 38.0957 29.1151 39.4296 29.1151 41.0751C29.1151 42.7205 30.4777 44.0544 32.1584 44.0544Z" fill="#D25035"/>
</g>
<path d="M30.9019 27.916H33.4101C34.4754 27.916 35.3396 28.762 35.3396 29.8049C35.3396 31.489 33.9436 32.8557 32.2233 32.8557H32.0887C30.3684 32.8557 28.9724 31.489 28.9724 29.8049C28.9724 28.762 29.8366 27.916 30.9019 27.916Z" fill="#4C2A23"/>
<path d="M32.1584 32.9189V35.4078C32.1584 35.4078 30.1641 38.9809 26.2679 34.7967" fill="#FFE1B6"/>
<path d="M29.7977 37.3047C28.5687 37.3047 27.2618 36.5697 25.908 35.1174C25.7264 34.9237 25.741 34.6221 25.9404 34.4443C26.1398 34.2666 26.4463 34.2808 26.6279 34.4761C27.8682 35.8078 29.0437 36.4507 30.0311 36.3412C30.9326 36.2396 31.4969 35.5316 31.6736 35.2729V32.9205C31.6736 32.657 31.8909 32.4443 32.16 32.4443C32.4292 32.4443 32.6464 32.657 32.6464 32.9205V35.53L32.5864 35.6364C32.5524 35.6967 31.7547 37.0967 30.156 37.284C30.0376 37.2983 29.9193 37.3047 29.7993 37.3047H29.7977Z" fill="#4C2A23"/>
<path d="M32.1584 32.9189V35.4078C32.1584 35.4078 34.1527 38.9809 38.0489 34.7967" fill="#FFE1B6"/>
<path d="M34.5191 37.3047C34.3992 37.3047 34.2808 37.2983 34.1624 37.284C32.5638 37.0951 31.7644 35.6951 31.732 35.6364L31.672 35.53V32.9205C31.672 32.657 31.8893 32.4443 32.1584 32.4443C32.4276 32.4443 32.6448 32.657 32.6448 32.9205V35.2729C32.8216 35.5301 33.3858 36.2396 34.2873 36.3412C35.2747 36.4523 36.4502 35.8078 37.6906 34.4761C37.8722 34.2824 38.1786 34.2681 38.378 34.4443C38.5758 34.6221 38.5904 34.9221 38.4105 35.1174C37.0566 36.5713 35.7498 37.3047 34.5208 37.3047H34.5191Z" fill="#4C2A23"/>
</g>
<defs>
<clipPath id="clip0_60_2633">
<rect width="58" height="54" fill="white"/>
</clipPath>
</defs>
</svg>
