<svg width="24" height="24" viewBox="0 0 24 24" fill="none" xmlns="http://www.w3.org/2000/svg">
<g clip-path="url(#clip0_4071_213)">
<path d="M13.13 18H7.13C6.58 18 6.13 17.55 6.13 17V7C6.13 6.45 6.58 6 7.13 6H13.13C13.68 6 14.13 5.55 14.13 5C14.13 4.45 13.68 4 13.13 4H7.13C5.47 4 4.13 5.34 4.13 7V17C4.13 18.66 5.47 20 7.13 20H13.13C13.68 20 14.13 19.55 14.13 19C14.13 18.45 13.68 18 13.13 18Z" fill="#ABCEFF"/>
<path d="M19.58 11.29L16.83 8.54C16.45 8.14 15.81 8.13 15.42 8.52C15.02 8.9 15.01 9.54 15.4 9.93L15.42 9.95L16.46 10.99H9.12C8.57 10.99 8.12 11.44 8.12 11.99C8.12 12.54 8.57 12.99 9.12 12.99H16.46L15.42 14.03C15.02 14.41 15.01 15.05 15.4 15.44C15.79 15.83 16.42 15.85 16.81 15.46L16.83 15.44L19.58 12.69C19.97 12.3 19.97 11.67 19.58 11.28" fill="#ABCEFF"/>
</g>
<defs>
<clipPath id="clip0_4071_213">
<rect width="24" height="24" fill="white"/>
</clipPath>
</defs>
</svg>
