<svg width="16" height="16" viewBox="0 0 16 16" fill="none" xmlns="http://www.w3.org/2000/svg">
<path d="M9.12988 14H3.12988C2.57988 14 2.12988 13.55 2.12988 13V3C2.12988 2.45 2.57988 2 3.12988 2H9.12988C9.67988 2 10.1299 1.55 10.1299 1C10.1299 0.45 9.67988 0 9.12988 0H3.12988C1.46988 0 0.129883 1.34 0.129883 3V13C0.129883 14.66 1.46988 16 3.12988 16H9.12988C9.67988 16 10.1299 15.55 10.1299 15C10.1299 14.45 9.67988 14 9.12988 14Z" fill="white"/>
<path d="M15.5799 7.29L12.8299 4.54C12.4499 4.14 11.8099 4.13 11.4199 4.52C11.0199 4.9 11.0099 5.54 11.3999 5.93L11.4199 5.95L12.4599 6.99H5.11987C4.56987 6.99 4.11987 7.44 4.11987 7.99C4.11987 8.54 4.56987 8.99 5.11987 8.99H12.4599L11.4199 10.03C11.0199 10.41 11.0099 11.05 11.3999 11.44C11.7899 11.83 12.4199 11.85 12.8099 11.46L12.8299 11.44L15.5799 8.69C15.9699 8.3 15.9699 7.67 15.5799 7.28" fill="white"/>
</svg>
