<svg width="22" height="34" viewBox="0 0 22 34" fill="none" xmlns="http://www.w3.org/2000/svg">
<g clip-path="url(#clip0_60_3287)">
<rect width="21.4286" height="32.8571" transform="translate(0.285645 0.571289)" fill="white"/>
<path d="M20.5898 14.5877C19.9677 14.5877 19.4654 15.0883 19.4654 15.7058V17.0392C19.4654 21.816 15.4331 25.6711 10.576 25.4325C6.02761 25.2079 2.53913 21.3107 2.53913 16.7913V15.7012C2.53913 15.0836 2.03683 14.583 1.41471 14.583C0.792587 14.583 0.290283 15.0836 0.290283 15.7012V16.7538C0.290283 22.2651 4.49766 27.0185 9.88475 27.608V31.1917H7.0783C6.41932 31.1917 5.88015 31.725 5.88015 32.38V33.428H16.129V32.38C16.129 31.725 15.5944 31.1917 14.9308 31.1917H12.129V27.6126C17.5069 27.0512 21.7142 22.5224 21.7142 17.0345V15.7012C21.7142 15.0836 21.2119 14.583 20.5898 14.583V14.5877Z" fill="#4A91FE"/>
<path d="M11 23.0702C14.3548 23.0702 17.0783 20.3707 17.0783 17.0396V6.60188C17.0783 3.27079 14.3594 0.571289 11 0.571289C7.64052 0.571289 4.92163 3.27079 4.92163 6.60188V17.0349C4.92163 20.366 7.64052 23.0655 11 23.0655V23.0702Z" fill="#4A91FE"/>
</g>
<defs>
<clipPath id="clip0_60_3287">
<rect width="21.4286" height="32.8571" fill="white" transform="translate(0.285645 0.571289)"/>
</clipPath>
</defs>
</svg>
