<svg width="48" height="48" viewBox="0 0 48 48" fill="none" xmlns="http://www.w3.org/2000/svg">
<g clip-path="url(#clip0_2261_7453)">
<path d="M27.7308 36.2198L28.3964 32.2803H26.4473L27.7308 36.2198Z" fill="#2D7BED"/>
<path d="M20.2601 36.2134L21.5391 32.2803H19.59L20.2601 36.2134Z" fill="#2D7BED"/>
<path d="M26.125 10.4923C28.2051 9.13275 31.8123 6.19391 31.8123 2.12531V0.5625H16.187V2.12531C16.187 6.19391 19.7941 9.13275 21.8742 10.4923C11.3987 12.1018 2.51538 25.2305 2.51538 35.7188C2.51538 42.1815 7.77142 47.4375 14.2341 47.4375H33.7651C40.2278 47.4375 45.4838 42.1815 45.4838 35.7188C45.4838 25.2305 36.6014 12.1018 26.1241 10.4923H26.125ZM32.2398 32.28H30.4893L29.7276 36.7551C29.5015 37.7778 28.7114 38.4571 27.7574 38.4571C26.8034 38.4571 26.0206 37.8602 25.8009 36.9749L24.2289 32.28H23.7694L22.2111 36.9263C21.9163 37.8876 21.1949 38.4571 20.2409 38.4571C19.2869 38.4571 18.4904 37.7778 18.2707 36.7689L17.509 32.28H15.7585V30.221H17.1583L15.7585 21.9849H17.845L19.2448 30.221H22.2102L23.9946 24.7306L25.7789 30.221H28.7443L30.1378 21.9849H32.2316L30.8381 30.221H32.238V32.28H32.2398Z" fill="#2D7BED"/>
</g>
<defs>
<clipPath id="clip0_2261_7453">
<rect width="46.875" height="46.875" fill="white" transform="translate(0.5625 0.5625)"/>
</clipPath>
</defs>
</svg>
