<svg width="18" height="18" viewBox="0 0 18 18" fill="none" xmlns="http://www.w3.org/2000/svg">
<path d="M12.6818 13.0847C12.5435 13.0847 12.4077 13.0815 12.2727 13.0782V10.5972C12.4102 10.6005 12.5435 10.6062 12.6859 10.607C15.0619 10.6005 16.8292 10.218 17.9902 9.47097C17.9845 11.6129 17.982 10.1574 18 10.6373C17.9264 12.4884 15.6772 13.0765 12.6818 13.0847ZM12.6818 4.89398C15.678 4.88578 17.9264 4.29769 18 2.4474C17.9329 0.669185 15.6674 0.00900983 12.6818 0C9.68564 0.00900983 7.434 0.631507 7.36364 2.4474C7.43727 4.29277 9.69709 4.8866 12.6818 4.89398ZM12.6859 6.51165C12.5051 6.51165 12.3341 6.50428 12.1606 6.49936C12.2253 6.76147 12.2621 7.02439 12.2719 7.27912L12.2662 8.9828C12.4036 8.98608 12.5411 8.98853 12.6818 8.98935C15.678 8.98116 17.9264 8.39307 18 6.54195C17.982 6.06198 17.9845 7.51747 17.9902 5.37559C16.8292 6.12259 15.0627 6.5051 12.6859 6.51165ZM10.6265 10.3105C9.46555 11.0575 7.69909 11.44 5.32227 11.4466C2.95036 11.44 1.18636 11.06 0.0237273 10.3195C0.0343637 12.237 0.0376364 10.4948 0 11.4777C0.0736364 13.3231 2.33345 13.9169 5.31818 13.9251C8.31436 13.9169 10.5627 13.3288 10.6364 11.4777C10.6184 10.9977 10.6208 12.4532 10.6265 10.3113V10.3105ZM5.31818 9.80843C8.31436 9.80024 10.5627 9.21214 10.6364 7.36185C10.5693 5.58364 8.30373 4.92346 5.31818 4.91445C2.322 4.92346 0.0703636 5.54596 0 7.36185C0.0736364 9.20723 2.33345 9.80106 5.31818 9.80843ZM10.6265 14.3854C9.46555 15.1324 7.69909 15.5149 5.32227 15.5215C2.95036 15.5149 1.18636 15.1349 0.0237273 14.3944C0.0237273 14.3944 0.0376364 14.5697 0 15.5526C0.0736364 17.398 2.33345 17.9918 5.31818 18C8.31436 17.9918 10.5627 17.4037 10.6364 15.5526C10.6184 15.0726 10.6265 14.3862 10.6265 14.3862V14.3854ZM17.9902 13.5663C16.8292 14.3133 15.0627 14.6959 12.6859 14.7024C12.6843 14.7024 12.6835 14.7024 12.6818 14.7024C12.537 14.7024 12.402 14.6958 12.2621 14.6926C12.2547 14.9023 12.267 15.415 12.2719 15.6173C12.249 16.1948 12.114 16.7067 11.88 17.1604C12.141 17.1711 12.4069 17.1793 12.6818 17.1801C15.678 17.1719 17.9264 16.5838 18 14.7327C17.982 14.2527 17.9845 15.7082 17.9902 13.5663Z" fill="#478CEE"/>
</svg>
