<svg width="31" height="31" viewBox="0 0 31 31" fill="none" xmlns="http://www.w3.org/2000/svg">
<g clip-path="url(#clip0_126_3450)">
<path d="M15.0821 30.1642C23.4117 30.1642 30.1642 23.4117 30.1642 15.0821C30.1642 6.75249 23.4117 0 15.0821 0C6.75249 0 0 6.75249 0 15.0821C0 23.4117 6.75249 30.1642 15.0821 30.1642Z" fill="#EEA53E"/>
<path d="M15.0822 26.0515C21.1404 26.0515 26.0516 21.1403 26.0516 15.0821C26.0516 9.02384 21.1404 4.11267 15.0822 4.11267C9.02396 4.11267 4.11279 9.02384 4.11279 15.0821C4.11279 21.1403 9.02396 26.0515 15.0822 26.0515Z" fill="#FFDC94"/>
<path fill-rule="evenodd" clip-rule="evenodd" d="M15.0822 24.6806C20.383 24.6806 24.6807 20.3829 24.6807 15.0821C24.6807 9.78125 20.383 5.48357 15.0822 5.48357C9.78137 5.48357 5.4837 9.78125 5.4837 15.0821C5.4837 20.3829 9.78137 24.6806 15.0822 24.6806ZM15.0822 26.0515C21.1403 26.0515 26.0516 21.1402 26.0516 15.0821C26.0516 9.02398 21.1403 4.11267 15.0822 4.11267C9.02411 4.11267 4.11279 9.02398 4.11279 15.0821C4.11279 21.1402 9.02411 26.0515 15.0822 26.0515Z" fill="#5B3123"/>
<path fill-rule="evenodd" clip-rule="evenodd" d="M15.0821 30.1664C23.412 30.1664 30.1642 23.4142 30.1642 15.0843C30.1642 6.75442 23.4142 0 15.0821 0C6.75007 0 0 6.75224 0 15.0821C0 23.412 6.75224 30.1642 15.0821 30.1642V30.1664ZM24.6806 15.0821C24.6806 20.3829 20.3829 24.6806 15.0821 24.6806C9.78129 24.6806 5.48361 20.3829 5.48361 15.0821C5.48361 9.78129 9.78129 5.48361 15.0821 5.48361C20.3829 5.48361 24.6806 9.78129 24.6806 15.0821ZM15.7697 2.40017C15.7697 2.7788 15.4629 3.08562 15.0843 3.08562C14.7057 3.08562 14.3988 2.7788 14.3988 2.40017V1.38831C11.1283 1.54934 8.15796 2.85714 5.884 4.91567L6.61298 5.64464C6.88063 5.91229 6.88063 6.3475 6.61298 6.61515C6.34532 6.8828 5.91012 6.8828 5.64246 6.61515L4.91349 5.88618C2.85496 8.16014 1.54934 11.1283 1.38831 14.3967H2.40017C2.7788 14.3967 3.08562 14.7035 3.08562 15.0821C3.08562 15.4607 2.7788 15.7676 2.40017 15.7676H1.38831C1.54934 19.036 2.85496 22.0041 4.91349 24.278L5.64246 23.5491C5.91012 23.2814 6.34532 23.2814 6.61298 23.5491C6.88063 23.8167 6.88063 24.2519 6.61298 24.5196L5.884 25.2486C8.15796 27.3093 11.1283 28.6149 14.3988 28.7759V27.7641C14.3988 27.3854 14.7057 27.0786 15.0843 27.0786C15.4629 27.0786 15.7697 27.3854 15.7697 27.7641V28.7759C19.0403 28.6149 22.0106 27.3071 24.2846 25.2486L23.5556 24.5196C23.2879 24.2519 23.2879 23.8167 23.5556 23.5491C23.8233 23.2814 24.2585 23.2814 24.5261 23.5491L25.2551 24.278C27.3136 22.0041 28.6192 19.036 28.7803 15.7676H27.7684C27.3898 15.7676 27.083 15.4607 27.083 15.0821C27.083 14.7035 27.3898 14.3967 27.7684 14.3967H28.7803C28.6192 11.1283 27.3136 8.16014 25.2551 5.88618L24.5261 6.61515C24.2585 6.8828 23.8233 6.8828 23.5556 6.61515C23.2879 6.3475 23.2879 5.91229 23.5556 5.64464L24.2846 4.91567C22.0106 2.85496 19.0403 1.54934 15.7697 1.38831V2.40017ZM26.0515 15.0821C26.0515 21.1402 21.1402 26.0515 15.0821 26.0515C9.02402 26.0515 4.11271 21.1402 4.11271 15.0821C4.11271 9.02402 9.02402 4.11271 15.0821 4.11271C21.1402 4.11271 26.0515 9.02402 26.0515 15.0821Z" fill="#D87220"/>
<path d="M11.3938 10.0554H15.9265C18.5508 10.0554 20.061 11.6744 20.061 13.9505C20.061 16.2267 18.529 17.8456 15.8634 17.8456H13.7896V21.6124H11.396V10.0576L11.3938 10.0554ZM15.4804 15.9133C16.9013 15.9133 17.5955 15.1147 17.5868 13.9505C17.5955 12.8016 16.9013 12.0269 15.4804 12.0204H13.7896V15.9155H15.4804V15.9133Z" fill="#D87220"/>
</g>
<defs>
<clipPath id="clip0_126_3450">
<rect width="30.1664" height="30.1664" fill="white"/>
</clipPath>
</defs>
</svg>
