<svg width="24" height="24" viewBox="0 0 24 24" fill="none" xmlns="http://www.w3.org/2000/svg">
<path d="M3.88216 17.3907C3.31749 17.9552 3.00017 18.7209 3 19.5193V21.0646H4.54529C5.34374 21.0644 6.10942 20.7471 6.67393 20.1824L16.7172 10.1392L13.9254 7.34741L3.88216 17.3907Z" fill="#ABCEFF"/>
<path d="M20.4212 3.64323C20.2379 3.45975 20.0203 3.31419 19.7807 3.21488C19.5411 3.11557 19.2843 3.06445 19.025 3.06445C18.7656 3.06445 18.5088 3.11557 18.2692 3.21488C18.0297 3.31419 17.812 3.45975 17.6287 3.64323L14.9897 6.28295L17.7815 9.07471L20.4212 6.43574C20.6047 6.25245 20.7503 6.0348 20.8496 5.79522C20.9489 5.55564 21 5.29883 21 5.03949C21 4.78014 20.9489 4.52333 20.8496 4.28376C20.7503 4.04418 20.6047 3.82652 20.4212 3.64323Z" fill="#ABCEFF"/>
</svg>
