<svg width="24" height="24" viewBox="0 0 24 24" fill="none" xmlns="http://www.w3.org/2000/svg">
<path d="M13.8241 12.7664L18.8892 17.8336C20.0992 16.4047 20.8321 14.6328 20.9851 12.7664H13.8241Z" fill="#ABCEFF"/>
<path d="M11.4804 12.5462L11.2604 12.3261V3.0376C9.84544 3.15359 8.47794 3.60239 7.26928 4.34741C6.06063 5.09244 5.04503 6.11261 4.30524 7.32479C3.56546 8.53697 3.12242 9.90687 3.01223 11.3228C2.90204 12.7388 3.12783 14.1608 3.67118 15.4729C4.21454 16.785 5.06008 17.9501 6.13892 18.8733C7.21776 19.7965 8.49937 20.4516 9.8793 20.7853C11.2592 21.1189 12.6984 21.1217 14.0796 20.7934C15.4608 20.465 16.745 19.8149 17.8273 18.8958L11.4804 12.5462Z" fill="#ABCEFF"/>
<path d="M12.7623 11.2638H20.9851C20.8078 9.14145 19.8845 7.15055 18.3792 5.64457C16.8738 4.13858 14.8838 3.21494 12.7623 3.0376V11.2638Z" fill="#ABCEFF"/>
</svg>
