<svg width="24" height="24" viewBox="0 0 24 24" fill="none" xmlns="http://www.w3.org/2000/svg">
<path d="M5.33333 8.61165V4.63983C5.33333 3.63958 5.86167 2 8.39417 2C8.72419 2.00342 9.05358 2.0296 9.38 2.07835C9.89418 2.22797 10.3461 2.54008 10.6682 2.96801C10.9902 3.39593 11.1651 3.91666 11.1667 4.45228V11.0581C11.7133 11.1993 12.2867 11.1993 12.8333 11.0581V4.45228C12.8349 3.91666 13.0098 3.39593 13.3318 2.96801C13.6539 2.54008 14.1058 2.22797 14.62 2.07835C14.9465 2.03071 15.2759 2.00565 15.6058 2.00333C18.1383 2 18.6667 3.63958 18.6667 4.63983V8.61165C18.6646 9.33545 18.428 10.0391 17.9923 10.6169C17.5565 11.1948 16.9452 11.6157 16.25 11.8166L13.3742 12.6393C12.4754 12.8956 11.5229 12.8956 10.6242 12.6393L7.75 11.8166C7.05481 11.6157 6.44348 11.1948 6.00775 10.6169C5.57201 10.0391 5.33537 9.33545 5.33333 8.61165ZM20.3333 5.35084V8.61165C20.3301 9.69771 19.9747 10.7534 19.3207 11.6203C18.6666 12.4872 17.7491 13.1185 16.7058 13.4195L13.8317 14.2414C12.635 14.5832 11.3666 14.5832 10.17 14.2414L7.29333 13.4187C6.25044 13.1175 5.33328 12.4862 4.67941 11.6195C4.02554 10.7528 3.67019 9.69742 3.66667 8.61165V5.35084C3.15101 5.73582 2.73197 6.23553 2.44271 6.81044C2.15344 7.38536 2.00187 8.01972 2 8.66333V14.4981C2.00132 15.6031 2.44073 16.6624 3.22185 17.4437C4.00296 18.225 5.062 18.6645 6.16667 18.6658H11.1667V20.3329H8.66667C8.44565 20.3329 8.23369 20.4207 8.07741 20.5771C7.92113 20.7334 7.83333 20.9454 7.83333 21.1665C7.83333 21.3875 7.92113 21.5995 8.07741 21.7559C8.23369 21.9122 8.44565 22 8.66667 22H15.3333C15.5543 22 15.7663 21.9122 15.9226 21.7559C16.0789 21.5995 16.1667 21.3875 16.1667 21.1665C16.1667 20.9454 16.0789 20.7334 15.9226 20.5771C15.7663 20.4207 15.5543 20.3329 15.3333 20.3329H12.8333V18.6658H17.8333C18.938 18.6645 19.997 18.225 20.7782 17.4437C21.5593 16.6624 21.9987 15.6031 22 14.4981V8.66333C21.9981 8.01972 21.8466 7.38536 21.5573 6.81044C21.268 6.23553 20.849 5.73582 20.3333 5.35084Z" fill="#ABCEFF"/>
</svg>
