<svg width="24" height="24" viewBox="0 0 24 24" fill="none" xmlns="http://www.w3.org/2000/svg">
<path d="M11.9897 4.19C10.3954 4.19 9.09943 5.45 9.09943 7C9.09943 8.55 10.3954 9.81 11.9897 9.81C13.584 9.81 14.88 8.55 14.88 7C14.88 5.45 13.584 4.19 11.9897 4.19ZM8.38971 15.44C6.65143 15.44 5.25257 16.81 5.24229 18.5V19.81H18.7371V18.5C18.7371 16.81 17.328 15.45 15.5897 15.44H15.3737C13.1931 16.27 10.776 16.27 8.59543 15.44H8.37943M11.9794 2C14.8183 2 17.1223 4.24 17.1223 7C17.1223 9.76 14.8183 12 11.9794 12C9.14057 12 6.83657 9.76 6.83657 7C6.83657 4.24 9.14057 2 11.9794 2ZM8.37943 13.25H9.05829C10.92 14.09 13.0594 14.09 14.9211 13.25H15.6C18.5829 13.25 21 15.6 21 18.5V20.12C21 21.16 20.136 21.99 19.0766 22H4.92343C3.864 22 3 21.16 3 20.13V18.5C3 15.6 5.41714 13.25 8.4 13.25H8.37943Z" fill="white"/>
</svg>
